<svg class="animated" id="freepik_stories-online-gallery" xmlns="http://www.w3.org/2000/svg" viewBox="0 0 500 500" version="1.1" xmlns:xlink="http://www.w3.org/1999/xlink" xmlns:svgjs="http://svgjs.com/svgjs"><style>svg#freepik_stories-online-gallery:not(.animated) .animable {opacity: 0;}svg#freepik_stories-online-gallery.animated #freepik--background-complete--inject-95 {animation: 1s 1 forwards cubic-bezier(.36,-0.01,.5,1.38) zoomOut;animation-delay: 0s;}svg#freepik_stories-online-gallery.animated #freepik--Shadow--inject-95 {animation: 1s 1 forwards cubic-bezier(.36,-0.01,.5,1.38) slideRight;animation-delay: 0s;}svg#freepik_stories-online-gallery.animated #freepik--Plant--inject-95 {animation: 1s 1 forwards cubic-bezier(.36,-0.01,.5,1.38) lightSpeedLeft;animation-delay: 0s;}svg#freepik_stories-online-gallery.animated #freepik--Floor--inject-95 {animation: 1s 1 forwards cubic-bezier(.36,-0.01,.5,1.38) lightSpeedLeft;animation-delay: 0s;}svg#freepik_stories-online-gallery.animated #freepik--Device--inject-95 {animation: 1s 1 forwards cubic-bezier(.36,-0.01,.5,1.38) fadeIn;animation-delay: 0s;}svg#freepik_stories-online-gallery.animated #freepik--Stanchion--inject-95 {animation: 1s 1 forwards cubic-bezier(.36,-0.01,.5,1.38) slideLeft;animation-delay: 0s;}svg#freepik_stories-online-gallery.animated #freepik--character-2--inject-95 {animation: 1s 1 forwards cubic-bezier(.36,-0.01,.5,1.38) zoomIn;animation-delay: 0s;}svg#freepik_stories-online-gallery.animated #freepik--character-1--inject-95 {animation: 1s 1 forwards cubic-bezier(.36,-0.01,.5,1.38) slideDown;animation-delay: 0s;}            @keyframes zoomOut {                0% {                    opacity: 0;                    transform: scale(1.5);                }                100% {                    opacity: 1;                    transform: scale(1);                }            }                    @keyframes slideRight {                0% {                    opacity: 0;                    transform: translateX(30px);                }                100% {                    opacity: 1;                    transform: translateX(0);                }            }                    @keyframes lightSpeedLeft {              from {                transform: translate3d(-50%, 0, 0) skewX(20deg);                opacity: 0;              }              60% {                transform: skewX(-10deg);                opacity: 1;              }              80% {                transform: skewX(2deg);              }              to {                opacity: 1;                transform: translate3d(0, 0, 0);              }            }                    @keyframes fadeIn {                0% {                    opacity: 0;                }                100% {                    opacity: 1;                }            }                    @keyframes slideLeft {                0% {                    opacity: 0;                    transform: translateX(-30px);                }                100% {                    opacity: 1;                    transform: translateX(0);                }            }                    @keyframes zoomIn {                0% {                    opacity: 0;                    transform: scale(0.5);                }                100% {                    opacity: 1;                    transform: scale(1);                }            }                    @keyframes slideDown {                0% {                    opacity: 0;                    transform: translateY(-30px);                }                100% {                    opacity: 1;                    transform: translateY(0);                }            }        </style><g id="freepik--background-complete--inject-95" class="animable" style="transform-origin: 250.58px 208.28px;"><path d="M60.73,75.58l13.12-.28,6.66-.11c2.23,0,4.46,0,6.7,0h.44v.45l.06,11.19v.5h-.5L74,87.21c-4.42,0-8.83-.11-13.24-.16h-.28v-.27c0-1.9.09-3.78.13-5.65Zm0,0,.14,5.66c0,1.86.11,3.7.13,5.53l-.27-.27c4.41,0,8.82-.16,13.24-.16l13.24-.07-.5.5.05-11.19.45.45C85,76,82.85,76,80.66,76l-6.58-.11Z" style="fill: rgb(235, 235, 235); transform-origin: 74.095px 81.26px;" id="elc2xk0qdq89h" class="animable"></path><path d="M75.5,61.47l13.12-.28,6.66-.11c2.23,0,4.47,0,6.7,0h.44v.45l.06,11.19v.5H102L88.74,73.1c-4.42,0-8.83-.11-13.24-.16h-.28v-.27c0-1.9.09-3.78.13-5.65Zm0,0,.14,5.66c0,1.86.11,3.7.13,5.53l-.27-.27c4.41,0,8.82-.16,13.24-.16L102,72.16l-.5.5,0-11.19.45.45c-2.18,0-4.36,0-6.55-.06l-6.58-.11Z" style="fill: rgb(235, 235, 235); transform-origin: 88.85px 67.15px;" id="elxsihwa2482g" class="animable"></path><path d="M101.18,205.24,114.3,205l6.66-.11c2.23,0,4.47,0,6.7-.06h.44v.45l.06,11.19v.5h-.5l-13.24-.07c-4.42,0-8.83-.11-13.24-.16h-.28v-.27c0-1.9.09-3.79.13-5.66Zm0,0,.14,5.65c0,1.86.11,3.71.13,5.54l-.27-.28c4.41-.05,8.82-.15,13.24-.16l13.24-.06-.5.5,0-11.19.45.44c-2.19,0-4.36,0-6.55-.05l-6.58-.11Z" style="fill: rgb(235, 235, 235); transform-origin: 114.53px 210.9px;" id="ela6ed5thqci" class="animable"></path><path d="M116,191.13l13.12-.28,6.66-.11c2.23-.05,4.47,0,6.7-.06h.44v.45l.06,11.19v.5h-.5l-13.24-.07c-4.42,0-8.83-.11-13.24-.16h-.28v-.27c0-1.9.09-3.79.14-5.66Zm0,0,.14,5.65c0,1.86.11,3.71.13,5.54L116,202c4.41,0,8.82-.15,13.24-.16l13.24-.06-.5.5,0-11.19.45.44c-2.18,0-4.36,0-6.55,0l-6.58-.11Z" style="fill: rgb(235, 235, 235); transform-origin: 129.35px 196.75px;" id="elr07p085pmim" class="animable"></path><path d="M46,61.47l13.13-.28,6.66-.11c2.22,0,4.46,0,6.69,0h.45v.45l.05,11.19v.5h-.51L59.19,73.1c-4.41,0-8.82-.11-13.24-.16h-.27v-.27c0-1.9.09-3.78.13-5.65Zm0,0,.15,5.66c0,1.86.11,3.7.13,5.53L46,72.39c4.42,0,8.83-.16,13.24-.16l13.24-.07-.5.5L72,61.47l.44.45c-2.18,0-4.35,0-6.54-.06l-6.58-.11Z" style="fill: rgb(235, 235, 235); transform-origin: 59.33px 67.15px;" id="elhdeh5pj3sw" class="animable"></path><path d="M439.27,304.5l-13.12.27-6.66.12c-2.23,0-4.46,0-6.7.05h-.44v-.44l-.06-11.19v-.51h.5l13.24.06c4.42,0,8.83.11,13.24.16h.28v.27c0,1.89-.09,3.78-.13,5.65Zm0,0-.14-5.66c0-1.86-.11-3.7-.13-5.53l.27.27c-4.41.05-8.82.16-13.24.16l-13.24.07.5-.5-.05,11.19-.45-.45c2.19,0,4.36,0,6.55.05l6.58.12Z" style="fill: rgb(235, 235, 235); transform-origin: 425.92px 298.87px;" id="el1dnvj7byhu7" class="animable"></path><path d="M454.05,318.61l-13.13.27-6.66.12c-2.23,0-4.46,0-6.69.05h-.45v-.44l-.05-11.19v-.51h.51l13.24.06c4.41,0,8.82.11,13.24.16h.27v.27c0,1.89-.09,3.78-.13,5.65Zm0,0L453.9,313c0-1.86-.11-3.7-.13-5.53l.28.27c-4.42.05-8.83.16-13.24.16l-13.24.06.5-.49L428,318.61l-.44-.45c2.18,0,4.35,0,6.54,0l6.58.12Z" style="fill: rgb(235, 235, 235); transform-origin: 440.7px 312.98px;" id="eli0a274cekfd" class="animable"></path><path d="M87.43,318.61l-13.12.27-6.66.12c-2.23,0-4.47,0-6.7.05h-.44v-.44l-.06-11.19v-.51H61l13.24.06c4.42,0,8.83.11,13.24.16h.28v.27c0,1.89-.09,3.78-.14,5.65Zm0,0L87.29,313c0-1.86-.11-3.7-.13-5.53l.27.27c-4.41.05-8.82.16-13.24.16L61,307.91l.5-.49-.05,11.19-.45-.45c2.18,0,4.36,0,6.55,0l6.58.12Z" style="fill: rgb(235, 235, 235); transform-origin: 74.105px 312.98px;" id="elbakph0cryk" class="animable"></path><path d="M412.68,61.47l13.13-.28,6.66-.11c2.22,0,4.46,0,6.69,0h.45v.45l.05,11.19v.5h-.5l-13.24-.06c-4.41,0-8.83-.11-13.24-.16h-.27v-.27c0-1.9.08-3.78.13-5.65Zm0,0,.14,5.66c.05,1.86.12,3.7.13,5.53l-.27-.27c4.41,0,8.83-.16,13.24-.16l13.24-.07-.5.5.06-11.19.44.45c-2.18,0-4.36,0-6.54-.06L426,61.75Z" style="fill: rgb(235, 235, 235); transform-origin: 426.035px 67.15px;" id="el6dxial7fzbc" class="animable"></path><rect x="401.97" y="80.87" width="50.98" height="50.98" style="fill: rgb(255, 255, 255); transform-origin: 427.46px 106.36px;" id="elylbd0q163k9" class="animable"></rect><path d="M399.32,78.22v56.29h56.29V78.22ZM453,131.86H402v-51h51Z" style="fill: rgb(219, 219, 219); transform-origin: 427.465px 106.365px;" id="elvmftj79zng9" class="animable"></path><g id="elf6k80v2shkr"><rect x="420.61" y="93.3" width="17.62" height="39.74" style="fill: rgb(235, 235, 235); transform-origin: 429.42px 113.17px; transform: rotate(90deg);" class="animable"></rect></g><g id="elu37tudp2wba"><rect x="417.28" y="96.18" width="20.36" height="20.36" style="fill: rgb(199, 199, 199); transform-origin: 427.46px 106.36px; transform: rotate(90deg);" class="animable"></rect></g><rect x="455.61" y="78.22" width="2.17" height="56.29" style="fill: rgb(199, 199, 199); transform-origin: 456.695px 106.365px;" id="eliqhzkxq2kip" class="animable"></rect><rect x="401.97" y="153.26" width="50.98" height="50.98" style="fill: rgb(255, 255, 255); transform-origin: 427.46px 178.75px;" id="elv42dxyzdms" class="animable"></rect><rect x="410.73" y="161.42" width="13.31" height="38.45" style="fill: rgb(199, 199, 199); transform-origin: 417.385px 180.645px;" id="elmilev2t422" class="animable"></rect><path d="M399.32,150.61V206.9h56.29V150.61ZM453,204.25H402v-51h51Z" style="fill: rgb(219, 219, 219); transform-origin: 427.465px 178.755px;" id="ellpszyulit6" class="animable"></path><rect x="417.28" y="168.58" width="20.36" height="20.36" style="fill: rgb(235, 235, 235); transform-origin: 427.46px 178.76px;" id="el23saf3fv6b1" class="animable"></rect><rect x="455.61" y="150.61" width="2.17" height="56.29" style="fill: rgb(199, 199, 199); transform-origin: 456.695px 178.755px;" id="elo7n0y0bvvaa" class="animable"></rect><rect x="401.97" y="225.65" width="50.98" height="50.98" style="fill: rgb(255, 255, 255); transform-origin: 427.46px 251.14px;" id="eli3b9o3uz3t" class="animable"></rect><rect x="407.63" y="232.6" width="27.97" height="16.73" style="fill: rgb(235, 235, 235); transform-origin: 421.615px 240.965px;" id="elr1xu0qosgzf" class="animable"></rect><path d="M399.32,223v56.29h56.29V223ZM453,276.64H402v-51h51Z" style="fill: rgb(219, 219, 219); transform-origin: 427.465px 251.145px;" id="elfl72ybdcjqj" class="animable"></path><rect x="417.28" y="240.97" width="20.36" height="20.36" style="fill: rgb(199, 199, 199); transform-origin: 427.46px 251.15px;" id="el4knvejfq2vm" class="animable"></rect><rect x="455.61" y="223" width="2.17" height="56.29" style="fill: rgb(199, 199, 199); transform-origin: 456.695px 251.145px;" id="el5eheka6j6ck" class="animable"></rect><rect x="43.38" y="265.2" width="81.98" height="151.36" style="fill: rgb(219, 219, 219); transform-origin: 84.37px 340.88px;" id="elgbbzesjqjqr" class="animable"></rect><path d="M109.84,195.67c0,21.66-13.41,67.54-25.46,67.54s-25.46-45.88-25.46-67.54c0-15.28,10.17-31.62,10.17-31.62-1.28,0-3.25-1.27-1.36-1.27H101c1.91,0-.07,1.27-1.36,1.27C99.66,164.05,109.84,180.39,109.84,195.67Z" style="fill: rgb(219, 219, 219); transform-origin: 84.38px 212.995px;" id="elcybpnhdfyde" class="animable"></path><path d="M105.55,176.09H63.21a83.3,83.3,0,0,1,5.88-12H99.66A81.46,81.46,0,0,1,105.55,176.09Z" style="fill: rgb(199, 199, 199); transform-origin: 84.38px 170.09px;" id="el5m4ageqbbrr" class="animable"></path><path d="M109.63,191.64H59.14c.13-1.26.32-2.52.57-3.76h49.34C109.3,189.12,109.49,190.38,109.63,191.64Z" style="fill: rgb(199, 199, 199); transform-origin: 84.385px 189.76px;" id="eluulxj8nnui" class="animable"></path><path d="M109.84,195.67c0,.19,0,.38,0,.57H58.93c0-.19,0-.38,0-.57s0-.48,0-.71h50.9C109.84,195.19,109.84,195.43,109.84,195.67Z" style="fill: rgb(199, 199, 199); transform-origin: 84.385px 195.6px;" id="el9lx4saou16k" class="animable"></path><rect x="55.55" y="214.69" width="57.64" height="1.36" style="fill: rgb(166, 166, 166); transform-origin: 84.37px 215.37px;" id="el4tcj4vmuu4" class="animable"></rect><polygon points="61.9 215.99 61.82 217.87 59.7 265.18 58.32 265.18 60.45 217.87 60.55 215.37 61.9 215.99" style="fill: rgb(166, 166, 166); transform-origin: 60.11px 240.275px;" id="elukvjbx1rxg" class="animable"></polygon><polygon points="110.43 265.18 109.06 265.18 106.93 217.87 106.85 215.99 108.2 215.37 108.31 217.87 110.43 265.18" style="fill: rgb(166, 166, 166); transform-origin: 108.64px 240.275px;" id="elh09fnw9mymh" class="animable"></polygon><polygon points="83.7 265.2 83.7 217.87 83.7 215.68 85.06 215.68 85.06 217.87 85.06 265.2 83.7 265.2" style="fill: rgb(166, 166, 166); transform-origin: 84.38px 240.44px;" id="els4crgts9gnm" class="animable"></polygon><rect x="164.9" width="1" height="32.77" style="fill: rgb(199, 199, 199); transform-origin: 165.4px 16.385px;" id="elhlovu3myr55" class="animable"></rect><rect x="161.87" y="28.78" width="7.06" height="7.64" style="fill: rgb(219, 219, 219); transform-origin: 165.4px 32.6px;" id="el50en0wy5i93" class="animable"></rect><path d="M179.85,60.82H151c.58-11,5.82-28.61,14.45-28.61S179.27,49.82,179.85,60.82Z" style="fill: rgb(219, 219, 219); transform-origin: 165.425px 46.515px;" id="elezi0ue0d01h" class="animable"></path><rect x="221.3" width="1" height="32.77" style="fill: rgb(199, 199, 199); transform-origin: 221.8px 16.385px;" id="elh9k2zm7zyc" class="animable"></rect><rect x="218.27" y="28.78" width="7.06" height="7.64" style="fill: rgb(219, 219, 219); transform-origin: 221.8px 32.6px;" id="ela6x9m1gmxqu" class="animable"></rect><path d="M236.25,60.82h-28.9c.58-11,5.83-28.61,14.45-28.61S235.67,49.82,236.25,60.82Z" style="fill: rgb(219, 219, 219); transform-origin: 221.8px 46.515px;" id="eld3udsm5o3pu" class="animable"></path><rect x="277.7" width="1" height="32.77" style="fill: rgb(199, 199, 199); transform-origin: 278.2px 16.385px;" id="elze7pqpk3qm" class="animable"></rect><rect x="274.67" y="28.78" width="7.06" height="7.64" style="fill: rgb(219, 219, 219); transform-origin: 278.2px 32.6px;" id="el5b03p32xcyc" class="animable"></rect><path d="M292.65,60.82h-28.9c.59-11,5.83-28.61,14.45-28.61S292.07,49.82,292.65,60.82Z" style="fill: rgb(219, 219, 219); transform-origin: 278.2px 46.515px;" id="el25f74t8oif6" class="animable"></path><rect x="334.1" width="1" height="32.77" style="fill: rgb(199, 199, 199); transform-origin: 334.6px 16.385px;" id="eliskx44rsuf" class="animable"></rect><rect x="331.07" y="28.78" width="7.06" height="7.64" style="fill: rgb(219, 219, 219); transform-origin: 334.6px 32.6px;" id="eldqnx20t7dmw" class="animable"></rect><path d="M349.05,60.82h-28.9c.59-11,5.83-28.61,14.45-28.61S348.47,49.82,349.05,60.82Z" style="fill: rgb(219, 219, 219); transform-origin: 334.6px 46.515px;" id="elvrq8fncpp2" class="animable"></path></g><g id="freepik--Shadow--inject-95" class="animable" style="transform-origin: 358.51px 449.93px;"><ellipse cx="346.98" cy="461.98" rx="87.62" ry="11.11" style="fill: rgb(235, 235, 235); transform-origin: 346.98px 461.98px;" id="elpdl79ci24d" class="animable"></ellipse><ellipse cx="377.08" cy="440.4" rx="80.58" ry="13.63" style="fill: rgb(235, 235, 235); transform-origin: 377.08px 440.4px;" id="elk8iu2nkhgs" class="animable"></ellipse></g><g id="freepik--Plant--inject-95" class="animable" style="transform-origin: 88.125px 358.215px;"><path d="M115.82,326.74c-3.09-3-7.08-6.69-11.81-5.38-4.44,1.23-6.15,6.08-6.94,10.12-1,5.21-1.83,10.47-2.65,15.72S92.8,357.8,92,363.11q-.65,4.49-1.27,9c-.21,1.5-.42,3-.62,4.49s-.45,2.94-.53,4.42a.41.41,0,0,0,.81.09c.58-2.49.81-5.09,1.18-7.63l1.11-7.65c.74-5.07,1.51-10.14,2.27-15.2s1.56-10.13,2.37-15.19c.68-4.29,1-9.62,4.81-12.45a7.36,7.36,0,0,1,7.11-.67,21.47,21.47,0,0,1,6.46,4.52A.06.06,0,1,0,115.82,326.74Z" style="fill: rgb(38, 50, 56); transform-origin: 102.709px 351.259px;" id="elqylwo3ffx6p" class="animable"></path><path d="M111.59,323.64s-6.32-2.27-9.43,2.34.61,16.34,29.37,22.95a81.12,81.12,0,0,0-6.92-26C118.44,309.49,107.46,314.58,111.59,323.64Z" style="fill: rgb(255, 193, 0); transform-origin: 116.39px 331.821px;" id="elriseushrq7" class="animable"></path><path d="M129.88,347a23.39,23.39,0,0,0-1.45-2.34c-.48-.74-1-1.48-1.46-2.21l-1.12-1.65c0-.13,0-.27.05-.41s.07-.5.1-.75c.07-.54.15-1.07.23-1.61s.17-1.07.27-1.61a8.78,8.78,0,0,1,.37-1.69c0-.08-.11-.13-.12,0a6.05,6.05,0,0,1-.26.95c-.07.25-.13.49-.19.73-.14.55-.27,1.09-.4,1.64s-.21,1-.29,1.53c0,.25-.08.49-.11.74-.52-.73-1-1.46-1.58-2.17-1.53-2-3.14-3.95-4.81-5.83,0,0,0,0,0-.06a51.92,51.92,0,0,1,.75-9c0-.08-.1-.13-.12,0a30.88,30.88,0,0,0-1.08,8.6c-.6-.67-1.2-1.33-1.82-2-1.4-1.51-2.82-3-4.28-4.44-.06-.06-.15,0-.1.08,2.43,2.61,4.73,5.33,7,8.1a48.58,48.58,0,0,0-5.26.19c-2,.15-3.89.4-5.82.66a.07.07,0,0,0,0,.13,54,54,0,0,1,5.82-.52c1.88-.08,3.74,0,5.62,0,1.21,1.5,2.41,3,3.59,4.54h-.27c-.44,0-.88,0-1.32,0-.88,0-1.75.08-2.62.15a38,38,0,0,0-5.31.8c-.09,0-.06.13,0,.12,1.77-.2,3.54-.36,5.32-.43l2.54,0h1.32a1.74,1.74,0,0,0,.73-.07c.77,1,1.55,2,2.31,3,.62.8,1.22,1.61,1.81,2.43s1.15,1.75,1.82,2.53A.07.07,0,0,0,129.88,347Z" style="fill: rgb(38, 50, 56); transform-origin: 119.121px 335.17px;" id="el5z57r15tyji" class="animable"></path><path d="M114.34,330.18a18.53,18.53,0,0,0-3.07-.15c-1,0-2.06,0-3.08.06a.07.07,0,1,0,0,.13c1-.07,2.08-.09,3.12-.07s2,.11,3,.08C114.37,330.23,114.38,330.18,114.34,330.18Z" style="fill: rgb(38, 50, 56); transform-origin: 111.229px 330.128px;" id="elr0rtk8v79eb" class="animable"></path><path d="M123.37,332.5c.12-1,.24-2,.45-2.94,0-.09-.11-.12-.12,0-.15,1-.34,1.93-.48,2.9-.07.48-.14,1-.2,1.45a7.15,7.15,0,0,0-.12,1.38.09.09,0,0,0,.17,0,7.87,7.87,0,0,0,.15-1.37C123.26,333.43,123.32,333,123.37,332.5Z" style="fill: rgb(38, 50, 56); transform-origin: 123.36px 332.416px;" id="elz5j22pxsuwg" class="animable"></path><path d="M121.48,321.61c-.25,1-.5,1.93-.68,2.9-.09.49-.16,1-.23,1.49a6.4,6.4,0,0,0-.1,1.45,0,0,0,0,0,.08,0,9,9,0,0,0,.23-1.38c.06-.48.13-1,.21-1.43.18-1,.36-2,.61-3C121.62,321.58,121.5,321.53,121.48,321.61Z" style="fill: rgb(38, 50, 56); transform-origin: 121.033px 324.509px;" id="elazsj193araa" class="animable"></path><path d="M84,380c-.16-1.81-.33-3.62-.52-5.43q-.57-5.37-1.3-10.73c-.48-3.56-.94-7.13-1.51-10.67a26.8,26.8,0,0,0-1.09-4.85,4.63,4.63,0,0,0-2.69-3c-3.38-1.17-5.67,2.34-7,4.83a.06.06,0,0,0,.11.06c.82-1.18,3.08-4.48,5.65-4.33,1.72.11,3.11,1.33,3.94,5.64,2.06,10.73,3.92,32.51,4.14,33.94.12.75.65.72.66-.09C84.39,383.51,84.18,381.73,84,380Z" style="fill: rgb(38, 50, 56); transform-origin: 77.1364px 365.544px;" id="elkk2tf87z84" class="animable"></path><path d="M70.79,348.73s3-10.44-3.58-5.22c-10.89,8.69-11.27,27.6-11.27,27.6s19.35-11.24,21.75-18.65C81.28,341.42,70.79,348.73,70.79,348.73Z" style="fill: rgb(255, 193, 0); transform-origin: 67.1892px 356.579px;" id="elot89cd80ftj" class="animable"></path><path d="M74.45,353.86c-1.52.31-3.06.51-4.59.73l-2.18.3c-.49.07-1,.12-1.48.18,1.44-2,2.9-4,4.28-6,0-.08-.07-.16-.13-.1a44.43,44.43,0,0,0-3.23,3.74c-.29-.81-.58-1.62-.86-2.43s-.68-1.86-.92-2.83c0-.08-.15,0-.13,0,.27,1,.45,1.93.71,2.89s.53,1.85.86,2.75c-.71.92-1.39,1.86-2,2.81-.33-.94-.75-1.85-1-2.81,0-.08-.15,0-.12,0,.34,1.06.53,2.17.86,3.23-.45.65-.89,1.3-1.32,2-.78,1.2-1.51,2.43-2.23,3.67a.28.28,0,0,0-.17.29c-1.23,2.12-2.39,4.26-3.54,6.43,0,.07.08.14.12.06,1.15-2.14,2.42-4.22,3.75-6.26h0a3.71,3.71,0,0,1,.63-.12l.67-.14c.5-.11,1-.24,1.49-.36,1-.25,1.95-.48,2.95-.65.08,0,0-.14,0-.13-1.17.23-2.35.36-3.53.5-.56.06-1.12.13-1.67.22h-.08c.7-1.05,1.4-2.1,2.11-3.14s1.43-2,2.16-3c.67-.1,1.33-.27,2-.4l2.24-.44c1.5-.29,3-.63,4.5-.88C74.57,354,74.53,353.84,74.45,353.86Z" style="fill: rgb(38, 50, 56); transform-origin: 65.93px 358.11px;" id="eld8hf6qp7us5" class="animable"></path><path d="M62.82,354.89c-.09-.28-.17-.56-.26-.83a17.41,17.41,0,0,1-.44-1.76c0-.08-.14,0-.13,0,.13.59.27,1.18.4,1.77a11.45,11.45,0,0,0,.51,1.73.11.11,0,0,0,.22-.06C63,355.48,62.92,355.18,62.82,354.89Z" style="fill: rgb(38, 50, 56); transform-origin: 62.5566px 354.074px;" id="el9phv031guj7" class="animable"></path><path d="M76.43,351.44c-.88.13-1.77.19-2.66.27s-1.77.2-2.66.34c0,0,0,.08,0,.07.89-.06,1.78-.13,2.66-.24s1.77-.25,2.66-.31C76.52,351.56,76.51,351.43,76.43,351.44Z" style="fill: rgb(38, 50, 56); transform-origin: 73.8019px 351.78px;" id="elkj99i0o1ktp" class="animable"></path><path d="M98.26,366.73c-.34-7.69-.83-15.37-1.6-23-.39-3.81-.82-7.63-1.35-11.42a81.69,81.69,0,0,0-2.21-11.06,21.1,21.1,0,0,0-3.68-7.79A8.34,8.34,0,0,0,82,310.18c-3.37.42-6.08,2.54-8.42,4.84-2.63,2.59-5,5.41-7.48,8.17l-1.83,2.11c-.06.07,0,.16.09.09,2.38-2.73,4.86-5.39,7.45-7.93,2.39-2.35,4.85-4.92,8.17-5.89a8.44,8.44,0,0,1,4.75-.11A7.54,7.54,0,0,1,88,313.51a17.11,17.11,0,0,1,3.66,7.12c2.07,7.06,2.81,14.48,3.57,21.78s1.31,14.85,1.68,22.3.67,15,1.39,22.45c.09.92.21,1.83.33,2.75.08.62,1,.62,1,0C99,382.18,98.61,374.46,98.26,366.73Z" style="fill: rgb(38, 50, 56); transform-origin: 81.9379px 350.26px;" id="elh10u0c4zwgn" class="animable"></path><path d="M73.14,315.85s4.39-8.12-.79-10.73S49.79,321.9,44.72,350.25c0,0,28.05-12.41,37.57-24.78S81,310.38,73.14,315.85Z" style="fill: rgb(255, 193, 0); transform-origin: 65.3682px 327.567px;" id="elfgyofl7wdg9" class="animable"></path><path d="M77.27,322.46c-3.16,0-6.3-.23-9.45-.21l1.77-2a30.31,30.31,0,0,0,2.47-2.86.08.08,0,0,0-.12-.11,22.38,22.38,0,0,0-2.38,2.39c-.79.84-1.58,1.68-2.36,2.53-1.2,1.3-2.38,2.63-3.56,3.95,0-.13,0-.25,0-.38,0-.55,0-1.1,0-1.66,0-1.06,0-2.13,0-3.2,0-2.17,0-4.35.17-6.51a.07.07,0,0,0-.13,0c-.16,2.18-.38,4.34-.49,6.52q-.07,1.61-.09,3.21c0,.55,0,1.1,0,1.65,0,.3,0,.62,0,.93l-.55.62c-2.52,2.88-4.91,5.85-7.24,8.87,0-.16,0-.33,0-.5,0-.33-.07-.66-.11-1-.08-.72-.18-1.44-.29-2.16s-.21-1.35-.32-2-.31-1.52-.37-2.29a.07.07,0,1,0-.13,0,19.91,19.91,0,0,1,.26,2.31c.07.69.13,1.39.2,2.08s.12,1.39.19,2.08c0,.34.07.67.1,1l.06.5a1,1,0,0,0,.14.4l-1.2,1.57c-1.59,2.1-3.15,4.23-4.71,6.36,0,.06,0,.15.09.09,1.48-1.93,3-3.83,4.54-5.7,1.16.05,2.33,0,3.49-.06s2.43,0,3.65,0c.08,0,.08-.13,0-.13l-3.64.05c-1.11,0-2.24-.05-3.35,0q2-2.48,4.1-4.92l1.5-1.79a6.66,6.66,0,0,0,1.41.05h1.66l3.11-.05c2.14,0,4.28-.1,6.42-.11a.07.07,0,0,0,0-.13c-2.14,0-4.29-.12-6.43-.17-1,0-2.08-.06-3.11-.07l-1.66,0c-.32,0-.64,0-1,0l3.53-4.18a.27.27,0,0,0,.07-.08q1.73-2,3.46-4.06l.48-.55c3.27.1,6.53-.11,9.8-.05C77.35,322.6,77.35,322.46,77.27,322.46Z" style="fill: rgb(38, 50, 56); transform-origin: 63.2288px 329.508px;" id="el6x1lny3p8ba" class="animable"></path><path d="M75.65,328h-.76c-.07,0-.07.12,0,.12h.77C75.74,328.17,75.74,328,75.65,328Z" style="fill: rgb(38, 50, 56); transform-origin: 75.2782px 328.065px;" id="el0t032bddawh" class="animable"></path><path d="M74,328.05l-3-.07-1.52-.05A6,6,0,0,0,68,328s0,.08,0,.1a5.49,5.49,0,0,0,1.41.1l1.51,0h3A.07.07,0,0,0,74,328.05Z" style="fill: rgb(38, 50, 56); transform-origin: 71.0221px 328.061px;" id="el9fzo9n6nub" class="animable"></path><path d="M65.14,337.51a43,43,0,0,0-6.2-.56,0,0,0,0,0,0,.05c2.06.2,4.12.31,6.17.64C65.19,337.65,65.22,337.52,65.14,337.51Z" style="fill: rgb(38, 50, 56); transform-origin: 62.0635px 337.295px;" id="elmnhh7653hp" class="animable"></path><path d="M56.71,328.49c0-.18,0-.36-.07-.54,0-.41-.11-.81-.18-1.22-.12-.77-.25-1.54-.4-2.3,0-.07-.14-.05-.13,0,.1.79.18,1.59.26,2.38,0,.39.06.78.1,1.17a3.18,3.18,0,0,0,.16,1.11.15.15,0,0,0,.27,0A1.62,1.62,0,0,0,56.71,328.49Z" style="fill: rgb(38, 50, 56); transform-origin: 56.3364px 326.78px;" id="el90udcyb7ns" class="animable"></path><path d="M98,305.42c-1-1.87-2.29-4.34-4.79-4.18-2.07.12-3,2.24-3.44,4-1.37,5.4-1.47,11.09-1.73,16.62-.57,11.7-1.07,23.4-1.15,35.11,0,3.24,0,6.49,0,9.73s0,6.64.23,9.94a.24.24,0,1,0,.48,0c0-2.83-.08-5.66-.09-8.49s0-5.53.06-8.29q.14-8.4.44-16.78c.21-5.56.45-11.12.69-16.67.12-2.78.23-5.56.36-8.33s.24-5.39.54-8.06c.18-1.5.4-3,.71-4.48a6.23,6.23,0,0,1,1.3-3,2.82,2.82,0,0,1,3.65-.26,7.75,7.75,0,0,1,2.6,3.23C97.91,305.56,98,305.49,98,305.42Z" style="fill: rgb(38, 50, 56); transform-origin: 92.445px 339.056px;" id="el5grwsdi7ezy" class="animable"></path><path d="M97.31,304.52s-2.06-7.27,2.49-3.63c7.58,6.05,7.85,19.22,7.85,19.22s-13.47-7.82-15.15-13C90,299.43,97.31,304.52,97.31,304.52Z" style="fill: rgb(255, 193, 0); transform-origin: 99.8145px 309.99px;" id="elw2ygqi3j3en" class="animable"></path><path d="M104.82,314.71c-.13-.2-.26-.39-.38-.59a3.2,3.2,0,0,0,0-.62c0-.32,0-.63,0-.94,0-.62,0-1.23.07-1.84a.07.07,0,0,0-.13,0c0,.6-.06,1.2-.08,1.81l0,.9c0,.12,0,.26,0,.39-.52-.82-1.07-1.63-1.63-2.43-.16-.24-.33-.46-.5-.69a14.54,14.54,0,0,1,0-2.38c0-.84,0-1.69.05-2.53a.07.07,0,0,0-.13,0c0,.88-.07,1.76-.11,2.64a16.8,16.8,0,0,0,0,1.88c-1.31-1.77-2.68-3.48-4.08-5.17,0-.06-.15,0-.1.08.86,1.09,1.69,2.22,2.51,3.35-1.59-.37-3.2-.58-4.82-.81-.08,0-.11.11,0,.12,1.71.26,3.38.69,5.07,1.06h0c.65.91,1.29,1.83,1.92,2.74l.76,1.13H103l-.52-.07-1.12-.1q-1.17-.09-2.34-.15c-.08,0-.08.13,0,.13.76,0,1.52.08,2.29.16l1.2.15.53.06.15,0,1.3,1.91c.76,1.13,1.44,2.33,2.25,3.42a.07.07,0,0,0,.11-.07A35.83,35.83,0,0,0,104.82,314.71Z" style="fill: rgb(38, 50, 56); transform-origin: 101.135px 311.725px;" id="elbiizn3g7gjr" class="animable"></path><path d="M101.46,306.5c0-.29,0-.57,0-.85a13.33,13.33,0,0,1,.07-1.79.07.07,0,1,0-.13,0c0,.59-.06,1.18-.09,1.77,0,.29,0,.59,0,.88v.41a1.46,1.46,0,0,0,0,.42.06.06,0,0,0,.12,0,1.26,1.26,0,0,0,0-.39C101.46,306.79,101.46,306.64,101.46,306.5Z" style="fill: rgb(38, 50, 56); transform-origin: 101.415px 305.582px;" id="elqxakup59bso" class="animable"></path><path d="M99.8,309.51c-.51-.09-1-.11-1.53-.15s-1.11-.1-1.66-.17a.07.07,0,1,0,0,.13c1.06.06,2.12.25,3.18.29C99.84,309.61,99.85,309.52,99.8,309.51Z" style="fill: rgb(38, 50, 56); transform-origin: 98.1734px 309.398px;" id="elnpvj6tnghaq" class="animable"></path><path d="M104,309.55c0,.06,0,.22,0,.28v1.26a.93.93,0,0,0,0,.44,0,0,0,0,0,0,0,.51.51,0,0,0,0-.21,1.93,1.93,0,0,0,0-.24v-1.25c0-.07,0-.22,0-.28S103.94,309.43,104,309.55Z" style="fill: rgb(38, 50, 56); transform-origin: 103.992px 310.505px;" id="ele0xorprqdmu" class="animable"></path><path d="M98.3,344.24c-2.84-2.13-5.38-5.19-9.19-5.34-3.15-.12-5.36,2.25-6.62,4.89A27.63,27.63,0,0,0,81,348.13c-.57,2-1.1,4-1.61,6-1,4-1.83,7.95-2.52,12-.38,2.24-.74,4.49-1,6.74a57.14,57.14,0,0,0-.67,6.9.36.36,0,0,0,.71.08c.38-1.89.54-3.83.82-5.74s.57-3.83.89-5.73c.65-3.82,1.4-7.63,2.26-11.4.81-3.57,1.61-7.19,2.76-10.67.83-2.48,2.15-5.39,4.84-6.29,4.09-1.36,7.81,2.11,10.8,4.35C98.28,344.38,98.37,344.29,98.3,344.24Z" style="fill: rgb(38, 50, 56); transform-origin: 86.7633px 359.511px;" id="elu58cxr5ait" class="animable"></path><path d="M95.37,342.2s-2.62-7.46,1.16-8.92c5.67-2.19,20.49,14.5,17.59,40.09A146,146,0,0,1,94.21,360c-8.46-7.1-10.63-16.37-6.9-18.77S95.37,342.2,95.37,342.2Z" style="fill: rgb(255, 193, 0); transform-origin: 100.023px 353.229px;" id="elupsrgqilwtf" class="animable"></path><path d="M112.41,367.88A20,20,0,0,0,111,365.3c-.48-.87-1-1.75-1.48-2.61-1-1.68-2-3.37-3-5-.16-.27-.33-.54-.5-.81,0-.1,0-.2.07-.3s.11-.49.16-.74c.13-.55.23-1.11.33-1.67.21-1.1.4-2.21.69-3.28,0-.08-.11-.11-.13,0-.23,1.09-.57,2.17-.9,3.24-.16.52-.33,1.05-.47,1.58,0,.19-.09.37-.14.55-1.22-2-2.46-4-3.79-5.9a2.71,2.71,0,0,0,.13-.82c0-.38.09-.75.13-1.12.1-.85.2-1.69.32-2.53a48.47,48.47,0,0,1,.9-4.9c0-.08-.11-.1-.13,0-.41,1.61-.85,3.22-1.16,4.86-.15.8-.29,1.6-.4,2.41,0,.4-.09.81-.14,1.21,0,.12,0,.25,0,.37-.41-.58-.82-1.16-1.25-1.72-1.31-1.73-2.67-3.41-4-5.08,0-.06-.16,0-.1.07a91.46,91.46,0,0,1,6.44,9.41l1.11,1.81-.37-.05c-.47-.06-1-.09-1.44-.13-1-.09-1.93-.18-2.89-.25-1.93-.16-3.87-.27-5.79-.48-.08,0-.11.12,0,.13,2,.22,3.89.53,5.83.81l2.87.39a11.34,11.34,0,0,0,2.21.22c.76,1.23,1.52,2.46,2.27,3.7a2.86,2.86,0,0,0-.51,0h-2.76l-3.72,0c-.09,0-.07.13,0,.13,1.26,0,2.51.08,3.77.14l1.79.11.89.06a1.75,1.75,0,0,0,.79,0l1.93,3.14c.6,1,1.2,1.94,1.81,2.89a23.12,23.12,0,0,0,1.94,2.92C112.33,368,112.44,368,112.41,367.88Z" style="fill: rgb(38, 50, 56); transform-origin: 102.772px 354.491px;" id="ele2ci0uirsv9" class="animable"></path><path d="M107,347.21a18.75,18.75,0,0,1-.51,2.43q-.31,1.25-.72,2.46a.08.08,0,1,0,.15,0c.25-.81.48-1.62.68-2.44s.33-1.66.53-2.48C107.1,347.15,107,347.12,107,347.21Z" style="fill: rgb(38, 50, 56); transform-origin: 106.447px 349.679px;" id="elor4esgbnya" class="animable"></path><path d="M98.53,352.2a.91.91,0,0,0-.62-.23l-1.08-.15c-.67-.09-1.34-.16-2-.24-1.39-.17-2.79-.3-4.18-.48-.09,0-.11.12,0,.13,1.32.16,2.63.36,4,.53.64.09,1.28.18,1.93.25l.93.11a3.42,3.42,0,0,1,1.06.18C98.53,352.33,98.58,352.25,98.53,352.2Z" style="fill: rgb(38, 50, 56); transform-origin: 94.5724px 351.703px;" id="el5z17pwrpo6v" class="animable"></path><path d="M106.93,363.45c-.66-.05-1.32-.07-2-.09l-1,0-.48,0a3.28,3.28,0,0,1-.63,0c-.09,0-.1.15,0,.13a2.84,2.84,0,0,1,.58,0l.52,0,1,.06c.66,0,1.32.08,2,.08C107,363.6,107,363.46,106.93,363.45Z" style="fill: rgb(38, 50, 56); transform-origin: 104.865px 363.495px;" id="elkqcmywmnalk" class="animable"></path><path d="M111,360.59l.21-1.12c.14-.74.27-1.48.41-2.22a.07.07,0,0,0-.13,0l-.48,2.16c-.09.36-.17.71-.24,1.07,0,.17-.07.34-.1.5a1.21,1.21,0,0,0-.06.53c0,.06.1.11.14.05A2.78,2.78,0,0,0,111,360.59Z" style="fill: rgb(38, 50, 56); transform-origin: 111.111px 359.397px;" id="elhe89xhdqop" class="animable"></path><polygon points="72.19 376.87 72.98 385.94 75.69 416.56 99.67 416.56 103.06 385.94 104.06 376.87 72.19 376.87" style="fill: rgb(55, 71, 79); transform-origin: 88.125px 396.715px;" id="eltj059n64um8" class="animable"></polygon><polygon points="72.19 376.87 72.98 385.94 103.06 385.94 104.06 376.87 72.19 376.87" style="fill: rgb(38, 50, 56); transform-origin: 88.125px 381.405px;" id="elk9o9fi98wy" class="animable"></polygon><g id="el1wvej5qmr8p"><rect x="69.81" y="374.4" width="36.62" height="7.36" style="fill: rgb(55, 71, 79); transform-origin: 88.12px 378.08px; transform: rotate(180deg);" class="animable"></rect></g></g><g id="freepik--Floor--inject-95" class="animable" style="transform-origin: 250px 416.56px;"><polygon points="42.22 416.56 94.16 416.32 146.11 416.23 250 416.06 353.89 416.23 405.84 416.31 457.78 416.56 405.84 416.8 353.89 416.89 250 417.06 146.11 416.89 94.16 416.8 42.22 416.56" style="fill: rgb(38, 50, 56); transform-origin: 250px 416.56px;" id="el5kz2bbxd02o" class="animable"></polygon></g><g id="freepik--Device--inject-95" class="animable" style="transform-origin: 249.995px 229.405px;"><g id="eln9kf7hf3we"><rect x="62.84" y="104.19" width="374.31" height="250.43" rx="12.89" style="fill: rgb(55, 71, 79); transform-origin: 249.995px 229.405px; transform: rotate(90deg);" class="animable"></rect></g><rect x="135.64" y="68.44" width="229.01" height="322.14" style="fill: rgb(255, 255, 255); transform-origin: 250.145px 229.51px;" id="eldiyeko8iczo" class="animable"></rect><g id="el0mvred50b0kf"><rect x="248.05" y="30.2" width="3.89" height="54.5" rx="1.25" style="fill: rgb(38, 50, 56); transform-origin: 249.995px 57.45px; transform: rotate(90deg);" class="animable"></rect></g><circle cx="250" cy="403.24" r="7.05" style="fill: rgb(38, 50, 56); transform-origin: 250px 403.24px;" id="elxpxp5jcbmcg" class="animable"></circle><rect x="135.64" y="68.44" width="229.01" height="322.14" style="fill: rgb(255, 255, 255); transform-origin: 250.145px 229.51px;" id="el20fduj1ix88" class="animable"></rect><rect x="135.64" y="68.44" width="229.01" height="7.87" style="fill: rgb(38, 50, 56); transform-origin: 250.145px 72.375px;" id="elclu5qbvl5tt" class="animable"></rect><path d="M142.68,72.38A1.65,1.65,0,1,1,141,70.73,1.65,1.65,0,0,1,142.68,72.38Z" style="fill: rgb(199, 199, 199); transform-origin: 141.03px 72.3797px;" id="elvvw2n9s3sbr" class="animable"></path><path d="M149.42,72.38a1.65,1.65,0,1,1-1.65-1.65A1.65,1.65,0,0,1,149.42,72.38Z" style="fill: rgb(255, 255, 255); transform-origin: 147.77px 72.38px;" id="els1vpgv8wdek" class="animable"></path><path d="M156.15,72.38a1.65,1.65,0,1,1-1.65-1.65A1.65,1.65,0,0,1,156.15,72.38Z" style="fill: rgb(255, 193, 0); transform-origin: 154.5px 72.38px;" id="eltfwvhv7ax7" class="animable"></path><g id="elh3xqtj2xhkc"><rect x="193.82" y="231.51" width="112.36" height="159.1" style="fill: rgb(219, 219, 219); transform-origin: 250px 311.06px; transform: rotate(180deg);" class="animable"></rect></g><polygon points="292.71 231.51 216.42 231.51 224.22 199.06 219.89 167.3 207.29 132.72 244.63 113.58 292.71 143.81 289.19 184.76 292.71 231.51" style="fill: rgb(255, 193, 0); transform-origin: 250px 172.545px;" id="eltnvc15aqzd" class="animable"></polygon><polygon points="271 111.47 271.14 139 240.68 129.02 248.48 98.57 271 111.47" style="fill: rgb(255, 193, 0); transform-origin: 255.91px 118.785px;" id="el4fbpmq05lcp" class="animable"></polygon><g id="el5xv0l6ph3r"><path d="M207.29,132.72,220.4,126l17.39,32.78-10,40.72-1.23,32H216.42l7.8-32.45-4.33-31.76Z" style="opacity: 0.2; transform-origin: 222.54px 178.75px;" class="animable"></path></g><g id="elqljw6s5yqn"><polygon points="289.19 184.76 275.19 199.35 289.99 195.34 289.19 184.76" style="opacity: 0.2; transform-origin: 282.59px 192.055px;" class="animable"></polygon></g><g id="elll6wgd6f4l"><polygon points="270.9 130.1 265.51 151.1 277.33 134.14 270.9 130.1" style="opacity: 0.2; transform-origin: 271.42px 140.6px;" class="animable"></polygon></g><g id="eljqvr8y0opto"><rect x="234.95" y="243.53" width="30.09" height="15.31" style="fill: rgb(255, 255, 255); transform-origin: 249.995px 251.185px; transform: rotate(180deg);" class="animable"></rect></g><polygon points="162.33 220.28 159.12 217.28 162.33 214.27 162.84 214.82 160.22 217.28 162.84 219.73 162.33 220.28" style="fill: rgb(199, 199, 199); transform-origin: 160.98px 217.275px;" id="elfe9vhqilapf" class="animable"></polygon><path d="M161.69,222.63a5.36,5.36,0,1,1,5.36-5.35A5.36,5.36,0,0,1,161.69,222.63Zm0-9.71a4.36,4.36,0,1,0,4.36,4.36A4.36,4.36,0,0,0,161.69,212.92Z" style="fill: rgb(199, 199, 199); transform-origin: 161.69px 217.27px;" id="el3bbr7rfhuax" class="animable"></path><polygon points="337.67 220.28 337.16 219.73 339.78 217.28 337.16 214.82 337.67 214.27 340.88 217.28 337.67 220.28" style="fill: rgb(199, 199, 199); transform-origin: 339.02px 217.275px;" id="el7gupnhx4xvr" class="animable"></polygon><path d="M338.31,222.63a5.36,5.36,0,1,1,5.36-5.35A5.36,5.36,0,0,1,338.31,222.63Zm0-9.71a4.36,4.36,0,1,0,4.36,4.36A4.36,4.36,0,0,0,338.31,212.92Z" style="fill: rgb(199, 199, 199); transform-origin: 338.31px 217.27px;" id="el4nm006449rr" class="animable"></path></g><g id="freepik--Stanchion--inject-95" class="animable" style="transform-origin: 250px 356.065px;"><path d="M178.75,299.87c-11.66,0-22.41-.66-31.63-1.55a320.43,320.43,0,0,1-49.73-8.55l1.38-4.48c.8.22,80.89,22.1,150.49,0l1.55,4.43C226.43,297.48,201,299.87,178.75,299.87Z" style="fill: rgb(255, 193, 0); transform-origin: 174.1px 292.58px;" id="elrs6dy93y0bq" class="animable"></path><rect x="95.33" y="280.18" width="6.22" height="145.93" style="fill: rgb(166, 166, 166); transform-origin: 98.44px 353.145px;" id="elf7xb83c7akp" class="animable"></rect><ellipse cx="98.05" cy="426.76" rx="27.49" ry="5.19" style="fill: rgb(166, 166, 166); transform-origin: 98.05px 426.76px;" id="el15wsdzr8876" class="animable"></ellipse><path d="M330.69,299.87c-11.66,0-22.41-.66-31.63-1.55a320.73,320.73,0,0,1-49.73-8.55l1.39-4.48c.8.22,80.88,22.1,150.48,0l1.56,4.43C378.37,297.48,352.89,299.87,330.69,299.87Z" style="fill: rgb(255, 193, 0); transform-origin: 326.045px 292.58px;" id="el1xw890l7zkg" class="animable"></path><rect x="247.27" y="280.18" width="6.22" height="145.93" style="fill: rgb(166, 166, 166); transform-origin: 250.38px 353.145px;" id="elschl8ioc8xa" class="animable"></rect><ellipse cx="249.99" cy="426.76" rx="27.49" ry="5.19" style="fill: rgb(166, 166, 166); transform-origin: 249.99px 426.76px;" id="elkwi2cxepx8" class="animable"></ellipse><rect x="399.23" y="280.18" width="6.22" height="145.93" style="fill: rgb(166, 166, 166); transform-origin: 402.34px 353.145px;" id="elyqfqvp4969g" class="animable"></rect><ellipse cx="401.95" cy="426.76" rx="27.49" ry="5.19" style="fill: rgb(166, 166, 166); transform-origin: 401.95px 426.76px;" id="eli8medqanzsa" class="animable"></ellipse></g><g id="freepik--character-2--inject-95" class="animable" style="transform-origin: 395.611px 269.389px;"><path d="M333.55,436.54c2.15.69,63.68-.1,66-1.62.89-.57,1.3-9.54,1.48-20.39v-.34c0-2.24.07-4.54.08-6.88,0-.32,0-.64,0-1l-3-31.92-41.16.41L361,406.46l0,1.25.25,6.55,0,.67s-23.42,10.84-25.8,12.78S331.39,435.85,333.55,436.54Z" style="fill: rgb(235, 148, 129); transform-origin: 366.831px 405.591px;" id="el3epe8yuc8rx" class="animable"></path><path d="M333.55,436.54c2.15.69,63.68-.1,66-1.62.89-.57,1.3-9.54,1.48-20.39v-.34c0-2.24.07-4.54.08-6.88,0-.32,0-.64,0-1l-40.08.11,0,1.25.25,6.55,0,.67s-23.42,10.84-25.8,12.78S331.39,435.85,333.55,436.54Z" style="fill: rgb(235, 235, 235); transform-origin: 366.835px 421.551px;" id="elgsuc3oootp" class="animable"></path><path d="M333.54,436.53c1.11.36,17.83.32,34.17,0,3.28-.06,6.55-.14,9.66-.22,11.65-.32,21.28-.8,22.18-1.39s1.29-9.28,1.46-19.93c0-.15,0-.3,0-.45s0-.24,0-.35h0l-39.66.08,0,.67s-23.42,10.84-25.79,12.78S331.38,435.85,333.54,436.53Z" style="fill: rgb(255, 193, 0); transform-origin: 366.792px 425.488px;" id="elersbj69hehr" class="animable"></path><path d="M334.21,434.14c10.37-.39,52.22-1,62.5-.57.09,0,.09.06,0,.06-10.26.61-52.12.86-62.5.68C334,434.31,334,434.15,334.21,434.14Z" style="fill: rgb(38, 50, 56); transform-origin: 365.415px 433.895px;" id="el3a7zm5ounso" class="animable"></path><path d="M356.92,414.43c4.07-.81,9.07-.25,12.22,2.61.13.12,0,.29-.17.25a56.52,56.52,0,0,0-12-2.34A.26.26,0,0,1,356.92,414.43Z" style="fill: rgb(38, 50, 56); transform-origin: 362.938px 415.694px;" id="elh01c1c7dw0h" class="animable"></path><path d="M354,416.24c4.07-.81,9.07-.25,12.23,2.62.12.11,0,.28-.17.24a57.15,57.15,0,0,0-12-2.34A.26.26,0,0,1,354,416.24Z" style="fill: rgb(38, 50, 56); transform-origin: 360.023px 417.504px;" id="elcj5lpjrgqjo" class="animable"></path><path d="M351.07,418.06c4.07-.82,9.07-.26,12.23,2.61.12.11,0,.28-.17.24a58,58,0,0,0-12-2.34A.26.26,0,0,1,351.07,418.06Z" style="fill: rgb(38, 50, 56); transform-origin: 357.115px 419.316px;" id="eli9j4uvf8v1g" class="animable"></path><path d="M367.71,436.52c3.28-.06,6.55-.14,9.66-.22,11.65-.32,21.28-.8,22.18-1.39s1.29-9.28,1.46-19.93c0-.15,0-.3,0-.45s0-.24,0-.35h0C395.56,418,376.41,430.74,367.71,436.52Z" style="fill: rgb(38, 50, 56); transform-origin: 384.36px 425.35px;" id="elxju86c3ypg" class="animable"></path><path d="M358.63,414.4h44.31S394,310.9,394.37,309.09c.44-2.31,3.06-12.79,6.54-26.47,1.09-4.28,2.27-8.88,3.49-13.64,3.31-12.88,7-27,10.12-39.19,4.76-18.35,8.48-32.6,8.48-32.6H385.45s-4.38,13.88-9.9,31.93c-9,29.34-21,69.72-22.18,79.53C351.45,324.5,358.63,414.4,358.63,414.4Z" style="fill: rgb(38, 50, 56); transform-origin: 388.022px 305.795px;" id="eldf68i76pvc" class="animable"></path><path d="M360.59,406.84c6.77-.14,4.83-.2,11.6-.26,3.31,0,25.07-.23,28.17.29a.07.07,0,0,1,0,.13c-3.1.52-24.86.33-28.17.29-6.77-.06-4.83-.12-11.6-.26A.1.1,0,0,1,360.59,406.84Z" style="fill: rgb(55, 71, 79); transform-origin: 380.463px 406.943px;" id="elvpkvjjd91g" class="animable"></path><path d="M386,302.77c1.46-6.41,3.63-12.68,5.52-19q5.76-19.17,11.59-38.31,2.91-9.57,5.84-19.13,1.49-4.83,3-9.66c1-3.14,2.11-6.26,3-9.43.36-1.29.56-.58.09,1-.93,3.31-1.85,6.62-2.82,9.91q-2.85,9.79-5.76,19.58-5.76,19.47-11.62,38.92-2.92,9.75-5.87,19.5a80.36,80.36,0,0,0-2.39,9.43,42.6,42.6,0,0,0-.39,10.09c.42,6.78,1.21,13.55,1.83,20.32s1.26,13.55,1.88,20.33q1.88,20.24,3.72,40.47c.15,1.71.3,3.42.43,5.13,0,.57-.82.53-.88,0-1.46-13.34-2.58-26.72-3.83-40.08s-2.5-26.59-3.74-39.88c-.31-3.34-.66-6.68-.67-10A41.41,41.41,0,0,1,386,302.77Z" style="fill: rgb(55, 71, 79); transform-origin: 400.123px 304.452px;" id="el0kvu9tna3bf" class="animable"></path><path d="M389.71,197.19c2.61,20.17,7.58,58,11.2,85.43,8.47-33.24,22.09-85.43,22.09-85.43Z" style="fill: rgb(55, 71, 79); transform-origin: 406.355px 239.905px;" id="el294ul6thlsj" class="animable"></path><path d="M380.49,437.13c2.15.71,63.68.13,66-1.38.89-.56,1.33-9.53,1.55-20.38,0-.12,0-.23,0-.34.05-2.24.08-4.54.09-6.88,0-.32,0-.64,0-1,.14-15.67-1-31.92-1-31.92l-40.22.26,1.13,31.63,0,1.25.22,6.54,0,.68s-23.46,10.75-25.84,12.68S378.33,436.44,380.49,437.13Z" style="fill: rgb(235, 148, 129); transform-origin: 413.821px 406.331px;" id="elkp60c507tui" class="animable"></path><path d="M380.49,437.13c2.15.71,63.68.13,66-1.38.89-.56,1.33-9.53,1.55-20.38,0-.12,0-.23,0-.34.05-2.24.08-4.54.09-6.88,0-.32,0-.64,0-1l-40.08,0,0,1.25.22,6.54,0,.68s-23.46,10.75-25.84,12.68S378.33,436.44,380.49,437.13Z" style="fill: rgb(235, 235, 235); transform-origin: 413.816px 422.291px;" id="eloqxrjlcntx" class="animable"></path><path d="M380.49,437.13c2.15.71,63.68.13,66-1.38.89-.56,1.33-9.53,1.55-20.38,0-.12,0-.23,0-.34L408.35,415l0,.68s-23.46,10.75-25.84,12.68S378.33,436.44,380.49,437.13Z" style="fill: rgb(255, 193, 0); transform-origin: 413.781px 426.216px;" id="elexzinoo478r" class="animable"></path><path d="M381.16,434.74c10.37-.35,52.23-.79,62.5-.35.09,0,.09.06,0,.06-10.28.58-52.13.68-62.51.46C380.94,434.9,380.94,434.75,381.16,434.74Z" style="fill: rgb(38, 50, 56); transform-origin: 412.361px 434.612px;" id="eleo83ggjggqt" class="animable"></path><path d="M403.94,415.11c4.07-.8,9.07-.22,12.22,2.66.12.11,0,.28-.18.24a57.66,57.66,0,0,0-12-2.39A.26.26,0,0,1,403.94,415.11Z" style="fill: rgb(38, 50, 56); transform-origin: 409.977px 416.399px;" id="el6mgytcuexdn" class="animable"></path><path d="M401,416.91c4.07-.8,9.07-.22,12.22,2.66.12.11,0,.28-.17.24a57.22,57.22,0,0,0-12-2.38A.26.26,0,0,1,401,416.91Z" style="fill: rgb(38, 50, 56); transform-origin: 407.017px 418.199px;" id="eli4zt21n1umc" class="animable"></path><path d="M398.08,418.71c4.07-.8,9.07-.22,12.22,2.66.12.11,0,.29-.17.25a56.61,56.61,0,0,0-12-2.39A.26.26,0,0,1,398.08,418.71Z" style="fill: rgb(38, 50, 56); transform-origin: 404.096px 420.004px;" id="elorgqi5uakwh" class="animable"></path><path d="M386.66,197.19s.87,18,5,32.2c.33,1.18.69,2.34,1.07,3.45a66.38,66.38,0,0,1,10.83,5.56s.43,14.46.86,30.58c.48,18,1,38.13.88,42.39-.38,16,2,103.68,2,103.68l44.31.17s-8-98-8-103.8c.09-9.39-2.14-50.91-3.87-81.19-1.05-18.65-1.92-33-1.92-33Z" style="fill: rgb(38, 50, 56); transform-origin: 419.135px 306.205px;" id="elai4wmm2cq75" class="animable"></path><path d="M408.79,407.17c6.77-.12,4.83-.18,11.59-.22,3.32,0,25.08-.11,28.18.41.06,0,.06.13,0,.14-3.09.5-24.86.22-28.17.17-6.77-.09-4.82-.14-11.59-.31A.1.1,0,1,1,408.79,407.17Z" style="fill: rgb(55, 71, 79); transform-origin: 428.635px 407.367px;" id="el3ruecchk2l" class="animable"></path><path d="M434.11,203.61c.82,24.72,1.68,49.44,2.79,74.15s2.6,49.57,4.67,74.3c1.16,13.82,2.26,33.25,3.75,47,0,.09-.13.12-.15,0-3.22-24.52-5-54.84-6.61-79.51s-2.66-49.38-3.5-74.09c-.48-14-.84-27.95-1.26-41.93C433.8,203.4,434.11,203.42,434.11,203.61Z" style="fill: rgb(55, 71, 79); transform-origin: 439.56px 301.293px;" id="elpeew044tgw" class="animable"></path><path d="M390.87,231.77a82.1,82.1,0,0,1,12.67,6.63c.15.1,0,.35-.14.26-4.27-2.07-8.63-4.07-12.79-6.38A.29.29,0,0,1,390.87,231.77Z" style="fill: rgb(55, 71, 79); transform-origin: 397.047px 235.218px;" id="elunzl8076gjd" class="animable"></path><path d="M390.62,216.52c.3,1.58.68,3.14,1,4.7s.55,3,.94,4.42a7.52,7.52,0,0,0,2.06,3.7c.57.54,1.21,1,1.82,1.5.33.27.69.52,1,.79q-.08-.31-.12-.63c-.11-.6-.21-1.2-.31-1.8-.22-1.32-.43-2.65-.64-4-.4-2.61-.76-5.25-1.31-7.84,0-.11.14-.15.16,0,.65,2.56,1.37,5.1,1.94,7.68.28,1.27,1.27,7.53,1.31,8s.09.92.1,1.38a5.55,5.55,0,0,1,0,1.41c0,.11-.17.09-.22,0h0a5.32,5.32,0,0,1-.4-1.36c-.12-.45-.22-.9-.3-1.36,0-.16-.05-.33-.07-.5-.62-.37-1.19-.87-1.77-1.28s-1.25-.89-1.84-1.39a7,7,0,0,1-2.25-3.51,25.16,25.16,0,0,1-.74-4.5c-.2-1.78-.34-3.56-.59-5.34C390.45,216.46,390.6,216.42,390.62,216.52Z" style="fill: rgb(55, 71, 79); transform-origin: 394.503px 226.185px;" id="elupzv09jihz" class="animable"></path><path d="M406.81,156.48C403.38,166.82,388,199.66,381.57,202c-6.72,2.39-32.67,5.36-38.43.82-2.82-2.22-3.8-26,0-25.39s26.68,1.43,29.4.45,20.91-27.44,28.29-33.85C413.56,132.93,408.66,150.91,406.81,156.48Z" style="fill: rgb(235, 148, 129); transform-origin: 374.97px 172.834px;" id="elhya8zqd462i" class="animable"></path><path d="M348.9,177l.37,29.58s26.61.07,33.7-3.66,22.1-37.92,25.84-51-2.25-15.11-11.78-5.51-23.86,29.72-25.56,30.14S348.9,177,348.9,177Z" style="fill: rgb(255, 193, 0); transform-origin: 379.418px 173.503px;" id="els4bstp62sdk" class="animable"></path><g id="elsaamrcshl3"><path d="M408.05,143.3a1,1,0,1,0,1,1A1,1,0,0,0,408.05,143.3Zm0,1.7a.69.69,0,0,1,0-1.38.69.69,0,0,1,0,1.38Zm-20.78,12.9a.9.9,0,0,0-.4.09l-.56.69a.93.93,0,0,0,0,.24,1,1,0,0,0,2,0A1,1,0,0,0,387.27,157.9Zm0,1.7a.69.69,0,1,1,.69-.68A.69.69,0,0,1,387.27,159.6Zm10.39-1.7a1,1,0,0,0-1,1,1,1,0,1,0,1-1Zm0,1.7a.69.69,0,1,1,.69-.68A.69.69,0,0,1,397.66,159.6Zm-4.7-8.82-.21.25a.67.67,0,0,1,.4.63.68.68,0,0,1-.68.69.68.68,0,0,1-.59-.33l-.21.24a1,1,0,1,0,1.29-1.48Zm9.89-.13a1,1,0,1,0,1,1A1,1,0,0,0,402.85,150.65Zm0,1.7a.69.69,0,0,1,0-1.38.69.69,0,0,1,0,1.38Zm-26,20.16a1,1,0,0,0,0,2,1,1,0,1,0,0-2Zm0,1.69a.69.69,0,0,1,0-1.37.69.69,0,1,1,0,1.37Zm10.39-1.69a1,1,0,1,0,1,1A1,1,0,0,0,387.27,172.51Zm0,1.69a.69.69,0,0,1,0-1.37.69.69,0,1,1,0,1.37Zm10.39-1.69a1,1,0,1,0,1,1A1,1,0,0,0,397.66,172.51Zm0,1.69a.69.69,0,0,1,0-1.37.69.69,0,1,1,0,1.37Zm-15.58-8.95a1,1,0,0,0-1,1,1,1,0,0,0,2,0A1,1,0,0,0,382.08,165.25Zm0,1.7a.69.69,0,1,1,0-1.38.69.69,0,0,1,0,1.38Zm10.39-1.7a1,1,0,0,0-1,1,1,1,0,0,0,2,0A1,1,0,0,0,392.47,165.25Zm0,1.7a.69.69,0,1,1,0-1.38.69.69,0,0,1,0,1.38Zm10.38-1.7a1,1,0,0,0-1,1,1,1,0,0,0,1,1,1.06,1.06,0,0,0,.4-.08h0l.53-1.31A1,1,0,0,0,402.85,165.25Zm0,1.7a.69.69,0,1,1,.69-.68A.69.69,0,0,1,402.85,167Zm-46.74,20.16a1,1,0,1,0,1,1A1,1,0,0,0,356.11,187.11Zm0,1.7a.69.69,0,0,1,0-1.38.69.69,0,0,1,0,1.38Zm10.39-1.7a1,1,0,1,0,1,1A1,1,0,0,0,366.5,187.11Zm0,1.7a.69.69,0,0,1,0-1.38.69.69,0,0,1,0,1.38Zm10.38-1.7a1,1,0,1,0,1,1A1,1,0,0,0,376.88,187.11Zm0,1.7a.69.69,0,0,1,0-1.38.69.69,0,0,1,0,1.38Zm10.39-1.7a1,1,0,1,0,1,1A1,1,0,0,0,387.27,187.11Zm0,1.7a.69.69,0,0,1,0-1.38.69.69,0,0,1,0,1.38Zm-36.36-8.95a1,1,0,0,0,0,2,1,1,0,1,0,0-2Zm0,1.69a.69.69,0,0,1,0-1.37.69.69,0,1,1,0,1.37Zm10.39-1.69a1,1,0,1,0,1,1A1,1,0,0,0,361.3,179.86Zm0,1.69a.69.69,0,0,1,0-1.37.69.69,0,1,1,0,1.37Zm10.39-1.69a1,1,0,1,0,1,1A1,1,0,0,0,371.69,179.86Zm0,1.69a.69.69,0,0,1,0-1.37.69.69,0,1,1,0,1.37Zm10.39-1.69a1,1,0,1,0,1,1A1,1,0,0,0,382.08,179.86Zm0,1.69a.69.69,0,1,1,0-1.37.69.69,0,0,1,0,1.37Zm10.39-1.69a1,1,0,1,0,1,1A1,1,0,0,0,392.47,179.86Zm0,1.69a.69.69,0,1,1,0-1.37.69.69,0,0,1,0,1.37Zm-36.36,20.16a1,1,0,0,0-1,1,1,1,0,0,0,2,0A1,1,0,0,0,356.11,201.71Zm0,1.7a.69.69,0,1,1,0-1.38.69.69,0,0,1,0,1.38Zm10.39-1.7a1,1,0,0,0-1,1,1,1,0,0,0,2,0A1,1,0,0,0,366.5,201.71Zm0,1.7a.69.69,0,1,1,0-1.38.69.69,0,0,1,0,1.38Zm10.38-1.7a1,1,0,0,0-1,1,1,1,0,0,0,2,0A1,1,0,0,0,376.88,201.71Zm0,1.7a.69.69,0,1,1,.69-.68A.69.69,0,0,1,376.88,203.41Zm-26-8.95a1,1,0,1,0,1,1A1,1,0,0,0,350.91,194.46Zm0,1.7a.69.69,0,0,1,0-1.38.69.69,0,0,1,0,1.38Zm10.39-1.7a1,1,0,1,0,1,1A1,1,0,0,0,361.3,194.46Zm0,1.7a.69.69,0,0,1,0-1.38.69.69,0,0,1,0,1.38Zm10.39-1.7a1,1,0,1,0,1,1A1,1,0,0,0,371.69,194.46Zm0,1.7a.69.69,0,0,1,0-1.38.69.69,0,0,1,0,1.38Zm10.39-1.7a1,1,0,1,0,1,1A1,1,0,0,0,382.08,194.46Zm0,1.7a.69.69,0,0,1,0-1.38.69.69,0,0,1,0,1.38Z" style="opacity: 0.2; transform-origin: 379.45px 173.505px;" class="animable"></path></g><path d="M356.66,191.58c0-2.34-.18-11.71-.39-14,0,0-.07,0-.07,0-.23,2.26-.35,11.51-.33,13.86a126.54,126.54,0,0,0,.52,14c0,.08.14.1.15,0C356.89,200.84,356.7,196.2,356.66,191.58Z" style="fill: rgb(38, 50, 56); transform-origin: 356.298px 191.544px;" id="elbyxxe4p0fre" class="animable"></path><g id="el7a3i1w1uhk7"><path d="M408.82,151.9c-3.75,13.09-18.75,47.27-25.84,51-3.4,1.79-11.28,2.71-18.57,3.17l41.78-65.63C409.76,140,411.11,143.91,408.82,151.9Z" style="opacity: 0.1; transform-origin: 387.18px 173.238px;" class="animable"></path></g><path d="M442.45,223.89c-.16.16-65.07-4.28-65.62-5-.76-1,19.79-67,24.94-76.66,2.19-4.13,12.69-4.72,16.84-.82,10.39,9.77,17.62,41.36,19.14,50.83C440.27,207.86,443,223.32,442.45,223.89Z" style="fill: rgb(255, 193, 0); transform-origin: 409.665px 181.34px;" id="el56ilad73h1y" class="animable"></path><g id="el6mtqcbwczik"><path d="M408.05,143.3a1,1,0,1,0,1,1A1,1,0,0,0,408.05,143.3Zm0,1.7a.69.69,0,0,1,0-1.38.69.69,0,0,1,0,1.38Zm10.39-1.7a1,1,0,1,0,1,1A1,1,0,0,0,418.44,143.3Zm0,1.7a.69.69,0,0,1,0-1.38.69.69,0,0,1,0,1.38Zm-20.78,12.9a1,1,0,0,0-1,1,1,1,0,1,0,1-1Zm0,1.7a.69.69,0,1,1,.69-.68A.69.69,0,0,1,397.66,159.6Zm10.39-1.7a1,1,0,0,0-1,1,1,1,0,0,0,2,0A1,1,0,0,0,408.05,157.9Zm0,1.7a.69.69,0,1,1,0-1.38.69.69,0,0,1,0,1.38Zm10.39-1.7a1,1,0,0,0-1,1,1,1,0,0,0,2,0A1,1,0,0,0,418.44,157.9Zm0,1.7a.69.69,0,1,1,0-1.38.69.69,0,0,1,0,1.38Zm10.5,0h-.12a.69.69,0,0,1-.68-.68.73.73,0,0,1,.31-.59,2.49,2.49,0,0,0-.11-.29,1,1,0,0,0-.51.88,1,1,0,0,0,1,1,.85.85,0,0,0,.23,0A2.49,2.49,0,0,0,428.94,159.59Zm-26.09-8.94a1,1,0,1,0,1,1A1,1,0,0,0,402.85,150.65Zm0,1.7a.69.69,0,0,1,0-1.38.69.69,0,0,1,0,1.38Zm10.39-1.7a1,1,0,1,0,1,1A1,1,0,0,0,413.24,150.65Zm0,1.7a.69.69,0,0,1,0-1.38.69.69,0,1,1,0,1.38Zm10.39-1.7a1,1,0,1,0,1,1A1,1,0,0,0,423.63,150.65Zm0,1.7a.69.69,0,0,1,0-1.38.69.69,0,0,1,0,1.38Zm-26,20.16a1,1,0,1,0,1,1A1,1,0,0,0,397.66,172.51Zm0,1.69a.69.69,0,0,1,0-1.37.69.69,0,1,1,0,1.37Zm10.39-1.69a1,1,0,1,0,1,1A1,1,0,0,0,408.05,172.51Zm0,1.69a.69.69,0,1,1,0-1.37.69.69,0,0,1,0,1.37Zm10.39-1.69a1,1,0,1,0,1,1A1,1,0,0,0,418.44,172.51Zm0,1.69a.69.69,0,1,1,0-1.37.69.69,0,0,1,0,1.37Zm10.38-1.69a1,1,0,0,0,0,2,1,1,0,1,0,0-2Zm0,1.69a.69.69,0,0,1,0-1.37.69.69,0,1,1,0,1.37Zm-35.73-8.72-.11.32a.7.7,0,0,1,.17.47.68.68,0,0,1-.55.67c0,.1-.07.21-.11.32a1,1,0,0,0,1-1A1,1,0,0,0,393.09,165.48Zm9.76-.23a1,1,0,0,0-1,1,1,1,0,0,0,2,0A1,1,0,0,0,402.85,165.25Zm0,1.7a.69.69,0,1,1,.69-.68A.69.69,0,0,1,402.85,167Zm10.39-1.7a1,1,0,0,0-1,1,1,1,0,0,0,2,0A1,1,0,0,0,413.24,165.25Zm0,1.7a.69.69,0,1,1,.69-.68A.69.69,0,0,1,413.24,167Zm10.39-1.7a1,1,0,0,0-1,1,1,1,0,1,0,1-1Zm0,1.7a.69.69,0,1,1,.69-.68A.69.69,0,0,1,423.63,167Zm-36.36,20.16a1,1,0,1,0,1,1A1,1,0,0,0,387.27,187.11Zm0,1.7a.69.69,0,0,1,0-1.38.69.69,0,0,1,0,1.38Zm10.39-1.7a1,1,0,1,0,1,1A1,1,0,0,0,397.66,187.11Zm0,1.7a.69.69,0,0,1,0-1.38.69.69,0,0,1,0,1.38Zm10.39-1.7a1,1,0,1,0,1,1A1,1,0,0,0,408.05,187.11Zm0,1.7a.69.69,0,0,1,0-1.38.69.69,0,0,1,0,1.38Zm10.39-1.7a1,1,0,1,0,1,1A1,1,0,0,0,418.44,187.11Zm0,1.7a.69.69,0,0,1,0-1.38.69.69,0,0,1,0,1.38Zm10.38-1.7a1,1,0,1,0,1,1A1,1,0,0,0,428.82,187.11Zm0,1.7a.69.69,0,0,1,0-1.38.69.69,0,0,1,0,1.38Zm-36.35-8.95a1,1,0,1,0,1,1A1,1,0,0,0,392.47,179.86Zm0,1.69a.69.69,0,1,1,0-1.37.69.69,0,0,1,0,1.37Zm10.38-1.69a1,1,0,0,0,0,2,1,1,0,1,0,0-2Zm0,1.69a.69.69,0,0,1,0-1.37.69.69,0,1,1,0,1.37Zm10.39-1.69a1,1,0,1,0,1,1A1,1,0,0,0,413.24,179.86Zm0,1.69a.69.69,0,0,1,0-1.37.69.69,0,1,1,0,1.37Zm10.39-1.69a1,1,0,1,0,1,1A1,1,0,0,0,423.63,179.86Zm0,1.69a.69.69,0,0,1,0-1.37.69.69,0,1,1,0,1.37ZM434,179.86a1,1,0,1,0,1,1A1,1,0,0,0,434,179.86Zm0,1.69a.69.69,0,1,1,0-1.37.69.69,0,0,1,0,1.37Zm-46.75,20.16a1,1,0,0,0-1,1,1,1,0,0,0,2,0A1,1,0,0,0,387.27,201.71Zm0,1.7a.69.69,0,1,1,.69-.68A.69.69,0,0,1,387.27,203.41Zm10.39-1.7a1,1,0,0,0-1,1,1,1,0,1,0,1-1Zm0,1.7a.69.69,0,1,1,.69-.68A.69.69,0,0,1,397.66,203.41Zm10.39-1.7a1,1,0,0,0-1,1,1,1,0,0,0,2,0A1,1,0,0,0,408.05,201.71Zm0,1.7a.69.69,0,1,1,0-1.38.69.69,0,0,1,0,1.38Zm10.39-1.7a1,1,0,0,0-1,1,1,1,0,0,0,2,0A1,1,0,0,0,418.44,201.71Zm0,1.7a.69.69,0,1,1,0-1.38.69.69,0,0,1,0,1.38Zm10.38-1.7a1,1,0,0,0-1,1,1,1,0,0,0,2,0A1,1,0,0,0,428.82,201.71Zm0,1.7a.69.69,0,1,1,.69-.68A.69.69,0,0,1,428.82,203.41Zm10.75-.1a.72.72,0,0,1-.36.1.69.69,0,0,1,0-1.38h.15c0-.11,0-.21-.05-.32h-.1a1,1,0,0,0-1,1,1,1,0,0,0,1,1,1,1,0,0,0,.42-.09Zm-47.1-8.85a1,1,0,1,0,1,1A1,1,0,0,0,392.47,194.46Zm0,1.7a.69.69,0,1,1,0-1.38.69.69,0,0,1,0,1.38Zm10.38-1.7a1,1,0,1,0,1,1A1,1,0,0,0,402.85,194.46Zm0,1.7a.69.69,0,0,1,0-1.38.69.69,0,0,1,0,1.38Zm10.39-1.7a1,1,0,1,0,1,1A1,1,0,0,0,413.24,194.46Zm0,1.7a.69.69,0,0,1,0-1.38.69.69,0,0,1,0,1.38Zm10.39-1.7a1,1,0,1,0,1,1A1,1,0,0,0,423.63,194.46Zm0,1.7a.69.69,0,0,1,0-1.38.69.69,0,0,1,0,1.38Zm10.39-1.7a1,1,0,1,0,1,1A1,1,0,0,0,434,194.46Zm0,1.7a.69.69,0,0,1,0-1.38.69.69,0,0,1,0,1.38Zm-56.71,20.26c0,.1-.06.21-.08.31a.68.68,0,0,1,.34.6.7.7,0,0,1-.64.69c0,.12,0,.22-.05.31a1,1,0,0,0,1-1A1,1,0,0,0,377.31,216.42Zm10-.1a1,1,0,1,0,1,1A1,1,0,0,0,387.27,216.32Zm0,1.7a.7.7,0,0,1-.68-.69.69.69,0,1,1,1.37,0A.69.69,0,0,1,387.27,218Zm10.39-1.7a1,1,0,1,0,1,1A1,1,0,0,0,397.66,216.32Zm0,1.7a.7.7,0,0,1-.68-.69.69.69,0,1,1,1.37,0A.69.69,0,0,1,397.66,218Zm10.39-1.7a1,1,0,1,0,1,1A1,1,0,0,0,408.05,216.32Zm0,1.7a.7.7,0,0,1-.69-.69.69.69,0,0,1,.69-.69.67.67,0,0,1,.68.69A.68.68,0,0,1,408.05,218Zm10.39-1.7a1,1,0,1,0,1,1A1,1,0,0,0,418.44,216.32Zm0,1.7a.7.7,0,0,1-.69-.69.69.69,0,0,1,.69-.69.67.67,0,0,1,.68.69A.68.68,0,0,1,418.44,218Zm10.38-1.7a1,1,0,0,0,0,2,1,1,0,1,0,0-2Zm0,1.7a.7.7,0,0,1-.68-.69.69.69,0,1,1,1.37,0A.69.69,0,0,1,428.82,218Zm10.39-1.7a1,1,0,1,0,1,1A1,1,0,0,0,439.21,216.32Zm0,1.7a.7.7,0,0,1-.68-.69.69.69,0,1,1,1.37,0A.69.69,0,0,1,439.21,218Zm-57.13-9a1,1,0,0,0-1,1,1,1,0,0,0,2,0A1,1,0,0,0,382.08,209.06Zm0,1.7a.69.69,0,1,1,0-1.38.69.69,0,0,1,0,1.38Zm10.39-1.7a1,1,0,0,0-1,1,1,1,0,0,0,2,0A1,1,0,0,0,392.47,209.06Zm0,1.7a.69.69,0,1,1,0-1.38.69.69,0,0,1,0,1.38Zm10.38-1.7a1,1,0,0,0-1,1,1,1,0,0,0,2,0A1,1,0,0,0,402.85,209.06Zm0,1.7a.69.69,0,1,1,.69-.68A.69.69,0,0,1,402.85,210.76Zm10.39-1.7a1,1,0,0,0-1,1,1,1,0,0,0,2,0A1,1,0,0,0,413.24,209.06Zm0,1.7a.69.69,0,1,1,.69-.68A.69.69,0,0,1,413.24,210.76Zm10.39-1.7a1,1,0,0,0-1,1,1,1,0,1,0,1-1Zm0,1.7a.69.69,0,1,1,.69-.68A.69.69,0,0,1,423.63,210.76Zm10.39-1.7a1,1,0,0,0-1,1,1,1,0,0,0,2,0A1,1,0,0,0,434,209.06Zm0,1.7a.69.69,0,1,1,0-1.38.69.69,0,0,1,0,1.38Z" style="opacity: 0.2; transform-origin: 408.545px 180.815px;" class="animable"></path></g><path d="M427.33,148.92c17.23,19,36.66,51.1,28.35,58-7.6,6.25-28.31,1.64-45.74-5.17-3.31-1.3,1.78-30.22,5.16-28.47a74.14,74.14,0,0,0,13.72,5c1,.26-5.62-8-11.46-23.37C411.43,139.28,417.48,138,427.33,148.92Z" style="fill: rgb(235, 148, 129); transform-origin: 433.264px 175.821px;" id="el48rjpuxl5is" class="animable"></path><path d="M379.86,171.24c-.13,3,7.29,2.69,7.29,2.69a5.55,5.55,0,0,0-2.36,2.93c-.64,2.19,2.51,4.16,2.51,4.16a6.85,6.85,0,0,0-2,3.49c-.4,2.15,2.49,4.59,2.49,4.59a6,6,0,0,0,.18,4.18c1.63,3.48,7.54,3.78,11.17,4.68A77.86,77.86,0,0,1,411,202.22l7.8-26.7s-15.49-10-19.93-10C395.1,165.6,380.05,166.66,379.86,171.24Z" style="fill: rgb(235, 148, 129); transform-origin: 399.329px 183.87px;" id="el17qn6itdtta" class="animable"></path><path d="M387.22,173.84a50.45,50.45,0,0,1,12.2-1,.07.07,0,0,1,0,.14c-4,0-8.16,1-12.18,1.09A.1.1,0,0,1,387.22,173.84Z" style="fill: rgb(38, 50, 56); transform-origin: 393.302px 173.435px;" id="elesoiqgfdira" class="animable"></path><path d="M387.42,180.72a10.78,10.78,0,0,1,2.78-.06c1,.05,2,.12,3,.2,2,.17,3.93.38,5.89.65a.07.07,0,0,1,0,.14c-2-.16-3.93-.3-5.9-.37l-2.95-.1a12.88,12.88,0,0,1-2.78-.19A.14.14,0,0,1,387.42,180.72Z" style="fill: rgb(38, 50, 56); transform-origin: 393.245px 181.124px;" id="elm9clcswf48b" class="animable"></path><path d="M387.88,189.11a7.31,7.31,0,0,1,2.51.08c.89.1,1.79.19,2.69.27,1.79.17,3.58.33,5.38.44a.07.07,0,0,1,0,.14c-1.83-.1-3.66-.17-5.48-.28l-2.69-.19a6.78,6.78,0,0,1-2.42-.37A0,0,0,0,1,387.88,189.11Z" style="fill: rgb(38, 50, 56); transform-origin: 393.2px 189.539px;" id="eleqnezp24saj" class="animable"></path><path d="M419.26,172.14l-6.64,33s41.27,10.77,45.55.32-20-49.21-34-60.27-8.75,6.37-8.32,7.76c1.89,6.19,10.69,22.34,10.69,22.34Z" style="fill: rgb(255, 193, 0); transform-origin: 435.644px 175.779px;" id="elryt8q2a8y7" class="animable"></path><g id="el9mkszhlxnyq"><path d="M418.44,143.3a1,1,0,1,0,1,1A1,1,0,0,0,418.44,143.3Zm0,1.7a.69.69,0,0,1,0-1.38.69.69,0,0,1,0,1.38Zm0,12.9a1,1,0,0,0-.53.16c0,.1.09.19.13.29a.71.71,0,0,1,.4-.13.68.68,0,0,1,.68.7.67.67,0,0,1-.52.66c0,.09.09.18.13.28a1,1,0,0,0,.72-.94A1,1,0,0,0,418.44,157.9Zm10.38,0a1,1,0,0,0-1,1,1,1,0,0,0,2,0A1,1,0,0,0,428.82,157.9Zm0,1.7a.69.69,0,1,1,.69-.68A.69.69,0,0,1,428.82,159.6Zm-5.19-8.95a1,1,0,1,0,1,1A1,1,0,0,0,423.63,150.65Zm0,1.7a.69.69,0,0,1,0-1.38.69.69,0,0,1,0,1.38Zm-4.5,20.43-.08.42a.79.79,0,0,1,.07.32.66.66,0,0,1-.24.52l-.09.41a1,1,0,0,0,.34-1.67Zm9.69-.27a1,1,0,0,0,0,2,1,1,0,1,0,0-2Zm0,1.69a.69.69,0,0,1,0-1.37.69.69,0,1,1,0,1.37Zm10.39-1.69a1,1,0,1,0,1,1A1,1,0,0,0,439.21,172.51Zm0,1.69a.69.69,0,0,1,0-1.37.69.69,0,1,1,0,1.37Zm-15.58-8.95a1,1,0,0,0-1,1,1,1,0,1,0,1-1Zm0,1.7a.69.69,0,1,1,.69-.68A.69.69,0,0,1,423.63,167Zm10.39-1.7a1,1,0,0,0-1,1,1,1,0,0,0,2,0A1,1,0,0,0,434,165.25Zm0,1.7a.69.69,0,1,1,0-1.38.69.69,0,0,1,0,1.38Zm-15.58,20.16a1,1,0,1,0,1,1A1,1,0,0,0,418.44,187.11Zm0,1.7a.69.69,0,0,1,0-1.38.69.69,0,0,1,0,1.38Zm10.38-1.7a1,1,0,1,0,1,1A1,1,0,0,0,428.82,187.11Zm0,1.7a.69.69,0,0,1,0-1.38.69.69,0,0,1,0,1.38Zm10.39-1.7a1,1,0,1,0,1,1A1,1,0,0,0,439.21,187.11Zm0,1.7a.69.69,0,0,1,0-1.38.69.69,0,0,1,0,1.38Zm10.39-1.7a1,1,0,1,0,1,1A1,1,0,0,0,449.6,187.11Zm0,1.7a.69.69,0,0,1,0-1.38.69.69,0,0,1,0,1.38Zm-26-8.95a1,1,0,1,0,1,1A1,1,0,0,0,423.63,179.86Zm0,1.69a.69.69,0,0,1,0-1.37.69.69,0,1,1,0,1.37ZM434,179.86a1,1,0,1,0,1,1A1,1,0,0,0,434,179.86Zm0,1.69a.69.69,0,1,1,0-1.37.69.69,0,0,1,0,1.37Zm10.39-1.69a1,1,0,1,0,1,1A1,1,0,0,0,444.41,179.86Zm0,1.69a.69.69,0,1,1,0-1.37.69.69,0,0,1,0,1.37Zm-26,20.16a1,1,0,0,0-1,1,1,1,0,0,0,2,0A1,1,0,0,0,418.44,201.71Zm0,1.7a.69.69,0,1,1,0-1.38.69.69,0,0,1,0,1.38Zm10.38-1.7a1,1,0,0,0-1,1,1,1,0,0,0,2,0A1,1,0,0,0,428.82,201.71Zm0,1.7a.69.69,0,1,1,.69-.68A.69.69,0,0,1,428.82,203.41Zm10.39-1.7a1,1,0,0,0-1,1,1,1,0,0,0,2,0A1,1,0,0,0,439.21,201.71Zm0,1.7a.69.69,0,1,1,.69-.68A.69.69,0,0,1,439.21,203.41Zm10.39-1.7a1,1,0,0,0-1,1,1,1,0,1,0,1-1Zm0,1.7a.69.69,0,1,1,.69-.68A.69.69,0,0,1,449.6,203.41Zm-26-8.95a1,1,0,1,0,1,1A1,1,0,0,0,423.63,194.46Zm0,1.7a.69.69,0,0,1,0-1.38.69.69,0,0,1,0,1.38Zm10.39-1.7a1,1,0,1,0,1,1A1,1,0,0,0,434,194.46Zm0,1.7a.69.69,0,0,1,0-1.38.69.69,0,0,1,0,1.38Zm10.39-1.7a1,1,0,1,0,1,1A1,1,0,0,0,444.41,194.46Zm0,1.7a.69.69,0,0,1,0-1.38.69.69,0,0,1,0,1.38Zm10.38-1.7a1,1,0,1,0,1,1A1,1,0,0,0,454.79,194.46Zm0,1.7a.69.69,0,0,1,0-1.38.69.69,0,0,1,0,1.38ZM434,209.06a1,1,0,0,0-.43.1l1.07.13A1,1,0,0,0,434,209.06Zm10.39,0a1,1,0,0,0-1,.92h.31a.69.69,0,0,1,.68-.6.67.67,0,0,1,.67.61h.33A1,1,0,0,0,444.41,209.06Z" style="opacity: 0.2; transform-origin: 436.55px 176.645px;" class="animable"></path></g><path d="M420,172.17c4.74,1.67,17.16,7.86,19.89,10.4.08.08,0,.21-.1.15-2.68-1.89-18-9.41-20.43-10.33a3.33,3.33,0,0,1-.17.37c-.08.12-.14.05-.14,0a6,6,0,0,1,.18-.81Z" style="fill: rgb(38, 50, 56); transform-origin: 429.486px 177.343px;" id="elcch12cy9n0b" class="animable"></path><path d="M423.5,190.61c.45-2.3,2.17-11.51,2.42-13.83,0,0-.05-.06-.06,0-.68,2.17-2.64,11.21-3.1,13.51a128.11,128.11,0,0,0-2.29,13.87c0,.08.12.12.15,0C421.88,199.73,422.62,195.15,423.5,190.61Z" style="fill: rgb(38, 50, 56); transform-origin: 423.195px 190.495px;" id="el9e2t8pp7nm9" class="animable"></path><path d="M426.9,175.45c-1.3-2.8-2.88-5.48-4.3-8.22s-2.89-5.45-4.21-8.23c0,0-.08,0-.06,0,.8,1.9,1.6,3.78,2.46,5.65-.26-.3-.5-.6-.74-.91-.44-.56-.84-1.15-1.24-1.74,0,0-.07,0-.06,0a9.69,9.69,0,0,0,1.15,1.87,14,14,0,0,0,1.1,1.21c.35.76.72,1.51,1.1,2.26a58.23,58.23,0,0,0,4.32,8.06C426.47,175.55,426.94,175.54,426.9,175.45Z" style="fill: rgb(38, 50, 56); transform-origin: 422.615px 167.258px;" id="el84mhkmb7006" class="animable"></path><path d="M440.59,209.76c-4.87-.07-23.26-3.68-27.81-4.61.06-.48,0-.65.12-1.34,0-.08-.13-.13-.15,0-.12.64-.56,1.93-.38,2,2.19.86,23.44,4.58,28.22,4.18A.1.1,0,0,0,440.59,209.76Z" style="fill: rgb(38, 50, 56); transform-origin: 426.516px 206.875px;" id="el0qne1x48kcbm" class="animable"></path><polygon points="391.07 206.42 356.83 211.03 343.84 163.45 378.08 158.84 391.07 206.42" style="fill: rgb(38, 50, 56); transform-origin: 367.455px 184.935px;" id="elvqbfj3vk2x" class="animable"></polygon><polygon points="389.38 206.65 355.15 211.26 342.16 163.67 376.39 159.07 389.38 206.65" style="fill: rgb(55, 71, 79); transform-origin: 365.77px 185.165px;" id="el6zprb140ik4" class="animable"></polygon><path d="M361,183.65a3.74,3.74,0,0,0,4.07,2.84,3,3,0,0,0,2.59-3.74,3.74,3.74,0,0,0-4.07-2.84A3,3,0,0,0,361,183.65Z" style="fill: rgb(255, 255, 255); transform-origin: 364.33px 183.2px;" id="elwpy5hgz7vfs" class="animable"></path><path d="M343.84,176.18c-1.21,3.41-4.69,7.85-4.74,10.54a3.11,3.11,0,0,0,2,3.08s-2.52,1.59-2.16,4c.18,1.26,2.36,2.07,2.36,2.07a3.7,3.7,0,0,0-1.51,3.53c.36,1.72,2.49,2.27,2.49,2.27s-1.28,2.19-.35,3.82c1.89,3.32,16.9,1.79,18.65-4,.82-2.69-2.82-2.12-2.82-2.12s5-2.09,4.81-5.19-4.93-2.07-4.93-2.07,4.87-2.07,4.3-5.26-5.11-1.49-5.11-1.49,3.11-2.6,2.11-5c-1.64-3.87-7.45,1.8-10.83,1.35l-2.37-5.25Z" style="fill: rgb(235, 148, 129); transform-origin: 350.74px 191.699px;" id="el40997vr1mmt" class="animable"></path><path d="M341.32,181.22c.86-3.34-3.51-6.89-3.14-10.2.5-4.47,5.86-.68,7.6,5.56l.5,5.08Z" style="fill: rgb(235, 148, 129); transform-origin: 342.219px 175.365px;" id="elme2ojnzhxt" class="animable"></path><path d="M342.64,201.85a0,0,0,0,0,0,.08,26.15,26.15,0,0,0,15.37-2.5c.15-.08.08-.35-.1-.3A53.52,53.52,0,0,1,342.64,201.85Z" style="fill: rgb(38, 50, 56); transform-origin: 350.366px 200.657px;" id="elyh2m7byld7k" class="animable"></path><path d="M341.27,196c-.06,0-.06.1,0,.11a24.54,24.54,0,0,0,16.6-3.77c.17-.11.2-.39,0-.27C354.44,194,346.14,195.87,341.27,196Z" style="fill: rgb(38, 50, 56); transform-origin: 349.617px 194.18px;" id="ele175o5sxjzj" class="animable"></path><path d="M357.15,185.07c-4.82,3.08-10.15,4.3-15.8,4.76-.07,0-.06.11,0,.13,2.82.52,6.39-.15,9.13-.91a15.17,15.17,0,0,0,6.77-3.81C357.33,185.16,357.25,185,357.15,185.07Z" style="fill: rgb(38, 50, 56); transform-origin: 349.292px 187.598px;" id="elgjbm6ed0yuj" class="animable"></path><path d="M401.09,144.47s.05,0,.05,0c-.29,2.94-.77,9.78,3.87,9.53a9.91,9.91,0,0,0,5.07-2.29,25.57,25.57,0,0,0,4.07-3.85,37.09,37.09,0,0,0,3.84-5c.05-.07.16,0,.11.09-1.16,1.76-2.14,3.6-3.47,5.26a22.71,22.71,0,0,1-4.4,4.25,9.86,9.86,0,0,1-5.39,2.23,3.74,3.74,0,0,1-3.69-2.95A16.5,16.5,0,0,1,401.09,144.47Z" style="fill: rgb(38, 50, 56); transform-origin: 409.413px 148.761px;" id="ell7vrhlrqnt8" class="animable"></path><path d="M404.88,150.86c3.32.44,9.07-5.54,10.87-9.77.12-.29-.59-3.15-1.28-6.67-.42-2.13-.83-4.52-1.05-6.73l-13.5,4.73a35.08,35.08,0,0,1,2.17,8.33,4.71,4.71,0,0,1,0,.92s0,.09,0,.15C402,143.57,401.67,150.42,404.88,150.86Z" style="fill: rgb(235, 148, 129); transform-origin: 407.842px 139.286px;" id="elqeylps8v887" class="animable"></path><path d="M402.09,141.67s0,.09,0,.15a8.87,8.87,0,0,0,1.43-.06c8-1,8.91-10.95,9-13.75l-3.37,1.18-9.22,3.23a35.07,35.07,0,0,1,2.17,8.34A4.61,4.61,0,0,1,402.09,141.67Z" style="fill: rgb(38, 50, 56); transform-origin: 406.225px 134.918px;" id="el0ovu7g6o3ca" class="animable"></path><path d="M416.78,113.91c.78,5.09-3.85,18.8-7.78,21.44-5.69,3.82-14,3.06-17-3.54-2.9-6.41,3.44-24.18,7.73-26.47C406.08,102,415.63,106.38,416.78,113.91Z" style="fill: rgb(235, 148, 129); transform-origin: 404.066px 120.93px;" id="elmt87fnmq6al" class="animable"></path><path d="M413.27,125c-2.64-.34-1.84-4.91-1.84-4.91s-5.15-1.57-4.7-8.45c0,0-8,1.53-11.36-3s8.52-12.73,19.35-1.75c0,0,5.62,1.84,5.81,6.68S416.46,125.44,413.27,125Z" style="fill: rgb(38, 50, 56); transform-origin: 407.663px 113.221px;" id="elmwnsflqvvck" class="animable"></path><path d="M407,110.9c0-.06.15,0,.12,0-1.51,4.38.78,8.91,5.64,9.3a.13.13,0,0,1,0,.26C407.9,120.6,404.19,115.2,407,110.9Z" style="fill: rgb(38, 50, 56); transform-origin: 409.46px 115.668px;" id="ellwzbsplty0a" class="animable"></path><path d="M404.06,101.43s0,0,0,0a16.36,16.36,0,0,0-4.93.51c-2.39.73-5.71,3-4.53,6,1.6,4,7.35,3.83,10.9,3.44a.19.19,0,0,1,.08.37c-3.66,1-10.89.42-11.69-4.34C393,102.14,400.48,101,404.06,101.43Z" style="fill: rgb(38, 50, 56); transform-origin: 399.765px 106.756px;" id="el1pfygdheyqn" class="animable"></path><path d="M401.83,121.13s.06.06.05.1c-.34.92-.57,2,.16,2.61a0,0,0,0,1,0,0C401.05,123.4,401.37,121.94,401.83,121.13Z" style="fill: rgb(38, 50, 56); transform-origin: 401.715px 122.485px;" id="el7oy5r0326eb" class="animable"></path><path d="M403,120.43c1.53.39.65,3.41-.76,3.06S401.7,120.12,403,120.43Z" style="fill: rgb(38, 50, 56); transform-origin: 402.661px 121.963px;" id="el9nt7i5j2v" class="animable"></path><path d="M396.57,119.42s-.09,0-.1.06c-.24.94-.67,2-1.61,2a0,0,0,0,0,0,.06C395.93,121.74,396.49,120.35,396.57,119.42Z" style="fill: rgb(38, 50, 56); transform-origin: 395.715px 120.49px;" id="el0mtgg2vd83o" class="animable"></path><path d="M396,118.2c-1.48-.55-2.47,2.43-1.1,2.94S397.25,118.66,396,118.2Z" style="fill: rgb(38, 50, 56); transform-origin: 395.411px 119.665px;" id="elkgwc3x5t66" class="animable"></path><path d="M404.57,119.4c-.38-.23-.69-.49-1.05-.75s-.75-.49-.93-1a.69.69,0,0,1,.33-.75,1.67,1.67,0,0,1,1.65.3,2.47,2.47,0,0,1,1.05,1.4A.71.71,0,0,1,404.57,119.4Z" style="fill: rgb(38, 50, 56); transform-origin: 404.11px 118.151px;" id="el3pll0j10vlr" class="animable"></path><path d="M395.14,117.14c.43,0,.85,0,1.29,0a2.07,2.07,0,0,0,1.32-.21.68.68,0,0,0,.19-.79,1.67,1.67,0,0,0-1.49-.76,2.4,2.4,0,0,0-1.68.48A.71.71,0,0,0,395.14,117.14Z" style="fill: rgb(38, 50, 56); transform-origin: 396.238px 116.27px;" id="eldyn5ia236w" class="animable"></path><path d="M401.08,129.39c-.2.27-.38.62-.72.7a2.42,2.42,0,0,1-1.07-.07,0,0,0,0,0,0,.06,1.32,1.32,0,0,0,1.31.32,1.05,1.05,0,0,0,.62-1C401.18,129.36,401.1,129.36,401.08,129.39Z" style="fill: rgb(38, 50, 56); transform-origin: 400.255px 129.913px;" id="el2ubp2156kpx" class="animable"></path><path d="M400.48,126.73a3.32,3.32,0,0,1-2.54.8,4,4,0,0,1-1.17-.28l-.21-.08-.19-.09a.25.25,0,0,1-.13-.27h0a.36.36,0,0,1,0-.09h0l0-.08c.18-.72.57-1.8.57-1.8-.3.06-1.82.27-1.69-.1a50.2,50.2,0,0,1,4-9.29.09.09,0,0,1,.16.07c-.93,3-2.37,5.79-3.35,8.78a6,6,0,0,1,1.63,0c.1.06-.78,2.07-.84,2.4v0a4.58,4.58,0,0,0,3.59-.07C400.5,126.59,400.55,126.67,400.48,126.73Z" style="fill: rgb(38, 50, 56); transform-origin: 397.811px 121.482px;" id="elqnp1kmisabm" class="animable"></path><path d="M397.32,127.28a3.58,3.58,0,0,0,1.11,1.41,1.65,1.65,0,0,0,.93.29c.72,0,.89-.63.9-1.2a3.74,3.74,0,0,0-.1-.89A4.65,4.65,0,0,1,397.32,127.28Z" style="fill: rgb(38, 50, 56); transform-origin: 398.79px 127.935px;" id="elb9h3otn3qgp" class="animable"></path><path d="M398.43,128.69a1.65,1.65,0,0,0,.93.29c.72,0,.89-.63.9-1.2A1.65,1.65,0,0,0,398.43,128.69Z" style="fill: rgb(255, 156, 189); transform-origin: 399.345px 128.362px;" id="ellpfdxf0h0u" class="animable"></path><path d="M401.22,126.92a4.29,4.29,0,0,1-2-5.71h0a4.28,4.28,0,1,1,2,5.71Zm-1.49-5.46a3.71,3.71,0,1,0,4.95-1.74,4,4,0,0,0-.87-.29A3.72,3.72,0,0,0,399.73,121.46Z" style="fill: rgb(255, 193, 0); transform-origin: 403.079px 123.064px;" id="elyxfe98xlsab" class="animable"></path><path d="M392.64,124.09c-1.67-.54-2.43-2.81-1.7-5.06a5.06,5.06,0,0,1,1.79-2.56,2.81,2.81,0,0,1,2.57-.51,2.85,2.85,0,0,1,1.77,1.93A5.13,5.13,0,0,1,397,121c-.7,2.13-2.48,3.48-4.09,3.15A1.34,1.34,0,0,1,392.64,124.09Zm.42-7.16a4.7,4.7,0,0,0-1.58,2.28c-.63,2,0,3.89,1.34,4.34s3-.77,3.63-2.71a4.5,4.5,0,0,0,.07-2.78,2.28,2.28,0,0,0-1.4-1.56l-.21-.06A2.45,2.45,0,0,0,393.06,116.93Z" style="fill: rgb(255, 193, 0); transform-origin: 393.97px 120.021px;" id="el3slqz0cxbug" class="animable"></path><path d="M399.2,121.73l.49-.31c-.45-.72-1.65-1.88-3-1.14l.28.5C398.18,120.12,399.16,121.66,399.2,121.73Z" style="fill: rgb(255, 193, 0); transform-origin: 398.19px 120.886px;" id="elto1n8arlx19" class="animable"></path><path d="M417,128.69l.56-.09c0-.26-.45-2.59-1.6-3.18s-8.59-2.25-8.91-2.32l-.13.55c2.16.49,7.95,1.85,8.78,2.28S416.88,128.06,417,128.69Z" style="fill: rgb(255, 193, 0); transform-origin: 412.24px 125.895px;" id="el5ite7ao79v4" class="animable"></path><path d="M412.09,125s3.93-4,5.81-2.54-1.61,7.66-4.18,8.16a2.5,2.5,0,0,1-3.08-1.87Z" style="fill: rgb(235, 148, 129); transform-origin: 414.537px 126.421px;" id="elqirv9zs5k98" class="animable"></path><path d="M416.86,124.16s0,.06,0,.07a6.28,6.28,0,0,0-3.86,3.35,1.38,1.38,0,0,1,2.09,0s0,.1-.06.08a1.53,1.53,0,0,0-1.75.26,7.08,7.08,0,0,0-1,1.21c-.1.14-.36,0-.27-.15l0,0C412.31,126.74,414.5,124,416.86,124.16Z" style="fill: rgb(38, 50, 56); transform-origin: 414.426px 126.671px;" id="elz1bqskmnlh" class="animable"></path><path d="M402,141.58l3.65,8,9.72-10.81,3,3.2s-9.23,16.89-9.33,16.15l-3.68-6.91-4.66,5.13L400.61,144Z" style="fill: rgb(255, 255, 255); transform-origin: 409.49px 148.457px;" id="elxv32b9r843t" class="animable"></path><path d="M400.34,150.29c0-2,0-4.09.17-6.13,0-.07.11-.11.13,0,.5,1.94.29,9.74.38,11.6l0,0c.19-.22,4.32-4.52,4.37-4.46.78,1.09,3.48,6.12,3.67,6.58,1.46-2.68,7.07-12.45,8.83-15a.07.07,0,0,1,.12.07c-1.27,2.82-8.68,16-8.81,15.94a79.48,79.48,0,0,1-3.86-7.31c-.69.93-4.83,5.76-4.86,5.46A62.45,62.45,0,0,1,400.34,150.29Z" style="fill: rgb(38, 50, 56); transform-origin: 409.16px 150.871px;" id="elmvqft5lk9c" class="animable"></path></g><g id="freepik--character-1--inject-95" class="animable" style="transform-origin: 331.915px 366.795px;"><rect x="274.04" y="372.67" width="116.97" height="30.85" style="fill: rgb(255, 193, 0); transform-origin: 332.525px 388.095px;" id="elgxfpgodpm1w" class="animable"></rect><rect x="276.08" y="403.52" width="112.9" height="15.43" style="fill: rgb(255, 193, 0); transform-origin: 332.53px 411.235px;" id="el01am9hoor8pw" class="animable"></rect><g id="elb6tx2ms7us"><polygon points="388.98 406.88 276.08 408.5 276.08 403.52 388.98 403.52 388.98 406.88" style="opacity: 0.1; transform-origin: 332.53px 406.01px;" class="animable"></polygon></g><rect x="282.07" y="418.94" width="100.92" height="6.82" style="fill: rgb(69, 90, 100); transform-origin: 332.53px 422.35px;" id="elbl2ngz7uqr5" class="animable"></rect><polygon points="302.8 425.76 300.28 431.93 287.94 462.07 284.78 462.07 293.07 431.93 294.77 425.76 302.8 425.76" style="fill: rgb(69, 90, 100); transform-origin: 293.79px 443.915px;" id="el8qno66qdljx" class="animable"></polygon><polygon points="294.77 425.76 302.8 425.76 300.28 431.93 293.07 431.93 294.77 425.76" style="fill: rgb(38, 50, 56); transform-origin: 297.935px 428.845px;" id="el5q44jcjaqel" class="animable"></polygon><polygon points="380.27 462.07 377.12 462.07 364.77 431.93 362.26 425.76 370.28 425.76 371.98 431.93 380.27 462.07" style="fill: rgb(69, 90, 100); transform-origin: 371.265px 443.915px;" id="eltkvj42h3wwg" class="animable"></polygon><polygon points="371.98 431.93 364.77 431.93 362.26 425.76 370.28 425.76 371.98 431.93" style="fill: rgb(38, 50, 56); transform-origin: 367.12px 428.845px;" id="elbmo4ba3w27o" class="animable"></polygon><path d="M267.14,439.13c-1.56-.42-.46-4.92,1.16-6.38a43.25,43.25,0,0,1,4.92-3c5.39-3,13.16-7,13.16-7l-1.1-27.44,28.14-2.9s.74,12.13,1.2,23.57c.06,1.76.12,3.49.17,5.18,0,.1,0,.2,0,.31.21,7.64.2,13.91-.41,14.34C312.79,437,268.71,439.56,267.14,439.13Z" style="fill: rgb(247, 169, 160); transform-origin: 290.65px 415.794px;" id="elf0twj3kimt" class="animable"></path><path d="M267.14,439.13c-1.56-.42-.46-4.92,1.16-6.38a43.25,43.25,0,0,1,4.92-3c-1,4.73,36.54-6.74,41.59-8.31.21,7.64.2,13.91-.41,14.34C312.79,437,268.71,439.56,267.14,439.13Z" style="fill: rgb(38, 50, 56); transform-origin: 290.66px 430.309px;" id="eld3hc21xwjaa" class="animable"></path><path d="M284.17,415.8l10.61-.14,21-.29s-2.49-27.56-1.32-31.89S338,371.66,341.41,367s4-20,4-20h-24s-1.48,3.47-1.79,4.37-28.77,13.43-33.43,21.13C281.88,379.75,284.17,415.8,284.17,415.8Z" style="fill: rgb(69, 90, 100); transform-origin: 314.486px 381.4px;" id="elwdqjjzh5uo8" class="animable"></path><path d="M284.78,408.43c2-.05,4,0,6-.05s4,0,6,0c4,0,7.94.07,11.91.12,2.24,0,4.49,0,6.73,0,.1,0,.09.14,0,.15-4,.16-7.95.44-11.93.52s-7.94,0-11.91-.18c-2.24-.12-4.49-.22-6.73-.43A.06.06,0,0,1,284.78,408.43Z" style="fill: rgb(38, 50, 56); transform-origin: 300.116px 408.779px;" id="el75k9e70jdf6" class="animable"></path><path d="M292.19,449.13c-1.59-.33-.74-4.89.81-6.44a44.72,44.72,0,0,1,4.74-3.24c5.22-3.28,12.75-7.74,12.75-7.74l-2.6-27.33,27.94-4.44s1.4,12.06,2.49,23.46c.16,1.76.31,3.48.46,5.16l0,.31c.63,7.62,1,13.88.38,14.34C337.65,444.46,293.78,449.47,292.19,449.13Z" style="fill: rgb(247, 169, 160); transform-origin: 315.409px 424.543px;" id="elpml5ndyhbpj" class="animable"></path><path d="M292.19,449.13c-1.59-.33-.74-4.89.81-6.44a44.72,44.72,0,0,1,4.74-3.24c-.73,4.79,36.11-8.73,41.07-10.58.63,7.62,1,13.88.38,14.34C337.65,444.46,293.78,449.47,292.19,449.13Z" style="fill: rgb(38, 50, 56); transform-origin: 315.424px 439.008px;" id="el6jcici8tzz4" class="animable"></path><path d="M358.14,347H321.46s3.25,6.77,4,9.6c.3,1.23,3.84,1.26,4.05,1.75,0,0-20.23,13.3-23.82,21s1.66,44.29,1.66,44.29l32.28-3.74s-4.3-29.57-3.74-33.14c.37-2.43,17.88-10.27,22.81-15.11S358.14,347,358.14,347Z" style="fill: rgb(69, 90, 100); transform-origin: 332.595px 385.32px;" id="el80qdkox3y5u" class="animable"></path><path d="M305.07,380.29a12.73,12.73,0,0,1,2.05-4.14c1-1.25,15.36-14.4,22.34-17.74.11-.06.21.09.11.15-6.49,3.89-19.7,15.89-20.88,17.1a11.3,11.3,0,0,0-2.44,3.8c-1.18,3-1.29,6.35-1.37,9.54-.09,4,1.13,22.34,1.26,26.37a.08.08,0,0,1-.16,0c-.32-3.72-1.79-21.68-1.8-25.42C304.18,386.74,304.14,383.4,305.07,380.29Z" style="fill: rgb(38, 50, 56); transform-origin: 316.895px 386.923px;" id="el0rgprcc0szc" class="animable"></path><path d="M328.63,347.56c0,1.61,0,3.21.06,4.82,0,.75.05,1.52.14,2.27a1.41,1.41,0,0,0,.35.88,1.67,1.67,0,0,0,.93.4c.73.13,1.29-.15,1.38-.92a18.73,18.73,0,0,0-.06-2.25c0-.81,0-1.62,0-2.42,0-.34,0-.69.07-1s.13-.83.15-1.25c0-.08.14-.07.14,0,0,.37.09.73.11,1.1s.06.75.07,1.12c0,.75.05,1.5.08,2.24s.12,1.42.12,2.12a2.12,2.12,0,0,1-.5,1.53,2.25,2.25,0,0,1-2.86-.14,2,2,0,0,1-.52-1.35c-.05-.7,0-1.41,0-2.12,0-1.67,0-3.35.06-5C328.37,347.4,328.63,347.41,328.63,347.56Z" style="fill: rgb(38, 50, 56); transform-origin: 330.222px 352.047px;" id="elkgm69npy5qq" class="animable"></path><path d="M330.18,356.09a3.53,3.53,0,0,1-.14.56c-.05.19-.09.38-.13.57s-.09.38-.12.57-.09.37-.14.56a.07.07,0,0,1-.14,0,5.43,5.43,0,0,1,0-.57l.09-.59c0-.19.08-.38.13-.57a3,3,0,0,1,.17-.58C330,355.9,330.2,356,330.18,356.09Z" style="fill: rgb(38, 50, 56); transform-origin: 329.842px 357.195px;" id="elle20tmr4bom" class="animable"></path><path d="M308.82,417.09c1.82-.23,3.66-.38,5.48-.58s3.65-.39,5.48-.56c3.65-.36,7.3-.64,11-.95,2.06-.17,4.13-.35,6.19-.59.08,0,.09.12,0,.13-3.63.51-7.26,1.12-10.91,1.54s-7.3.74-11,.9c-2.07.09-4.15.2-6.22.2A0,0,0,1,1,308.82,417.09Z" style="fill: rgb(38, 50, 56); transform-origin: 322.927px 415.795px;" id="el35hawi2vx4i" class="animable"></path><path d="M333.35,411.57c-.9-6.45-1.69-12.92-2.1-19.43-.1-1.63-.17-3.26-.12-4.9a8.29,8.29,0,0,1,.38-2.54c.09-.26.29-.37.44-.55a2.22,2.22,0,0,1,.49-.44c.34-.25.67-.51,1-.72,2.76-1.78,5.65-3.29,8.49-4.87s5.72-3.1,8.49-4.79a40.67,40.67,0,0,0,4-2.71l.9-.78c.25-.29.51-.57.73-.88a6.29,6.29,0,0,0,.68-2.2,41.24,41.24,0,0,0-.21-9.67c-.34-3.23-.82-6.45-1.42-9.65q1.08,4.77,1.79,9.61c.21,1.61.39,3.24.49,4.87a27.1,27.1,0,0,1-.08,4.93,7.09,7.09,0,0,1-.71,2.44c-.25.36-.54.68-.82,1l-.94.82a40.49,40.49,0,0,1-4.05,2.79c-2.78,1.72-5.64,3.29-8.49,4.87s-5.76,3.05-8.48,4.78a6.26,6.26,0,0,0-1.72,1.43,8,8,0,0,0-.33,2.27c0,1.61,0,3.23,0,4.85.13,3.25.38,6.49.65,9.73S333,408.33,333.35,411.57Z" style="fill: rgb(38, 50, 56); transform-origin: 344.285px 379.505px;" id="elvse2h1d4fvg" class="animable"></path><path d="M316.47,291.56c-1.14,2.86-2.3,5.73-3.32,8.63a54.65,54.65,0,0,0-1.53,5.38,12.61,12.61,0,0,0,1.76,2.35c.11-.46.22-.92.32-1.37a64.52,64.52,0,0,1,1.94-6.35c0-.07.13,0,.1.05-.67,2.18-1.16,4.44-1.63,6.67q-.15.74-.27,1.47a18.8,18.8,0,0,0,2.11,1.8c.1-.54.21-1.07.31-1.6.24-1.24.51-2.47.82-3.69a63.19,63.19,0,0,1,2.27-7.11c0-.1.18,0,.15.07q-1.14,3.66-2,7.4c-.28,1.18-.53,2.37-.76,3.56-.11.57-.19,1.14-.29,1.72a31.69,31.69,0,0,0,4.4,2.54c4.39,2.12,9.5,2.82,14.37,2.91a27.7,27.7,0,0,0,12.26-2.49,22,22,0,0,1-1.31-6.54.06.06,0,0,1,.11,0c.29,1.46.65,2.9,1.07,4.32.2.67.43,1.32.66,2l.17-.09c.37-.19.77-.39,1.16-.62a35.08,35.08,0,0,1-1-4.11,32.19,32.19,0,0,1-.68-5.94.11.11,0,0,1,.21,0c.35,1.91.66,3.83,1,5.74.27,1.35.64,2.68.95,4a4.8,4.8,0,0,0,2.43-3.09,8.94,8.94,0,0,0-.37-3.41,34.26,34.26,0,0,1-.62-3.76c-.28-2.61,2.74-22.78-4.17-24.06,0-.07-9.31-8.8-16.89-5.78-12,4.78-19.44,24.77-19.82,27.25a9.23,9.23,0,0,0,.77,5.37c.37-1.52.86-3,1.37-4.48a90.18,90.18,0,0,1,3.76-8.76A.08.08,0,0,1,316.47,291.56Z" style="fill: rgb(38, 50, 56); transform-origin: 331.275px 293.763px;" id="el4ncll4pajdj" class="animable"></path><path d="M336.28,310.41c-1.59,6.34-8.6,29.48-16,34.7-5,3.52-26.52,2.61-31.83,1.14-2.17-.6.63-17.65,3-18.1,2.57-.48,19,2.14,20.57,1.3s11.18-14,17.53-20.76C333.38,304.62,337.18,306.84,336.28,310.41Z" style="fill: rgb(247, 169, 160); transform-origin: 312.042px 327.028px;" id="el2l8lgbke50i" class="animable"></path><path d="M293.92,347.09c-2.24-.21-15.69-.82-18.41-2s-10.29-5.06-9.62-7.23,3-1.21,3-1.21-3.25-2.31-2.06-4.27c.95-1.57,4.27-.39,4.27-.39s-3.43-2.72-2-4.52c1.31-1.64,4.57.55,4.57.55s-2.64-2.57-1.08-3.91c1.87-1.6,6.44,2.84,9.54,3.89.7.24,14.6,3.84,14.6,3.84Z" style="fill: rgb(247, 169, 160); transform-origin: 281.289px 335.428px;" id="el1wny7w2k4dh" class="animable"></path><path d="M273.66,327.84c3.76,3,5.41,4.1,9.92,5,.09,0,.08.16,0,.15-4.51-.52-6.55-1.72-10.07-5C273.33,327.84,273.49,327.7,273.66,327.84Z" style="fill: rgb(38, 50, 56); transform-origin: 278.537px 330.386px;" id="el9n08i10hcm4" class="animable"></path><path d="M271.13,332c3.8,3.08,6,3.89,10.65,5.23.07,0,0,.13,0,.12-4.67-.93-7.36-1.68-10.75-5.25C270.85,331.93,271,331.85,271.13,332Z" style="fill: rgb(38, 50, 56); transform-origin: 276.379px 334.636px;" id="elgq5ffidquaf" class="animable"></path><path d="M269.11,336.74c3.89,2.71,6.26,3.84,10.94,4.56a.09.09,0,0,1,0,.17,15.73,15.73,0,0,1-11-4.6C268.82,336.66,268.86,336.57,269.11,336.74Z" style="fill: rgb(38, 50, 56); transform-origin: 274.504px 339.06px;" id="elmj2z3hh13qs" class="animable"></path><path d="M300.79,329.16l-7.8-3.48c-2.41-1.08-8.81-5.05-10.8-4-2.25,1.21,2.17,6.45,6.46,8.4,0,0-1,7.67,3,9.74S300.79,329.16,300.79,329.16Z" style="fill: rgb(247, 169, 160); transform-origin: 291.187px 330.776px;" id="el9gagj274dbn" class="animable"></path><path d="M289,330.47c-.5,3,0,6.91,2.25,8.91.06.06,0,.16-.08.11-2.7-1.82-3.33-6.37-2.72-9C288.58,330,289.14,329.7,289,330.47Z" style="fill: rgb(38, 50, 56); transform-origin: 289.755px 334.752px;" id="el9fbr4m4eoei" class="animable"></path><path d="M326.94,339.42l-12.06-15.06s7.7-10,13.87-15.42,9.39-4.86,7,6.94S326.94,339.42,326.94,339.42Z" style="fill: rgb(255, 193, 0); transform-origin: 325.711px 322.53px;" id="elv8adksl4pt" class="animable"></path><path d="M318,322c1,.95,9.36,11.88,10,13.1,0,.05-.06.12-.1.07-1-1-9.32-11.92-10-13.13C318,322,318,322,318,322Z" style="fill: rgb(38, 50, 56); transform-origin: 322.95px 328.594px;" id="el584nc5j9hcd" class="animable"></path><g id="elw4z70fbsh3"><path d="M318.72,329.16l8.22,10.26s6.37-11.74,8.79-23.54c1.56-7.66.76-10.59-1.68-10.22Z" style="opacity: 0.1; transform-origin: 327.626px 322.525px;" class="animable"></path></g><path d="M361.43,355.19c0-.05-41.51-4.66-41.51-4.66-.08-.18,5.9-35.18,11.06-43.61,1.75-2.86,7-4.52,11.47-.4C354.54,317.7,361.4,355.23,361.43,355.19Z" style="fill: rgb(255, 193, 0); transform-origin: 340.675px 329.619px;" id="el2gxicsk6wi3" class="animable"></path><path d="M342.41,308.4c13.89,13.61,31.49,41.87,34,46.8,1.67,3.34-15.81,12.59-16.61,10.14-1-3.12-17.55-32.94-21.8-51.62C336.11,305.54,339.6,305.65,342.41,308.4Z" style="fill: rgb(247, 169, 160); transform-origin: 356.993px 336.233px;" id="elkisf6s93qmo" class="animable"></path><path d="M358.89,363c.64,1.67,2.88,8.77,4.36,9.63s9.18.53,13.05.45,4.63-1.17,4.54-2.5-8.24-1.43-8.24-1.43,10.93,2.9,13.68,3.36,9.07,1.92,9.94-.36c.39-1-1.36-2-1.36-2s2.66.72,3.06-.61c.45-1.5-1.67-2.28-1.67-2.28s1.66.3,1.67-.92c0-2.73-10.33-3.87-10.33-3.87s8,3.71,8.2,1.48c.29-3.09-16-6.15-17.71-7.46a11.49,11.49,0,0,1-2.77-3.28Z" style="fill: rgb(247, 169, 160); transform-origin: 378.436px 363.303px;" id="el0g0rbk3v0g4m" class="animable"></path><path d="M380.79,371.3a1.16,1.16,0,0,0-.39-1,3.13,3.13,0,0,0-.95-.6,13.84,13.84,0,0,0-2.24-.68c-1.54-.36-3.11-.6-4.68-1a18.92,18.92,0,0,1,4.8.44,8.88,8.88,0,0,1,2.31.83,3.22,3.22,0,0,1,1,.8A1.24,1.24,0,0,1,380.79,371.3Z" style="fill: rgb(38, 50, 56); transform-origin: 376.707px 369.654px;" id="elrxufc6k1qt" class="animable"></path><path d="M394.86,370.16c-1.12-.26-2.23-.55-3.34-.85s-2.2-.61-3.3-.92l-3.3-1-3.3-.95A28.12,28.12,0,0,1,385,367c1.12.24,2.23.54,3.34.85s2.2.66,3.28,1.05S393.81,369.69,394.86,370.16Z" style="fill: rgb(38, 50, 56); transform-origin: 388.24px 368.3px;" id="elbbc6j9n5ahg" class="animable"></path><path d="M384.19,363.72a20.55,20.55,0,0,1,3.14.37,30,30,0,0,1,6.08,1.78,22.68,22.68,0,0,1,2.84,1.4c-1-.33-2-.69-3-1s-2-.63-3-.92-2-.57-3-.84S385.21,364,384.19,363.72Z" style="fill: rgb(38, 50, 56); transform-origin: 390.22px 365.495px;" id="elbyh2e0c1u7c" class="animable"></path><path d="M385.74,361.09a21.13,21.13,0,0,1,9.64,3.09c-1.61-.54-3.19-1.11-4.8-1.61S387.37,361.58,385.74,361.09Z" style="fill: rgb(38, 50, 56); transform-origin: 390.56px 362.635px;" id="elzajqso41g3b" class="animable"></path><path d="M361.87,330.41l-20.15,1.44s-3.84-12-4.82-20.17,1.34-10.49,9.68-1.8S361.87,330.41,361.87,330.41Z" style="fill: rgb(255, 193, 0); transform-origin: 349.28px 318.107px;" id="elj044mds0a9" class="animable"></path><path d="M341.65,328.23c1.34-.3,15.07-1.25,16.44-1.13a.07.07,0,0,1,0,.13c-1.35.31-15.08,1.2-16.44,1.08C341.61,328.31,341.61,328.24,341.65,328.23Z" style="fill: rgb(38, 50, 56); transform-origin: 349.877px 327.705px;" id="eldr09l6hd6h6" class="animable"></path><path d="M338.09,320.68c.21.55.43,1.1.67,1.64.08.18.15.36.23.55-.06-.23-.12-.46-.17-.68-.33-1.39-.58-2.79-.86-4.18,0,0,.05-.05.06,0,.72,2.46,1.41,4.91,2.08,7.38l1,3.6c.17.63.34,1.26.5,1.89.06.24.07.73.31.82a18.34,18.34,0,0,0,2.22-.06.06.06,0,0,1,0,.11c-.34,0-1.87.2-2.21.22a.54.54,0,0,1-.39-.09,1.28,1.28,0,0,1-.26-.58c-.11-.34-.2-.68-.3-1-.4-1.34-.76-2.69-1.1-4-.22-.85-.44-1.7-.65-2.55a14.09,14.09,0,0,1-.58-1.33c-.2-.55-.38-1.11-.55-1.67C338.05,320.68,338.08,320.67,338.09,320.68Z" style="fill: rgb(38, 50, 56); transform-origin: 341.063px 324.982px;" id="elkd58jvalttn" class="animable"></path><path d="M339,305.05c-.11.82-3.46,6.39-7.15,6.55-1.2.06-1.78-6.48-1.78-6.48l-.15-.47L327.75,298l8.55-6.61S339,304.7,339,305.05Z" style="fill: rgb(247, 169, 160); transform-origin: 333.375px 301.495px;" id="elzrn3e6rxrkh" class="animable"></path><path d="M327.75,298l2.14,6.61.15.48s.11,1.18.32,2.54A10.56,10.56,0,0,0,338,299.8c-.76-3.85-1.69-8.39-1.69-8.39Z" style="fill: rgb(38, 50, 56); transform-origin: 332.875px 299.52px;" id="el21qugytk2il" class="animable"></path><path d="M318.4,282.94c-7.8,12.71-1.07,18.81,1.67,20.49,2.49,1.52,11.16,6.4,20.23-5.43s5.63-19.48.12-23.27S326.2,270.23,318.4,282.94Z" style="fill: rgb(247, 169, 160); transform-origin: 330.326px 289.017px;" id="elpsgs0rhqst" class="animable"></path><path d="M320.86,282.39a10.21,10.21,0,0,0,1,.32,1.62,1.62,0,0,0,1.06.13.53.53,0,0,0,.32-.56,1.32,1.32,0,0,0-1-.91,1.91,1.91,0,0,0-1.39,0A.57.57,0,0,0,320.86,282.39Z" style="fill: rgb(38, 50, 56); transform-origin: 321.892px 282.058px;" id="el60r25aj4lua" class="animable"></path><path d="M329.4,287.86a10,10,0,0,1-.77-.69,1.7,1.7,0,0,1-.65-.85.53.53,0,0,1,.33-.56,1.28,1.28,0,0,1,1.27.38,1.88,1.88,0,0,1,.71,1.2A.56.56,0,0,1,329.4,287.86Z" style="fill: rgb(38, 50, 56); transform-origin: 329.135px 286.845px;" id="el55uu7sjpxbt" class="animable"></path><path d="M327.24,288.81c1.46.74-.13,3.61-1.48,2.92S326,288.19,327.24,288.81Z" style="fill: rgb(38, 50, 56); transform-origin: 326.533px 290.279px;" id="elpd2ot99qjag" class="animable"></path><path d="M327.72,289.27c.16.3.25.73.53.92a1.2,1.2,0,0,0,1.15-.09s.05,0,0,.06a1.19,1.19,0,0,1-1.45.76,1.22,1.22,0,0,1-.53-1.55C327.48,289.25,327.66,289.15,327.72,289.27Z" style="fill: rgb(38, 50, 56); transform-origin: 328.371px 290.09px;" id="el5yv2f0k79vo" class="animable"></path><path d="M321,285c-1.37-.89-3.05,1.92-1.78,2.75S322.16,285.69,321,285Z" style="fill: rgb(38, 50, 56); transform-origin: 320.08px 286.363px;" id="ell730fedynma" class="animable"></path><path d="M320.31,284.78c-.31,0-.69.16-1,0s-.37-.6-.39-1c0-.05,0,0-.07,0-.33.53-.49,1.2,0,1.61s1,.12,1.48-.34C320.43,285,320.44,284.78,320.31,284.78Z" style="fill: rgb(38, 50, 56); transform-origin: 319.473px 284.672px;" id="el0rder80jccuq" class="animable"></path><path d="M322.43,296.37c-.33.1-.69.29-1,.15a2.7,2.7,0,0,1-.87-.71,0,0,0,0,0-.06,0,1.35,1.35,0,0,0,.91,1.06,1.05,1.05,0,0,0,1.11-.45S322.47,296.35,322.43,296.37Z" style="fill: rgb(38, 50, 56); transform-origin: 321.51px 296.353px;" id="elj4qtt5ln9lm" class="animable"></path><path d="M320.56,291.08a22.18,22.18,0,0,0-1.29,1.83c0,.06.1.18.3.31,0,0,0,0,0,0a3.39,3.39,0,0,0,3.5.53c.07,0,0-.14-.05-.13a5.17,5.17,0,0,1-3.14-.77c.06-.19,1.68-2.05,1.58-2.09-.46-.16-1.29-.39-1.6-.48.59-.8,2.37-3,3.44-4.46.07-.09-.06-.21-.14-.13a48.58,48.58,0,0,0-4.24,4.76C318.85,290.59,320.25,291,320.56,291.08Z" style="fill: rgb(38, 50, 56); transform-origin: 321.119px 289.84px;" id="el4pdhzelc3kb" class="animable"></path><path d="M319.9,292.77a4.11,4.11,0,0,0,.58,2,1.88,1.88,0,0,0,.87.72c.79.32,1.26-.28,1.52-.89a4.55,4.55,0,0,0,.28-1A5.41,5.41,0,0,1,319.9,292.77Z" style="fill: rgb(38, 50, 56); transform-origin: 321.525px 294.174px;" id="elnvickj4pzzl" class="animable"></path><path d="M320.48,294.8a1.88,1.88,0,0,0,.87.72c.79.32,1.26-.28,1.52-.89A1.93,1.93,0,0,0,320.48,294.8Z" style="fill: rgb(255, 156, 189); transform-origin: 321.675px 294.952px;" id="elzp4s08pfb1" class="animable"></path><path d="M337.4,300.78a6.26,6.26,0,0,1-.26-6.16,15.81,15.81,0,0,1-2.79-8c-.08.32-.65,2.64-.91,3.83a16.41,16.41,0,0,1-5.8-14.24,17.18,17.18,0,0,0-6.77,3.17s3.06-5.14,7.72-7a9.33,9.33,0,0,1,9.5,1,13,13,0,0,1,9.06,10.2C348.83,292.61,337.4,300.78,337.4,300.78Z" style="fill: rgb(38, 50, 56); transform-origin: 334.094px 286.15px;" id="ela3cixj8e1d" class="animable"></path><path d="M328.1,285.44a16.87,16.87,0,0,0,3.21,4.05s0,0,0,0a14.35,14.35,0,0,1-3.93-10.79,10.22,10.22,0,0,1,.86-3.81c.05-.09-.08-.15-.13-.07a12,12,0,0,0-1.36,3.67,10.49,10.49,0,0,0,.12,3.83,11.62,11.62,0,0,0,1.21,3.14Z" style="fill: rgb(38, 50, 56); transform-origin: 328.969px 282.136px;" id="elx7xbzi2ovpm" class="animable"></path><path d="M335.94,297.55s5-2.71,6.37-.72-3.84,6.92-6.47,6.63a2.52,2.52,0,0,1-2.42-2.72Z" style="fill: rgb(247, 169, 160); transform-origin: 337.974px 299.786px;" id="elbbls7cxcjqn" class="animable"></path><path d="M340.78,298.21s0,.06,0,.06a6.35,6.35,0,0,0-4.73,2.09,1.39,1.39,0,0,1,2,.59c0,.05,0,.1-.08.07a1.54,1.54,0,0,0-1.77-.28,7.7,7.7,0,0,0-1.35.86c-.14.11-.35-.09-.22-.23l0,0C335.62,299.34,338.55,297.34,340.78,298.21Z" style="fill: rgb(38, 50, 56); transform-origin: 337.685px 299.816px;" id="el757fodx0n7p" class="animable"></path><path d="M338.49,289.12s1-4.3-.29-3.49a3,3,0,0,0-1.42,1.86s-1.6.7-1.47,1.3,2.21,1.27,2.54,1A4.74,4.74,0,0,0,338.49,289.12Z" style="fill: rgb(255, 193, 0); transform-origin: 337.081px 287.69px;" id="elic97w1omu0k" class="animable"></path><g id="el0lxo060v161"><path d="M338.49,289.12a4.74,4.74,0,0,1-.64.68,2.1,2.1,0,0,1-1.29-.16,7.19,7.19,0,0,1,.6-1,2.56,2.56,0,0,1,1.54-.56C338.6,288.65,338.49,289.12,338.49,289.12Z" style="fill: rgb(5, 4, 0); opacity: 0.1; transform-origin: 337.63px 288.959px;" class="animable"></path></g><path d="M339,289.64s5.19-.65,4.5.84a2.47,2.47,0,0,1-2,1.55s-.46,1.92-1.26,1.68-2.18-3-1.94-3.35A3.6,3.6,0,0,1,339,289.64Z" style="fill: rgb(255, 193, 0); transform-origin: 340.918px 291.615px;" id="el7ekbdtwyzzj" class="animable"></path><g id="el0l2w1z7tq9f"><path d="M339.42,290.9a2.16,2.16,0,0,1-.85.53c-.22-.51-.35-.94-.26-1.07a3.6,3.6,0,0,1,.69-.72l.83-.08A2.31,2.31,0,0,1,339.42,290.9Z" style="fill: rgb(5, 4, 0); opacity: 0.1; transform-origin: 339.056px 290.495px;" class="animable"></path></g><path d="M339.13,290.53a1.18,1.18,0,1,1,0-1.68A1.18,1.18,0,0,1,339.13,290.53Z" style="fill: rgb(255, 193, 0); transform-origin: 338.301px 289.69px;" id="ele5nlfyuaf1c" class="animable"></path></g><defs>     <filter id="active" height="200%">         <feMorphology in="SourceAlpha" result="DILATED" operator="dilate" radius="2"></feMorphology>                <feFlood flood-color="#32DFEC" flood-opacity="1" result="PINK"></feFlood>        <feComposite in="PINK" in2="DILATED" operator="in" result="OUTLINE"></feComposite>        <feMerge>            <feMergeNode in="OUTLINE"></feMergeNode>            <feMergeNode in="SourceGraphic"></feMergeNode>        </feMerge>    </filter>    <filter id="hover" height="200%">        <feMorphology in="SourceAlpha" result="DILATED" operator="dilate" radius="2"></feMorphology>                <feFlood flood-color="#ff0000" flood-opacity="0.5" result="PINK"></feFlood>        <feComposite in="PINK" in2="DILATED" operator="in" result="OUTLINE"></feComposite>        <feMerge>            <feMergeNode in="OUTLINE"></feMergeNode>            <feMergeNode in="SourceGraphic"></feMergeNode>        </feMerge>            <feColorMatrix type="matrix" values="0   0   0   0   0                0   1   0   0   0                0   0   0   0   0                0   0   0   1   0 "></feColorMatrix>    </filter></defs></svg>