<svg class="animated" id="freepik_stories-load-more" xmlns="http://www.w3.org/2000/svg" viewBox="0 0 500 500" version="1.1" xmlns:xlink="http://www.w3.org/1999/xlink" xmlns:svgjs="http://svgjs.com/svgjs"><style>svg#freepik_stories-load-more:not(.animated) .animable {opacity: 0;}svg#freepik_stories-load-more.animated #freepik--background-complete--inject-19 {animation: 1s 1 forwards cubic-bezier(.36,-0.01,.5,1.38) zoomOut;animation-delay: 0s;}svg#freepik_stories-load-more.animated #freepik--Plant--inject-19 {animation: 1s 1 forwards cubic-bezier(.36,-0.01,.5,1.38) slideLeft;animation-delay: 0s;}svg#freepik_stories-load-more.animated #freepik--Floor--inject-19 {animation: 1s 1 forwards cubic-bezier(.36,-0.01,.5,1.38) slideUp;animation-delay: 0s;}svg#freepik_stories-load-more.animated #freepik--Device--inject-19 {animation: 1s 1 forwards cubic-bezier(.36,-0.01,.5,1.38) slideDown,1.5s Infinite  linear shake;animation-delay: 0s,1s;}svg#freepik_stories-load-more.animated #freepik--Lines--inject-19 {animation: 1s 1 forwards cubic-bezier(.36,-0.01,.5,1.38) zoomIn;animation-delay: 0s;}svg#freepik_stories-load-more.animated #freepik--Character--inject-19 {animation: 1s 1 forwards cubic-bezier(.36,-0.01,.5,1.38) lightSpeedLeft;animation-delay: 0s;}svg#freepik_stories-load-more.animated #freepik--speech-bubble--inject-19 {animation: 1s 1 forwards cubic-bezier(.36,-0.01,.5,1.38) zoomOut,1.5s Infinite  linear floating;animation-delay: 0s,1s;}            @keyframes zoomOut {                0% {                    opacity: 0;                    transform: scale(1.5);                }                100% {                    opacity: 1;                    transform: scale(1);                }            }                    @keyframes slideLeft {                0% {                    opacity: 0;                    transform: translateX(-30px);                }                100% {                    opacity: 1;                    transform: translateX(0);                }            }                    @keyframes slideUp {                0% {                    opacity: 0;                    transform: translateY(30px);                }                100% {                    opacity: 1;                    transform: inherit;                }            }                    @keyframes slideDown {                0% {                    opacity: 0;                    transform: translateY(-30px);                }                100% {                    opacity: 1;                    transform: translateY(0);                }            }                    @keyframes shake {                10%, 90% {                    transform: translate3d(-1px, 0, 0);                  }                  20%, 80% {                    transform: translate3d(2px, 0, 0);                  }                  30%, 50%, 70% {                    transform: translate3d(-4px, 0, 0);                  }                  40%, 60% {                    transform: translate3d(4px, 0, 0);                  }            }                    @keyframes zoomIn {                0% {                    opacity: 0;                    transform: scale(0.5);                }                100% {                    opacity: 1;                    transform: scale(1);                }            }                    @keyframes lightSpeedLeft {              from {                transform: translate3d(-50%, 0, 0) skewX(20deg);                opacity: 0;              }              60% {                transform: skewX(-10deg);                opacity: 1;              }              80% {                transform: skewX(2deg);              }              to {                opacity: 1;                transform: translate3d(0, 0, 0);              }            }                    @keyframes floating {                0% {                    opacity: 1;                    transform: translateY(0px);                }                50% {                    transform: translateY(-10px);                }                100% {                    opacity: 1;                    transform: translateY(0px);                }            }        </style><g id="freepik--background-complete--inject-19" class="animable" style="transform-origin: 251.95px 213.765px;"><path d="M407.41,365.75l13.35-.28,6.58-.11c2.19-.05,4.37,0,6.55-.06l-.45.45-.05-11.19.5.5L420.65,355c-4.42,0-8.83-.12-13.24-.17l.27-.27c0,1.83-.09,3.67-.13,5.54Zm0,0-.15-5.54c0-1.86-.11-3.75-.13-5.65v-.27h.28c4.41-.05,8.82-.16,13.24-.17l13.24-.06h.5v.5l-.06,11.19v.45h-.44c-2.23,0-4.47,0-6.7-.06l-6.66-.11Z" style="fill: rgb(235, 235, 235); transform-origin: 420.76px 360.13px;" id="el9lslwiaqua7" class="animable"></path><g id="elh9anrmqitu7"><rect x="422.18" y="368.67" width="26.48" height="11.19" style="fill: rgb(235, 235, 235); transform-origin: 435.42px 374.265px; transform: rotate(180deg);" class="animable"></rect></g><path d="M342.86,228.32l13.36-.28,6.58-.11c2.19,0,4.36,0,6.54-.05l-.44.44-.06-11.19.5.5-13.24-.06c-4.41,0-8.82-.11-13.24-.16l.28-.28c0,1.83-.09,3.68-.14,5.54Zm0,0-.14-5.53c0-1.87-.11-3.76-.13-5.66v-.27h.27c4.42-.05,8.83-.16,13.24-.16l13.24-.07h.5v.5l0,11.19v.45h-.45c-2.23,0-4.47,0-6.69-.06L356,228.6Z" style="fill: rgb(235, 235, 235); transform-origin: 356.215px 222.7px;" id="el3atgwv8xbn9" class="animable"></path><path d="M357.63,242.43l13.36-.28,6.58-.11c2.19,0,4.36,0,6.54,0l-.44.44-.05-11.19.49.5-13.24-.06c-4.41,0-8.82-.11-13.24-.16l.28-.28c0,1.83-.09,3.68-.13,5.54Zm0,0-.14-5.53c0-1.87-.11-3.76-.13-5.66V231h.27c4.42-.05,8.83-.16,13.24-.16l13.24-.07h.51v.5l-.05,11.19v.45h-.45c-2.23,0-4.46,0-6.69-.06l-6.66-.11Z" style="fill: rgb(235, 235, 235); transform-origin: 370.99px 236.84px;" id="elppeo9kcwcu" class="animable"></path><g id="ellsliijcshzp"><rect x="372.35" y="217.13" width="26.48" height="11.19" style="fill: rgb(235, 235, 235); transform-origin: 385.59px 222.725px; transform: rotate(180deg);" class="animable"></rect></g><g id="elev9oo7a2w4f"><rect x="51.34" y="368.67" width="26.48" height="11.19" style="fill: rgb(235, 235, 235); transform-origin: 64.58px 374.265px; transform: rotate(180deg);" class="animable"></rect></g><path d="M66.11,67.49l13.36-.28,6.58-.11c2.19,0,4.36,0,6.54-.06l-.44.45L92.09,56.3l.5.5-13.24-.07c-4.41,0-8.82-.11-13.24-.16l.28-.27c0,1.83-.09,3.67-.14,5.53Zm0,0L66,62c0-1.87-.11-3.75-.13-5.65V56h.27c4.42-.05,8.83-.16,13.24-.16l13.24-.06h.51v.51l0,11.19v.45h-.45c-2.23,0-4.47,0-6.69-.05l-6.66-.12Z" style="fill: rgb(235, 235, 235); transform-origin: 79.5px 61.855px;" id="elagyrrl9paco" class="animable"></path><g id="elv2ph8v6781f"><rect x="51.34" y="70.41" width="26.48" height="11.19" style="fill: rgb(235, 235, 235); transform-origin: 64.58px 76.005px; transform: rotate(180deg);" class="animable"></rect></g><g id="el3k1do3rvaj"><rect x="407.41" y="56.3" width="26.48" height="11.19" style="fill: rgb(235, 235, 235); transform-origin: 420.65px 61.895px; transform: rotate(180deg);" class="animable"></rect></g><g id="elp2fu7rqu8x"><rect x="316.5" y="47.67" width="136.06" height="207.55" style="fill: rgb(235, 235, 235); transform-origin: 384.53px 151.445px; transform: rotate(180deg);" class="animable"></rect></g><g id="elej8yt2qhfsb"><rect x="387.67" y="55.98" width="57.51" height="92.32" style="fill: rgb(255, 255, 255); transform-origin: 416.425px 102.14px; transform: rotate(180deg);" class="animable"></rect></g><g id="eldhgbicb3h6v"><rect x="323.87" y="55.98" width="57.51" height="92.32" style="fill: rgb(255, 255, 255); transform-origin: 352.625px 102.14px; transform: rotate(180deg);" class="animable"></rect></g><g id="elumfcmgw4eh"><rect x="387.67" y="154.58" width="57.51" height="92.32" style="fill: rgb(255, 255, 255); transform-origin: 416.425px 200.74px; transform: rotate(180deg);" class="animable"></rect></g><g id="elvv7qlfmd7h"><rect x="323.87" y="154.58" width="57.51" height="92.32" style="fill: rgb(255, 255, 255); transform-origin: 352.625px 200.74px; transform: rotate(180deg);" class="animable"></rect></g><polygon points="368.99 47.67 316.5 47.67 316.5 344.6 346.88 344.6 325.67 193.5 368.99 47.67" style="fill: rgb(219, 219, 219); transform-origin: 342.745px 196.135px;" id="elxyil57kl8r" class="animable"></polygon><polygon points="359.89 55.69 351.57 90.2 343.1 124.68 326.15 193.62 326.16 193.45 334 265.5 337.92 301.53 341.67 337.57 337.43 301.58 333.34 265.58 325.18 193.56 325.17 193.47 325.19 193.38 342.46 124.52 351.1 90.09 359.89 55.69" style="fill: rgb(235, 235, 235); transform-origin: 342.53px 196.63px;" id="el78zfb9sk60t" class="animable"></polygon><polygon points="319.62 61.78 319.86 91.56 320 121.34 320.12 180.9 320 240.46 319.87 270.23 319.62 300.01 319.38 270.23 319.24 240.46 319.12 180.9 319.24 121.34 319.38 91.56 319.62 61.78" style="fill: rgb(235, 235, 235); transform-origin: 319.62px 180.895px;" id="elrlcj0dbc82f" class="animable"></polygon><path d="M329.43,67.36,327.8,99,326,130.66,322.47,194v0c.36,11.75.58,23.5.87,35.26l.83,35.26.83,35.26.67,35.26L324.5,299.7l-1-35.26-1-35.25c-.32-11.75-.71-23.5-1-35.26v0l3.88-63.27L327.34,99Z" style="fill: rgb(235, 235, 235); transform-origin: 325.465px 201.2px;" id="elcw95y5ayexv" class="animable"></path><path d="M336.26,330.38l-3.44-34.16-3.32-34.17c-2.13-22.8-4.35-45.58-6.4-68.38v-.12l9.73-53.22,4.94-26.59,5-26.58-4.59,26.66-4.67,26.64L324,193.71v-.12c2.18,22.78,4.19,45.58,6.29,68.38l3,34.2Z" style="fill: rgb(235, 235, 235); transform-origin: 332.935px 208.77px;" id="elpd4kkszb53s" class="animable"></path><g id="elt2bzvprvw0h"><rect x="316.5" y="191.01" width="11.85" height="6.92" style="fill: rgb(219, 219, 219); transform-origin: 322.425px 194.47px; transform: rotate(180deg);" class="animable"></rect></g><polygon points="400.07 47.67 452.56 47.67 452.56 344.6 422.18 344.6 443.38 193.5 400.07 47.67" style="fill: rgb(219, 219, 219); transform-origin: 426.315px 196.135px;" id="el4rm9j3ugj4q" class="animable"></polygon><polygon points="409.16 55.69 417.95 90.09 426.59 124.52 443.87 193.38 443.89 193.47 443.88 193.56 435.71 265.58 431.63 301.58 427.38 337.57 431.14 301.53 435.05 265.5 442.89 193.45 442.9 193.62 425.95 124.68 417.48 90.2 409.16 55.69" style="fill: rgb(235, 235, 235); transform-origin: 426.525px 196.63px;" id="elrcixcehyytg" class="animable"></polygon><polygon points="449.43 61.78 449.68 91.56 449.82 121.34 449.93 180.9 449.82 240.46 449.68 270.23 449.43 300.01 449.19 270.23 449.05 240.46 448.94 180.9 449.05 121.34 449.19 91.56 449.43 61.78" style="fill: rgb(235, 235, 235); transform-origin: 449.435px 180.895px;" id="el3clbv45ya8r" class="animable"></polygon><path d="M439.63,67.36,441.72,99l1.95,31.63,3.87,63.27v0c-.26,11.76-.65,23.51-1,35.26l-1,35.25-1,35.26L443.38,335l.67-35.26.83-35.26.83-35.26c.3-11.76.52-23.51.87-35.26v0L443,130.66,441.26,99Z" style="fill: rgb(235, 235, 235); transform-origin: 443.585px 201.18px;" id="elgm2djd0korc" class="animable"></path><path d="M432.79,330.38l2.91-34.21,3-34.2c2.1-22.8,4.11-45.6,6.29-68.38v.12l-9.48-53.25-4.67-26.64-4.6-26.66,5,26.58,4.94,26.59L446,193.55v.12c-2.06,22.8-4.27,45.58-6.4,68.38l-3.33,34.17Z" style="fill: rgb(235, 235, 235); transform-origin: 436.12px 208.77px;" id="elg1jcth3kekt" class="animable"></path><rect x="440.7" y="191.01" width="11.85" height="6.92" style="fill: rgb(219, 219, 219); transform-origin: 446.625px 194.47px;" id="ellij1h1invs" class="animable"></rect><rect x="60.55" y="86.9" width="46.65" height="46.65" style="fill: rgb(255, 255, 255); transform-origin: 83.875px 110.225px;" id="eln67mnhdnt8l" class="animable"></rect><path d="M58.13,84.47V136h51.5V84.47Zm49.08,49.08H60.55V86.9h46.66Z" style="fill: rgb(219, 219, 219); transform-origin: 83.88px 110.235px;" id="elrs2q8fnkd4n" class="animable"></path><g id="eljygsdy9lzt"><rect x="77.6" y="98.27" width="16.13" height="36.36" style="fill: rgb(235, 235, 235); transform-origin: 85.665px 116.45px; transform: rotate(90deg);" class="animable"></rect></g><g id="el23elh6pjj6d"><rect x="74.57" y="100.91" width="18.63" height="18.63" style="fill: rgb(199, 199, 199); transform-origin: 83.885px 110.225px; transform: rotate(90deg);" class="animable"></rect></g><rect x="109.64" y="84.47" width="1.99" height="51.51" style="fill: rgb(199, 199, 199); transform-origin: 110.635px 110.225px;" id="el7nmcfa0lsbn" class="animable"></rect><rect x="60.55" y="153.14" width="46.65" height="46.65" style="fill: rgb(255, 255, 255); transform-origin: 83.875px 176.465px;" id="elm0v4vq3y5x" class="animable"></rect><rect x="68.57" y="160.61" width="12.18" height="35.19" style="fill: rgb(199, 199, 199); transform-origin: 74.66px 178.205px;" id="ely2t6qeiq5dd" class="animable"></rect><path d="M58.13,150.72v51.5h51.5v-51.5Zm49.08,49.08H60.55V153.14h46.66Z" style="fill: rgb(219, 219, 219); transform-origin: 83.88px 176.47px;" id="elgmuh64kyvnp" class="animable"></path><rect x="74.57" y="167.15" width="18.63" height="18.63" style="fill: rgb(235, 235, 235); transform-origin: 83.885px 176.465px;" id="eljjfnfx3wqtn" class="animable"></rect><rect x="109.64" y="150.72" width="1.99" height="51.51" style="fill: rgb(199, 199, 199); transform-origin: 110.635px 176.475px;" id="el0rk3oeq6evvs" class="animable"></rect><rect x="60.55" y="219.39" width="46.65" height="46.65" style="fill: rgb(255, 255, 255); transform-origin: 83.875px 242.715px;" id="elv12m4dsctki" class="animable"></rect><rect x="65.73" y="225.75" width="25.6" height="15.3" style="fill: rgb(235, 235, 235); transform-origin: 78.53px 233.4px;" id="el0bpo3c967xjs" class="animable"></rect><path d="M58.13,217v51.51h51.5V217ZM107.21,266H60.55V219.39h46.66Z" style="fill: rgb(219, 219, 219); transform-origin: 83.88px 242.755px;" id="elts0mepcfc98" class="animable"></path><rect x="74.57" y="233.4" width="18.63" height="18.63" style="fill: rgb(199, 199, 199); transform-origin: 83.885px 242.715px;" id="eltzbfvfjjas" class="animable"></rect><rect x="109.64" y="216.96" width="1.99" height="51.51" style="fill: rgb(199, 199, 199); transform-origin: 110.635px 242.715px;" id="elnez84ppja7" class="animable"></rect></g><g id="freepik--Plant--inject-19" class="animable" style="transform-origin: 401.44px 371.605px;"><path d="M392.91,383.56s-17.46-4-27-12.78S351,346.17,351,346.17a150.3,150.3,0,0,1,19.58,5.14,33.35,33.35,0,0,1,5.92,8.38,41.18,41.18,0,0,0,0-6,26.78,26.78,0,0,1,6.21,3.78C390.67,364.42,392.91,383.56,392.91,383.56Z" style="fill: rgb(255, 199, 39); transform-origin: 371.955px 364.865px;" id="elx6td7y9f6d" class="animable"></path><path d="M361.87,353.85c-2.38-1.65-4.81-3.24-7.18-4.9a.14.14,0,0,1,.15-.23c4.5,2.69,8.93,5.56,13.22,8.57,1.5,1,3,2.14,4.42,3.25l-.3-.52c-.53-.88-1.08-1.74-1.63-2.6a37,37,0,0,0-3.71-4.94c0-.06,0-.14.09-.09,1.36,1.57,2.71,3.12,4,4.79.59.79,1.13,1.61,1.65,2.44.27.44.54.88.79,1.32.08.15.17.3.26.45,2.26,1.78,4.46,3.62,6.55,5.58,1.3,1.2,2.55,2.46,3.75,3.75-.67-2.12-1.26-4.25-2-6.33a.06.06,0,1,1,.11,0c.76,2.18,1.59,4.37,2.18,6.61,1.34,1.45,2.62,2.95,3.82,4.5l-.06-.28c-.2-.82-.4-1.64-.62-2.46-.43-1.58-.89-3.15-1.43-4.7a27.36,27.36,0,0,0-4.69-8.86c-.05-.05,0-.14.09-.08a34.14,34.14,0,0,1,6.69,14c.18.75.36,1.49.53,2.24.09.4.19.8.26,1.21.53.71,1,1.43,1.54,2.17a75.48,75.48,0,0,1,7.39,14.49,166.11,166.11,0,0,1,5.59,17.44c0,.12-.14.16-.17,0-3.42-10.21-6.91-20.57-12.75-29.71q-1.86-2.88-4-5.57a33.22,33.22,0,0,1-8.49-1.69,38.4,38.4,0,0,1-8.51-4.11c-1.53-1-2.93-2.15-4.36-3.3a.06.06,0,1,1,.08-.09,34.69,34.69,0,0,0,8,4.84,43.48,43.48,0,0,0,8.81,3c1.29.28,2.59.49,3.9.66a71.2,71.2,0,0,0-5.15-5.7c-.59-.59-1.2-1.15-1.8-1.72a42.16,42.16,0,0,0-6.46-3.7c-2.86-1.38-5.67-2.84-8.5-4.28-1.6-.82-3.19-1.65-4.8-2.43-.07,0,0-.14.06-.11,2.87,1.39,5.79,2.69,8.68,4,2.73,1.25,5.49,2.5,8.1,4l.33.2c-2.36-2.06-4.81-4-7.31-5.91Q365.44,356.34,361.87,353.85Z" style="fill: rgb(38, 50, 56); transform-origin: 378.989px 379.743px;" id="elo0mgtjrtbc" class="animable"></path><path d="M362.86,362.85c1.42.62,2.87,1.17,4.27,1.83s2.82,1.47,4.19,2.28c.06,0,0,.12-.06.09-1.39-.67-2.8-1.29-4.18-2s-2.81-1.47-4.25-2.11C362.76,362.93,362.79,362.82,362.86,362.85Z" style="fill: rgb(38, 50, 56); transform-origin: 367.067px 364.95px;" id="elmdgb4gd3id" class="animable"></path><path d="M449.62,295.58a24.91,24.91,0,0,0-5.21,14.5c-.06,1.56.19,3.74.37,6.31a41.39,41.39,0,0,0-11.4,9.74,20.63,20.63,0,0,1,11.52-2.76,36.05,36.05,0,0,1-.67,5.22,19.55,19.55,0,0,0-7.4,1.46,16.64,16.64,0,0,1,6.67,1.33c-3.11,9.9-12.36,20.07-37.91,24.39a53.65,53.65,0,0,1,4.53-35.95C417.77,304.77,449.62,295.58,449.62,295.58Z" style="fill: rgb(255, 199, 39); transform-origin: 426.964px 325.675px;" id="eljzcjfsepj3" class="animable"></path><path d="M396.75,398.14q.67-6.34,1.66-12.65a253.76,253.76,0,0,1,5.15-25,98.9,98.9,0,0,1,3.69-11.39,17.7,17.7,0,0,1-.1-2c0-.82,0-1.63,0-2.45,0-1.64.09-3.27.23-4.9a59.63,59.63,0,0,1,1.57-9.58c.47-1.82,1-3.61,1.55-5.41a.06.06,0,1,1,.11,0,70.85,70.85,0,0,0-1.88,9.56,88,88,0,0,0-.86,9.59c0,.88-.05,1.75-.05,2.63,0,.37,0,.75,0,1.13a80.15,80.15,0,0,1,4.3-8.91,109.17,109.17,0,0,1,8.75-13.08,5.8,5.8,0,0,1,.2-1.43c.12-.57.25-1.14.38-1.71.26-1.16.55-2.33.87-3.48.63-2.31,1.47-4.55,2.19-6.84a.06.06,0,0,1,.12,0c-.68,2.26-1.12,4.6-1.64,6.91-.26,1.14-.51,2.28-.76,3.42-.12.57-.25,1.14-.36,1.71l0,.13c1-1.31,2.09-2.59,3.17-3.85,4.87-5.72,10.22-11,15.61-16.24.66-.64,1.34-1.27,2-1.91.05,0,.13,0,.08.09-5.15,5.37-10.21,10.79-15,16.48-1.14,1.35-2.26,2.71-3.36,4.1.58-.4,1.16-.78,1.74-1.16,1.49-1,3-1.92,4.54-2.79s3.11-1.71,4.71-2.5,3.39-1.47,5-2.39c.06,0,.12.07.05.1a37.79,37.79,0,0,0-4.66,2.58c-1.55.92-3.11,1.85-4.63,2.82s-3,1.89-4.5,2.86c-1.25.81-2.47,1.69-3.76,2.44a121.29,121.29,0,0,0-8.18,11.91,86.47,86.47,0,0,0-4.23,8l.91-.4,2.34-1,4.52-2c2.87-1.24,5.78-2.39,8.59-3.76a38.62,38.62,0,0,0,4.58-2.54c.07-.05.12.06.06.1-5.24,3.61-11.11,6.16-16.91,8.72L412,345.18c-.69.31-1.38.65-2.09.92a88.89,88.89,0,0,0-4.32,11.83A240.48,240.48,0,0,0,400,382.65c-1.47,8.34-2.46,16.74-3.22,25.17-.1,1.06-.19,2.11-.31,3.16a.34.34,0,0,1-.67,0C395.87,406.68,396.31,402.39,396.75,398.14Z" style="fill: rgb(38, 50, 56); transform-origin: 419.273px 356.826px;" id="el3h4vis0hlcl" class="animable"></path><path d="M412.29,327.59c.47-2.6,1.16-5.13,1.86-7.68,0-.07.14,0,.12,0-.65,2.49-1.11,5-1.58,7.57s-.9,5.18-1.26,7.78a0,0,0,0,1-.08,0A68.86,68.86,0,0,1,412.29,327.59Z" style="fill: rgb(38, 50, 56); transform-origin: 412.811px 327.569px;" id="elfp58ombqqif" class="animable"></path><path d="M423.3,334.63a46.55,46.55,0,0,1,5.56-3.12c.93-.48,1.87-.94,2.82-1.4s2-.86,2.94-1.35c.07,0,.13.07.06.11-.93.47-1.82,1-2.74,1.53s-1.88,1.05-2.83,1.56c-1.87,1-3.71,2.11-5.67,2.92A.14.14,0,0,1,423.3,334.63Z" style="fill: rgb(38, 50, 56); transform-origin: 428.97px 331.829px;" id="el105u5adfovk" class="animable"></path><g id="el85l4lvw4ca7"><path d="M392.59,353.32s-16.15-3.86-23.57-14.7c-7.09-10.35-9.38-28-9.56-29.55.29,1.43,3.63,16.85,14.63,24C382.51,338.6,390.64,343.13,392.59,353.32Z" style="fill: rgb(38, 50, 56); opacity: 0.1; transform-origin: 376.025px 331.195px;" class="animable"></path></g><path d="M377.68,325.4a20.68,20.68,0,0,1,6,9.81s0,.05-.05,0a24.18,24.18,0,0,0-6-9.74C377.55,325.44,377.63,325.35,377.68,325.4Z" style="fill: rgb(38, 50, 56); transform-origin: 380.638px 330.309px;" id="el0b5zkie8wad" class="animable"></path><path d="M392.59,353.32s-16.15-3.86-23.57-14.7c-7.09-10.35-9.38-28-9.56-29.55a.65.65,0,0,0,0-.1s7.75,11,15.9,13.82S394.93,335.31,392.59,353.32Z" style="fill: rgb(255, 199, 39); transform-origin: 376.18px 331.145px;" id="elnoffj8r6dck" class="animable"></path><path d="M362.31,315a66.13,66.13,0,0,0,5,8.54,34.21,34.21,0,0,0,6.65,6.84c2.19,1.74,4.51,3.32,6.73,5a.35.35,0,0,0-.05-.08c-.41-.62-.86-1.22-1.32-1.81-.92-1.18-1.94-2.3-2.95-3.4-2-2.18-4.06-4.31-5.86-6.67a25,25,0,0,1-2.59-4.17c0-.07.08-.11.11,0,2.62,5.46,7.86,9,11.59,13.56.53.66,1,1.34,1.49,2a8.07,8.07,0,0,1,.93,1.65,33.76,33.76,0,0,1,5.51,5.57,22.12,22.12,0,0,0-.64-3.14,15.85,15.85,0,0,0-1.72-4.09c0-.07.06-.13.1-.07a19.29,19.29,0,0,1,1.89,4.07,14.82,14.82,0,0,1,.59,3.49h0a31.09,31.09,0,0,1,2.19,3.39c-.07-.34-.14-.69-.2-1-.32-1.61-.68-3.22-1.1-4.81a28.77,28.77,0,0,0-3.88-9.1c0-.06.05-.13.1-.06a34.53,34.53,0,0,1,4.3,8.9c.52,1.59.93,3.2,1.29,4.83.18.79.34,1.59.49,2.39.08.41.17.83.24,1.26a57.69,57.69,0,0,1,3.72,10.95,160.46,160.46,0,0,1,3.45,20.43,169,169,0,0,1,1.11,21.69c0,.91-.07,1.81-.12,2.72a.19.19,0,0,1-.37,0c-.16-3.58-.25-7.17-.47-10.75s-.52-7.16-.9-10.73a191.28,191.28,0,0,0-3.37-20.89c-1.31-5.91-3-11.85-6.24-17a31.94,31.94,0,0,0-5.82-6.93c-2.27-2-4.75-3.81-7.13-5.7a39,39,0,0,1-6.55-6.29,51.21,51.21,0,0,1-5.13-8.33c-.39-.74-.78-1.46-1.16-2.19C362.17,315,362.27,315,362.31,315Z" style="fill: rgb(38, 50, 56); transform-origin: 380.85px 359.513px;" id="elkk7gtqufwla" class="animable"></path><path d="M365.1,317.41a53.46,53.46,0,0,0,3.59,6.29,0,0,0,1,1-.07.05,43.32,43.32,0,0,1-3.64-6.3C365,317.38,365.06,317.34,365.1,317.41Z" style="fill: rgb(38, 50, 56); transform-origin: 366.835px 320.562px;" id="elzo48a3v1gxg" class="animable"></path><path d="M451.88,346.17s.25,23-13.48,29.59-21.08,1.1-30.41,3.32h0c.36-.55,7-10.11,17.6-12.75C436.51,363.61,448.57,355.74,451.88,346.17Z" style="fill: rgb(255, 199, 39); transform-origin: 429.935px 362.654px;" id="ela6qyld4minf" class="animable"></path><g id="el7cgmh0qya8j"><path d="M451.88,346.17s.25,23-13.48,29.59-21.08,1.1-30.41,3.32h0a51.8,51.8,0,0,1,15.6-4.6C432.27,373.43,448.81,367.79,451.88,346.17Z" style="opacity: 0.1; transform-origin: 429.935px 362.654px;" class="animable"></path></g><path d="M407.09,379.49a23,23,0,0,1,5.46-3.69c.29-.15.59-.26.89-.39.15-.18.3-.35.46-.52a16.85,16.85,0,0,1,1.3-1.23,18.59,18.59,0,0,1,2.76-2c2.27-1.34,4.76-2.28,7.09-3.52a.06.06,0,0,1,.06.11c-1.15.59-2.27,1.25-3.38,1.9s-2.21,1.24-3.26,1.93a23.44,23.44,0,0,0-2.72,2l-.71.68a35.63,35.63,0,0,1,4.64-1.23c2.52-.51,5.06-.87,7.57-1.41a35.55,35.55,0,0,0,3.64-1c1.14-.92,2.28-1.83,3.35-2.82a27.07,27.07,0,0,0,3.55-3.94c0-.06.15,0,.1.07a42.39,42.39,0,0,1-5.62,6.21c.59-.23,1.17-.47,1.75-.73a28.4,28.4,0,0,0,11.7-9.73c0-.07.14,0,.1.06a32,32,0,0,1-9.46,9.08,28.44,28.44,0,0,1-6,2.83A55.71,55.71,0,0,1,423,374a53.5,53.5,0,0,0-7.28,1.73,21.73,21.73,0,0,0-6.1,3.21,28.65,28.65,0,0,0-8.23,10.2,51.41,51.41,0,0,0-4.53,16.79c0,.24-.4.24-.39,0C397.07,396.24,399.65,386.19,407.09,379.49Z" style="fill: rgb(38, 50, 56); transform-origin: 421.149px 383.13px;" id="elgtpc6m8726a" class="animable"></path><path d="M423,372a7.8,7.8,0,0,1,2.82-2.56,10.35,10.35,0,0,0,3.35-2.78c.05-.06.15,0,.11.06a11.42,11.42,0,0,1-3,2.66,10.43,10.43,0,0,0-3.23,2.67C423.07,372.11,423,372.06,423,372Z" style="fill: rgb(38, 50, 56); transform-origin: 426.145px 369.356px;" id="el0lw295hu7l1" class="animable"></path><polygon points="415.73 396.44 415.11 409.06 413.19 447.63 384.4 447.63 382.48 409.06 381.86 396.44 415.73 396.44" style="fill: rgb(55, 71, 79); transform-origin: 398.795px 422.035px;" id="elrgtzjk1u1lc" class="animable"></polygon><polygon points="415.73 396.44 415.11 409.06 382.48 409.06 381.86 396.44 415.73 396.44" style="fill: rgb(38, 50, 56); transform-origin: 398.795px 402.75px;" id="el98b61w0rw4w" class="animable"></polygon><rect x="379.84" y="391.17" width="37.91" height="12.04" style="fill: rgb(55, 71, 79); transform-origin: 398.795px 397.19px;" id="elvkfxnb3jtn" class="animable"></rect></g><g id="freepik--Floor--inject-19" class="animable" style="transform-origin: 250px 447.63px;"><polygon points="47.44 447.63 98.08 447.39 148.72 447.3 250 447.13 351.28 447.3 401.92 447.39 452.56 447.63 401.92 447.88 351.28 447.97 250 448.13 148.72 447.96 98.08 447.88 47.44 447.63" style="fill: rgb(38, 50, 56); transform-origin: 250px 447.63px;" id="elv5it23khirq" class="animable"></polygon></g><g id="freepik--Device--inject-19" class="animable" style="transform-origin: 250px 252.58px;"><path d="M336.12,57.53H163.86a17.58,17.58,0,0,0-17.42,17.75v354.6a17.59,17.59,0,0,0,17.42,17.75H336.12a17.6,17.6,0,0,0,17.44-17.75V75.28A17.59,17.59,0,0,0,336.12,57.53Zm6.55,361.39c0,9.33-7,16.88-15.61,16.88H173c-8.64,0-15.63-7.55-15.63-16.88V88.72c0-19,7-19.94,15.63-19.94h30.87c1.79,0,3.26,2,3.26,4.56v1.09c0,5.92,3.24,5.94,7.22,5.94h71.39c4,0,7.22,0,7.22-5.94V73.34c0-2.52,1.45-4.56,3.27-4.56h30.88c8.62,0,15.61,2.53,15.61,19.94Z" style="fill: rgb(38, 50, 56); transform-origin: 250px 252.58px;" id="elo0b6wm454w9" class="animable"></path><path d="M259.73,73H240.26a1.2,1.2,0,0,1-1.2-1.2h0a1.21,1.21,0,0,1,1.2-1.21h19.47a1.2,1.2,0,0,1,1.2,1.21h0A1.2,1.2,0,0,1,259.73,73Z" style="fill: rgb(55, 71, 79); transform-origin: 249.995px 71.795px;" id="elsucvqqco18" class="animable"></path><path d="M342.67,88.72v330.2c0,9.33-7,16.88-15.61,16.88H173c-8.64,0-15.63-7.55-15.63-16.88V88.72c0-19,7-19.94,15.63-19.94h30.87c1.79,0,3.26,2,3.26,4.56v1.09c0,5.92,3.24,5.94,7.22,5.94h71.39c4,0,7.23,0,7.23-5.94V73.34c0-2.52,1.44-4.56,3.27-4.56h30.87C335.68,68.78,342.67,71.31,342.67,88.72Z" style="fill: rgb(255, 255, 255); transform-origin: 250.02px 252.29px;" id="elrx6pu33lw8" class="animable"></path><rect x="170.33" y="88.3" width="159.46" height="85.58" style="fill: rgb(255, 255, 255); transform-origin: 250.06px 131.09px;" id="eldswj7y85rf" class="animable"></rect><path d="M329.78,173.88l-159.45.05h-.11v-.05l-.14-85.58v-.11h.25l159.45,0h.14v.06Zm0,0-.14-85.58.14.06-159.45,0,.24-.1-.14,85.58-.1,0Z" style="fill: rgb(219, 219, 219); transform-origin: 250px 131.06px;" id="el2joqyqjhj8l" class="animable"></path><rect x="176.35" y="165.75" width="112.36" height="1.35" style="fill: rgb(235, 235, 235); transform-origin: 232.53px 166.425px;" id="eli9basx6t5lr" class="animable"></rect><rect x="176.35" y="169.23" width="76.25" height="1.35" style="fill: rgb(235, 235, 235); transform-origin: 214.475px 169.905px;" id="eliy77t3h79h" class="animable"></rect><g id="ely0lwfrbcm1p"><rect x="170.08" y="89.2" width="159.85" height="72.66" style="fill: rgb(235, 235, 235); transform-origin: 250.005px 125.53px; transform: rotate(180deg);" class="animable"></rect></g><polygon points="222.89 146.53 329.92 146.53 276.41 103.75 222.89 146.53" style="fill: rgb(219, 219, 219); transform-origin: 276.405px 125.14px;" id="ely5hphka103e" class="animable"></polygon><polygon points="170.08 146.56 246.91 146.56 208.49 115.05 170.08 146.56" style="fill: rgb(199, 199, 199); transform-origin: 208.495px 130.805px;" id="el4sist1aqjjm" class="animable"></polygon><rect x="170.08" y="146.53" width="159.85" height="15.34" style="fill: rgb(199, 199, 199); transform-origin: 250.005px 154.2px;" id="elq7a3pbknt4f" class="animable"></rect><circle cx="231.29" cy="109.89" r="6.94" style="fill: rgb(219, 219, 219); transform-origin: 231.29px 109.89px;" id="eldygb1nwxi2" class="animable"></circle><rect x="170.33" y="181" width="159.46" height="97.89" style="fill: rgb(255, 255, 255); transform-origin: 250.06px 229.945px;" id="el6e3h4nog4oh" class="animable"></rect><path d="M329.78,278.88l-159.45.05h-.11v-.05L170.08,181v-.12h.25l159.45.05h.14V181Zm0,0L329.64,181l.14.06-159.45.05.24-.11-.14,97.88-.1-.05Z" style="fill: rgb(219, 219, 219); transform-origin: 250px 229.905px;" id="elu2lf6j6j1" class="animable"></path><path d="M181.5,190.81a3,3,0,0,1-1,.41,3.39,3.39,0,0,1-4.09-2.48,3.38,3.38,0,1,1,5.06,2.07Z" style="fill: rgb(235, 235, 235); transform-origin: 179.693px 187.935px;" id="elka92if5r2fj" class="animable"></path><path d="M180.75,187.55a1,1,0,1,1-1-1A1,1,0,0,1,180.75,187.55Z" style="fill: rgb(255, 255, 255); transform-origin: 179.75px 187.55px;" id="el89mfqrvcapf" class="animable"></path><path d="M181.5,190.39v.42a3,3,0,0,1-1,.41,3.34,3.34,0,0,1-2.58-.41v-.42a1.78,1.78,0,1,1,3.55,0Z" style="fill: rgb(255, 255, 255); transform-origin: 179.707px 189.898px;" id="elbqdw0asqq8" class="animable"></path><path d="M318.46,187.56c.23,0,.43.14.43.32s-.2.31-.43.31-.42-.14-.42-.31S318.22,187.56,318.46,187.56Z" style="fill: rgb(235, 235, 235); transform-origin: 318.465px 187.875px;" id="elrqz763czag" class="animable"></path><path d="M319.77,187.56c.23,0,.43.14.43.32s-.2.31-.43.31-.42-.14-.42-.31A.38.38,0,0,1,319.77,187.56Z" style="fill: rgb(235, 235, 235); transform-origin: 319.775px 187.874px;" id="eluijatmlmbrn" class="animable"></path><path d="M321.08,187.56c.24,0,.43.14.43.32s-.19.31-.43.31-.42-.14-.42-.31A.38.38,0,0,1,321.08,187.56Z" style="fill: rgb(235, 235, 235); transform-origin: 321.085px 187.874px;" id="el02wmgyccnwa9" class="animable"></path><rect x="188.24" y="187.27" width="36.11" height="1.35" style="fill: rgb(235, 235, 235); transform-origin: 206.295px 187.945px;" id="els83she5xu8" class="animable"></rect><rect x="176.35" y="270.76" width="112.36" height="1.35" style="fill: rgb(235, 235, 235); transform-origin: 232.53px 271.435px;" id="elft09h7m1tt7" class="animable"></rect><rect x="176.35" y="274.24" width="76.25" height="1.35" style="fill: rgb(235, 235, 235); transform-origin: 214.475px 274.915px;" id="eld3ju24lkoxk" class="animable"></rect><g id="el1u91nzza4rl"><rect x="170.08" y="194.21" width="159.85" height="72.66" style="fill: rgb(235, 235, 235); transform-origin: 250.005px 230.54px; transform: rotate(180deg);" class="animable"></rect></g><polygon points="222.89 251.54 329.92 251.54 276.41 208.75 222.89 251.54" style="fill: rgb(219, 219, 219); transform-origin: 276.405px 230.145px;" id="elz2enmmspmgi" class="animable"></polygon><polygon points="170.08 251.57 246.91 251.57 208.49 220.05 170.08 251.57" style="fill: rgb(199, 199, 199); transform-origin: 208.495px 235.81px;" id="elgnrddzedddm" class="animable"></polygon><rect x="170.08" y="251.54" width="159.85" height="15.34" style="fill: rgb(199, 199, 199); transform-origin: 250.005px 259.21px;" id="elsciy6r59ass" class="animable"></rect><circle cx="231.29" cy="214.9" r="6.94" style="fill: rgb(219, 219, 219); transform-origin: 231.29px 214.9px;" id="elig81k82ins" class="animable"></circle><rect x="170.33" y="286" width="159.46" height="97.89" style="fill: rgb(255, 255, 255); transform-origin: 250.06px 334.945px;" id="elixtcl68rpfa" class="animable"></rect><path d="M329.78,383.89l-159.45.05h-.11v-.05L170.08,286v-.11h.25l159.45.05h.14V286Zm0,0L329.64,286l.14.07-159.45.05.24-.12-.14,97.89-.1-.05Z" style="fill: rgb(219, 219, 219); transform-origin: 250px 334.915px;" id="elgsl5fklomgk" class="animable"></path><path d="M181.5,295.82a3.22,3.22,0,0,1-1,.41,3.39,3.39,0,1,1,1-.41Z" style="fill: rgb(235, 235, 235); transform-origin: 179.73px 292.929px;" id="elbqp5sqex2rd" class="animable"></path><path d="M180.75,292.56a1,1,0,1,1-1-1A1,1,0,0,1,180.75,292.56Z" style="fill: rgb(255, 255, 255); transform-origin: 179.75px 292.56px;" id="el7e85d355lpv" class="animable"></path><path d="M181.5,295.4v.42a3.22,3.22,0,0,1-1,.41,3.38,3.38,0,0,1-2.58-.41v-.42a1.78,1.78,0,1,1,3.55,0Z" style="fill: rgb(255, 255, 255); transform-origin: 179.708px 294.906px;" id="el19s0egoihmd" class="animable"></path><path d="M318.46,292.57c.23,0,.43.14.43.32s-.2.31-.43.31-.42-.14-.42-.31S318.22,292.57,318.46,292.57Z" style="fill: rgb(235, 235, 235); transform-origin: 318.465px 292.885px;" id="elorleza8pixg" class="animable"></path><path d="M319.77,292.57c.23,0,.43.14.43.32s-.2.31-.43.31-.42-.14-.42-.31A.38.38,0,0,1,319.77,292.57Z" style="fill: rgb(235, 235, 235); transform-origin: 319.775px 292.884px;" id="elzwopt7ub3yg" class="animable"></path><path d="M321.08,292.57c.24,0,.43.14.43.32s-.19.31-.43.31-.42-.14-.42-.31A.38.38,0,0,1,321.08,292.57Z" style="fill: rgb(235, 235, 235); transform-origin: 321.085px 292.884px;" id="elf9hf0v6nyzr" class="animable"></path><rect x="188.24" y="292.27" width="36.11" height="1.35" style="fill: rgb(235, 235, 235); transform-origin: 206.295px 292.945px;" id="el4f2y1liehlu" class="animable"></rect><rect x="176.35" y="375.77" width="112.36" height="1.35" style="fill: rgb(235, 235, 235); transform-origin: 232.53px 376.445px;" id="elmjkuo96u0ad" class="animable"></rect><rect x="176.35" y="379.25" width="76.25" height="1.35" style="fill: rgb(235, 235, 235); transform-origin: 214.475px 379.925px;" id="elwrpywdtfvjd" class="animable"></rect><g id="el1z8hzeovyx"><rect x="170.08" y="299.22" width="159.85" height="72.66" style="fill: rgb(235, 235, 235); transform-origin: 250.005px 335.55px; transform: rotate(180deg);" class="animable"></rect></g><polygon points="222.89 356.55 329.92 356.55 276.41 313.76 222.89 356.55" style="fill: rgb(219, 219, 219); transform-origin: 276.405px 335.155px;" id="elt1y8j18x45n" class="animable"></polygon><polygon points="170.08 356.58 246.91 356.58 208.49 325.06 170.08 356.58" style="fill: rgb(199, 199, 199); transform-origin: 208.495px 340.82px;" id="elh7flzmmva3b" class="animable"></polygon><rect x="170.08" y="356.55" width="159.85" height="15.34" style="fill: rgb(199, 199, 199); transform-origin: 250.005px 364.22px;" id="elbr30m46h0bd" class="animable"></rect><circle cx="231.29" cy="319.91" r="6.94" style="fill: rgb(219, 219, 219); transform-origin: 231.29px 319.91px;" id="elllni1z8n1sl" class="animable"></circle><path d="M342.67,88.72v16.89H157.32V88.72c0-19,7-19.94,15.64-19.94h30.86c1.79,0,3.25,2,3.25,4.57v1.09c0,5.91,3.25,5.93,7.23,5.93h71.39c4,0,7.22,0,7.22-5.93V73.35c0-2.54,1.45-4.57,3.27-4.57h30.88C335.68,68.78,342.67,71.3,342.67,88.72Z" style="fill: rgb(255, 199, 39); transform-origin: 249.995px 87.195px;" id="elfebgskxd1ew" class="animable"></path><g id="freepik--u5Zjqx--inject-19" class="animable" style="transform-origin: 195.155px 77.135px;"><path d="M198.49,76.19l-.3.3-.16.17a4.07,4.07,0,0,0-5.75,0l-.17-.16-.29-.3h0l0,0c.13-.11.25-.23.38-.33a4,4,0,0,1,.87-.56,4.29,4.29,0,0,1,1.16-.39l.58-.08c.06,0,.49,0,.5,0l.4,0a4,4,0,0,1,1.06.25,5.05,5.05,0,0,1,.71.33,4.24,4.24,0,0,1,.69.48l.31.29Z" style="fill: rgb(255, 255, 255); transform-origin: 195.155px 75.75px;" id="el8pg0bt6k2fk" class="animable"></path><path d="M193.22,77.6l-.47-.47a3.3,3.3,0,0,1,1.92-1,3.35,3.35,0,0,1,2.88,1l-.47.47a2.74,2.74,0,0,0-3.86,0Z" style="fill: rgb(255, 255, 255); transform-origin: 195.15px 76.849px;" id="elgh1hht5l3zw" class="animable"></path><path d="M196.61,78.07c-.16.15-.31.31-.47.47a1.35,1.35,0,0,0-1-.41,1.38,1.38,0,0,0-1,.41c-.15-.16-.31-.31-.47-.47A2.06,2.06,0,0,1,196.61,78.07Z" style="fill: rgb(255, 255, 255); transform-origin: 195.14px 77.9966px;" id="eltvx3mgv71wg" class="animable"></path><path d="M195.57,79a.42.42,0,0,1-.42.43.43.43,0,0,1,0-.85A.42.42,0,0,1,195.57,79Z" style="fill: rgb(255, 255, 255); transform-origin: 195.178px 79.005px;" id="eldj426eht3d" class="animable"></path></g><path d="M169.41,77.1a1.23,1.23,0,1,1,1.23,1.22A1.23,1.23,0,0,1,169.41,77.1Z" style="fill: rgb(255, 255, 255); transform-origin: 170.64px 77.09px;" id="elayz4qrdo5ab" class="animable"></path><path d="M173.28,77.1a1.23,1.23,0,1,1,1.23,1.22A1.23,1.23,0,0,1,173.28,77.1Z" style="fill: rgb(255, 255, 255); transform-origin: 174.51px 77.09px;" id="elxjoeuixq6u" class="animable"></path><path d="M177.15,77.1a1.23,1.23,0,1,1,1.22,1.22A1.23,1.23,0,0,1,177.15,77.1Z" style="fill: rgb(255, 255, 255); transform-origin: 178.38px 77.09px;" id="elv4r8c8hc1g" class="animable"></path><path d="M181,77.1a1.23,1.23,0,1,1,1.22,1.22A1.23,1.23,0,0,1,181,77.1Z" style="fill: rgb(255, 255, 255); transform-origin: 182.23px 77.09px;" id="elwjuywo4s8cc" class="animable"></path><path d="M184.88,77.1a1.23,1.23,0,1,1,1.23,1.22A1.23,1.23,0,0,1,184.88,77.1Z" style="fill: rgb(255, 255, 255); transform-origin: 186.11px 77.09px;" id="el65eyv34ui7v" class="animable"></path><path d="M328.77,79.78h-10V75.14h10Zm-9.49-.52h9v-3.6h-9Z" style="fill: rgb(255, 255, 255); transform-origin: 323.77px 77.46px;" id="ele0zlajpqm0b" class="animable"></path><rect x="319.6" y="75.93" width="6.45" height="3.06" style="fill: rgb(255, 255, 255); transform-origin: 322.825px 77.46px;" id="elil3wnra7zvf" class="animable"></rect><rect x="328.77" y="76.22" width="0.89" height="2.48" style="fill: rgb(255, 255, 255); transform-origin: 329.215px 77.46px;" id="eli9sq4w1lyq" class="animable"></rect><rect x="208.57" y="395.79" width="82.87" height="20.92" style="fill: rgb(255, 199, 39); transform-origin: 250.005px 406.25px;" id="elq3t2ov3v13" class="animable"></rect><path d="M224.87,409v-5.81a.53.53,0,0,1,.54-.54.55.55,0,0,1,.55.54v5.26h2.67a.55.55,0,0,1,0,1.1h-3.22A.54.54,0,0,1,224.87,409Z" style="fill: rgb(255, 255, 255); transform-origin: 227.025px 406.1px;" id="elpmigkoggce" class="animable"></path><path d="M230.66,408.79a2.5,2.5,0,0,1-.68-1.74,2.54,2.54,0,0,1,.68-1.72,2.26,2.26,0,0,1,1.69-.75,2.14,2.14,0,0,1,1.65.75,2.46,2.46,0,0,1,.69,1.72,2.42,2.42,0,0,1-.69,1.74,2.18,2.18,0,0,1-1.65.75A2.3,2.3,0,0,1,230.66,408.79Zm.39-1.74a1.59,1.59,0,0,0,.36,1.05,1.34,1.34,0,0,0,.94.36,1.3,1.3,0,0,0,.91-.36,1.51,1.51,0,0,0,.39-1.05,1.45,1.45,0,0,0-.39-1,1.37,1.37,0,0,0-.91-.38,1.4,1.4,0,0,0-.94.38A1.53,1.53,0,0,0,231.05,407.05Z" style="fill: rgb(255, 255, 255); transform-origin: 232.335px 407.06px;" id="eld3pze67ppth" class="animable"></path><path d="M240.53,407.05V409a.52.52,0,0,1-1,.1,2.23,2.23,0,0,1-1.31.43,2.31,2.31,0,0,1-1.68-.72,2.57,2.57,0,0,1-.67-1.74,2.49,2.49,0,0,1,.67-1.73,2.25,2.25,0,0,1,1.68-.74,2.3,2.3,0,0,1,1.31.43.52.52,0,0,1,1,.1Zm-1,0a1.42,1.42,0,0,0-.39-1,1.23,1.23,0,0,0-1.83,0,1.41,1.41,0,0,0-.38,1,1.47,1.47,0,0,0,.38,1,1.29,1.29,0,0,0,1.83,0A1.48,1.48,0,0,0,239.49,407.05Z" style="fill: rgb(255, 255, 255); transform-origin: 238.2px 407.065px;" id="elhokg096te8" class="animable"></path><path d="M246.92,409a.53.53,0,0,1-1,.11,2.4,2.4,0,0,1-1.34.43,2.47,2.47,0,0,1,0-4.93,2.4,2.4,0,0,1,1.32.41v-1.85a.54.54,0,0,1,.54-.53.53.53,0,0,1,.53.53V407h0Zm-2.39-3.32a1.27,1.27,0,0,0-.93.41,1.44,1.44,0,0,0,0,2,1.28,1.28,0,0,0,1.86,0,1.44,1.44,0,0,0,0-2A1.27,1.27,0,0,0,244.53,405.65Z" style="fill: rgb(255, 255, 255); transform-origin: 244.619px 406.09px;" id="el9hj53rmshri" class="animable"></path><path d="M256,406.62V409a.53.53,0,0,1-.53.53A.55.55,0,0,1,255,409v-2.36a1,1,0,0,0-1-1,1,1,0,0,0-1,1V409s0,0,0,.07v0s0,0,0,.06v.05a.58.58,0,0,1-.49.32h-.1a.54.54,0,0,1-.42-.52v-2.33h0v-1.53a.52.52,0,0,1,1-.24,2.15,2.15,0,0,1,1.05-.29,2,2,0,0,1,1.55.68,2,2,0,0,1,1.55-.68,2.06,2.06,0,0,1,2.05,2.07V409a.53.53,0,1,1-1.05,0v-2.33a1,1,0,0,0-2,0Z" style="fill: rgb(255, 255, 255); transform-origin: 255.592px 407.079px;" id="el5zcu7ij5fok" class="animable"></path><path d="M261.74,408.79a2.46,2.46,0,0,1-.68-1.74,2.5,2.5,0,0,1,.68-1.72,2.26,2.26,0,0,1,1.69-.75,2.18,2.18,0,0,1,1.65.75,2.46,2.46,0,0,1,.69,1.72,2.42,2.42,0,0,1-.69,1.74,2.21,2.21,0,0,1-1.65.75A2.3,2.3,0,0,1,261.74,408.79Zm.39-1.74a1.59,1.59,0,0,0,.36,1.05,1.34,1.34,0,0,0,.94.36,1.32,1.32,0,0,0,.91-.36,1.55,1.55,0,0,0,.38-1.05,1.49,1.49,0,0,0-.38-1,1.39,1.39,0,0,0-.91-.38,1.4,1.4,0,0,0-.94.38A1.53,1.53,0,0,0,262.13,407.05Z" style="fill: rgb(255, 255, 255); transform-origin: 263.415px 407.06px;" id="elw8eyq0f4mlc" class="animable"></path><path d="M270.28,405.1a.52.52,0,0,1-.52.52,1,1,0,0,0-.6.19,1.68,1.68,0,0,0-.45.47,2.94,2.94,0,0,0-.4.83V409a.54.54,0,0,1-.55.53.53.53,0,0,1-.52-.53V405.1a.51.51,0,0,1,.52-.51.53.53,0,0,1,.55.51v.07a1.26,1.26,0,0,1,.2-.2,2.16,2.16,0,0,1,1.25-.38A.51.51,0,0,1,270.28,405.1Z" style="fill: rgb(255, 255, 255); transform-origin: 268.76px 407.06px;" id="el8h0efm1tzdn" class="animable"></path><path d="M270.73,407a2.43,2.43,0,0,1,2.4-2.46,2.35,2.35,0,0,1,2.38,2.28v.05a.28.28,0,0,1,0,.09.48.48,0,0,1-.51.4h-3.14a1.32,1.32,0,0,0,.34.65,1.54,1.54,0,0,0,.94.44,1.6,1.6,0,0,0,1-.25.58.58,0,0,1,.74,0,.47.47,0,0,1,0,.65,2.51,2.51,0,0,1-1.77.65A2.45,2.45,0,0,1,270.73,407Zm1.07-.48h2.79a1.61,1.61,0,0,0-1.46-1.05A1.38,1.38,0,0,0,271.8,406.56Z" style="fill: rgb(255, 255, 255); transform-origin: 273.122px 407.021px;" id="el2i0ixm744zq" class="animable"></path></g><g id="freepik--Lines--inject-19" class="animable" style="transform-origin: 250px 406.25px;"><path d="M291.38,408.69a5.49,5.49,0,0,1,0,4.58,5.49,5.49,0,0,1,0-4.58Z" style="fill: rgb(38, 50, 56); transform-origin: 291.38px 410.98px;" id="el9nl1yg5plwg" class="animable"></path><path d="M285.72,411.08a5,5,0,0,1,2,1.27,5,5,0,0,1,1.26,2,5,5,0,0,1-2-1.27A5.08,5.08,0,0,1,285.72,411.08Z" style="fill: rgb(38, 50, 56); transform-origin: 287.35px 412.715px;" id="elvo7ufh0tip" class="animable"></path><path d="M283.42,416.77a4.85,4.85,0,0,1,2.29-.5,4.9,4.9,0,0,1,2.29.5,5.16,5.16,0,0,1-2.29.5A5.1,5.1,0,0,1,283.42,416.77Z" style="fill: rgb(38, 50, 56); transform-origin: 285.71px 416.769px;" id="elvekwhx1cxyn" class="animable"></path><path d="M285.81,422.42a5,5,0,0,1,1.26-2,5,5,0,0,1,2-1.27,5.55,5.55,0,0,1-3.24,3.24Z" style="fill: rgb(38, 50, 56); transform-origin: 287.44px 420.785px;" id="elazm2ytbs6zj" class="animable"></path><path d="M291.49,424.73a5.52,5.52,0,0,1,0-4.59,5.52,5.52,0,0,1,0,4.59Z" style="fill: rgb(38, 50, 56); transform-origin: 291.49px 422.435px;" id="ely7uvinar84" class="animable"></path><path d="M297.14,422.34a5,5,0,0,1-2-1.27,4.85,4.85,0,0,1-1.26-2,5,5,0,0,1,2,1.26A5.06,5.06,0,0,1,297.14,422.34Z" style="fill: rgb(38, 50, 56); transform-origin: 295.51px 420.705px;" id="elpbow93ljtwc" class="animable"></path><path d="M299.45,416.65a5.13,5.13,0,0,1-2.29.5,4.87,4.87,0,0,1-2.29-.5,4.87,4.87,0,0,1,2.29-.5A5.13,5.13,0,0,1,299.45,416.65Z" style="fill: rgb(38, 50, 56); transform-origin: 297.16px 416.65px;" id="elmduj3lpo61o" class="animable"></path><path d="M297.06,411a5.07,5.07,0,0,1-1.26,2,5,5,0,0,1-2,1.27,5,5,0,0,1,1.27-2A5.07,5.07,0,0,1,297.06,411Z" style="fill: rgb(38, 50, 56); transform-origin: 295.43px 412.635px;" id="elk7w2wotmmb" class="animable"></path><path d="M208.51,387.77a5.49,5.49,0,0,1,0,4.58,5.49,5.49,0,0,1,0-4.58Z" style="fill: rgb(38, 50, 56); transform-origin: 208.51px 390.06px;" id="eljguare4op2s" class="animable"></path><path d="M202.86,390.16a5,5,0,0,1,2,1.27,4.85,4.85,0,0,1,1.26,2,5.5,5.5,0,0,1-3.23-3.24Z" style="fill: rgb(38, 50, 56); transform-origin: 204.49px 391.795px;" id="elw30s3r2eewk" class="animable"></path><path d="M200.55,395.85a5.49,5.49,0,0,1,4.58,0,5.49,5.49,0,0,1-4.58,0Z" style="fill: rgb(38, 50, 56); transform-origin: 202.84px 395.85px;" id="el8yx6hjusca9" class="animable"></path><path d="M202.94,401.5a5.18,5.18,0,0,1,1.26-2,5,5,0,0,1,2-1.26,5.55,5.55,0,0,1-3.24,3.24Z" style="fill: rgb(38, 50, 56); transform-origin: 204.57px 399.87px;" id="el09cd1090aa7x" class="animable"></path><path d="M208.62,403.8a5.1,5.1,0,0,1-.5-2.29,5.16,5.16,0,0,1,.5-2.29,4.9,4.9,0,0,1,.5,2.29A4.85,4.85,0,0,1,208.62,403.8Z" style="fill: rgb(38, 50, 56); transform-origin: 208.621px 401.51px;" id="elexn2y8m0468" class="animable"></path><path d="M214.28,401.42a5.12,5.12,0,0,1-2-1.27,5,5,0,0,1-1.26-2,5,5,0,0,1,2,1.26A5.12,5.12,0,0,1,214.28,401.42Z" style="fill: rgb(38, 50, 56); transform-origin: 212.65px 399.785px;" id="elkp8fbo5ur9h" class="animable"></path><path d="M216.58,395.73a5.1,5.1,0,0,1-2.29.5,5,5,0,0,1-2.29-.5,4.9,4.9,0,0,1,2.29-.5A5.1,5.1,0,0,1,216.58,395.73Z" style="fill: rgb(38, 50, 56); transform-origin: 214.29px 395.73px;" id="elq7gaxa4govf" class="animable"></path><path d="M214.19,390.08a5,5,0,0,1-1.26,2,5,5,0,0,1-2,1.27,5,5,0,0,1,1.27-2A5.07,5.07,0,0,1,214.19,390.08Z" style="fill: rgb(38, 50, 56); transform-origin: 212.56px 391.715px;" id="elotenmz1l2il" class="animable"></path></g><g id="freepik--Character--inject-19" class="animable" style="transform-origin: 114.118px 267.27px;"><path d="M135.84,346.34l26.74,31.87c5.14,6.07,9.54,11.48,11.56,14.49l0,.05a5.63,5.63,0,0,1,1.14,2.25.15.15,0,0,1,0,.07c-.76,2.75-48,45.25-50.18,46.18s-5-5.12-4.44-8.23S132,405.53,132,405.53l-26.41-32.09Z" style="fill: rgb(235, 148, 129); transform-origin: 140.437px 393.843px;" id="el9itvzcxi8f" class="animable"></path><path d="M157.09,371.68l5.49,6.53c5.14,6.07,9.54,11.48,11.56,14.49l0,.05a11,11,0,0,1,1.14,2.25.15.15,0,0,1,0,.07c-.76,2.75-48,45.25-50.18,46.18s-5-5.12-4.44-8.23S132,405.53,132,405.53L126.37,399Z" style="fill: rgb(235, 235, 235); transform-origin: 147.936px 406.513px;" id="eltbypyl9udn" class="animable"></path><path d="M125.12,441.25c2.15-.93,49.42-43.42,50.19-46.18.31-1.05-5.48-8.3-12.73-16.85l-.23-.27L131.55,405l.48.51S121.21,429.89,120.68,433,123,442.19,125.12,441.25Z" style="fill: rgb(255, 199, 39); transform-origin: 147.969px 409.649px;" id="el9ka40h5exvs" class="animable"></path><polygon points="131.62 404.97 131.62 405.11 131.54 405.03 131.62 404.97" style="fill: rgb(2, 1, 0); transform-origin: 131.58px 405.04px;" id="elo75x904fvp" class="animable"></polygon><g id="el5g7drd327br"><path d="M120.69,433c.46-2.76,9-22.13,10.93-26.57V435.9a79.33,79.33,0,0,1-6.5,5.36C123,442.19,120.17,436.13,120.69,433Z" style="fill: rgb(2, 1, 0); opacity: 0.1; transform-origin: 126.124px 423.893px;" class="animable"></path></g><path d="M124,438.94c7.79-7.36,39.91-36.31,48.17-43,.07-.06.11,0,0,.05-7.57,7.46-39.92,36.15-48.1,43.07C124,439.22,123.84,439.09,124,438.94Z" style="fill: rgb(38, 50, 56); transform-origin: 148.085px 417.524px;" id="el7q828gbkzar" class="animable"></path><path d="M129.55,407.93c2.61-3.4,6.87-6.37,11.28-6.29.17,0,.16.25,0,.3a59,59,0,0,0-10.94,6.38A.27.27,0,0,1,129.55,407.93Z" style="fill: rgb(38, 50, 56); transform-origin: 135.231px 404.991px;" id="elu8lt01zfimb" class="animable"></path><path d="M128.51,411.33c2.61-3.4,6.88-6.37,11.28-6.29.17,0,.16.24,0,.3a59.49,59.49,0,0,0-10.94,6.37A.27.27,0,0,1,128.51,411.33Z" style="fill: rgb(38, 50, 56); transform-origin: 134.195px 408.385px;" id="el05ty3lyfo12" class="animable"></path><path d="M127.47,414.73c2.61-3.41,6.88-6.37,11.28-6.29.17,0,.17.24,0,.3a59.91,59.91,0,0,0-10.95,6.37A.27.27,0,0,1,127.47,414.73Z" style="fill: rgb(38, 50, 56); transform-origin: 133.158px 411.782px;" id="elc4mbipsmag8" class="animable"></path><path d="M122.93,307.75c2.29,11.31,41.27,69.12,41.27,69.12l-34.62,31.69s-56.78-73.1-53.31-98.1c3-21.74,35.58-109.18,35.58-109.18h37.56S120.68,296.63,122.93,307.75Z" style="fill: rgb(55, 71, 79); transform-origin: 120.159px 304.92px;" id="elh3bv2x1aw06" class="animable"></path><path d="M126.63,398.12c5-4.8,3.51-3.5,8.58-8.24,2.48-2.32,18.81-17.55,21.5-19.3.06,0,.14.05.1.1-2,2.53-18.57,17.48-21.1,19.75-5.16,4.64-3.73,3.25-9,7.84C126.67,398.35,126.53,398.21,126.63,398.12Z" style="fill: rgb(38, 50, 56); transform-origin: 141.708px 384.437px;" id="el7c3l9hpv8k" class="animable"></path><path d="M116.48,304c.54-2.83,1.15-5.64,1.75-8.45q1.83-8.62,3.87-17.19,4.07-17,8.82-33.79c3.21-11.24,6.59-22.46,10.49-33.48.48-1.36,1-2.72,1.47-4.07,0-.11.2-.06.17,0-3.38,11-6.86,22-10,33.15s-6.07,22.18-8.82,33.34c-1.38,5.61-2.67,11.23-3.92,16.87q-.93,4.16-1.81,8.31a58.41,58.41,0,0,0-1.57,8.57,13,13,0,0,0,2.2,7.72c1.41,2.3,31.4,53.52,32.39,54.44.08.08,0,.19-.12.12-4.1-3.69-34-55.26-34.8-57.67A15.59,15.59,0,0,1,116.48,304Z" style="fill: rgb(38, 50, 56); transform-origin: 133.793px 288.259px;" id="eloz5xxk3sduj" class="animable"></path><path d="M131.67,385.51S123.56,425,123.56,425c-.1,8-.34,14.92-.8,18.51a.13.13,0,0,1,0,.06,5.41,5.41,0,0,1-.62,2.44l0,.05c-2.38,1.58-65.94,2.56-68.17,1.85s-.38-7.12,2.06-9.12,26.61-13.27,26.61-13.27l8.5-39.45Z" style="fill: rgb(235, 148, 129); transform-origin: 92.319px 416.828px;" id="eluaa9d5gtb8d" class="animable"></path><path d="M53.91,447.93c2.22.71,65.79-.27,68.17-1.84,0,0,0,0,0-.06a5.41,5.41,0,0,0,.62-2.44.15.15,0,0,0,0-.07c.46-3.58.69-10.55.81-18.5l1.4-6.87H84.17l-1.58,7.38S58.42,436.8,56,438.81,51.67,447.23,53.91,447.93Z" style="fill: rgb(235, 235, 235); transform-origin: 88.9124px 433.158px;" id="eltzr0n4bgher" class="animable"></path><path d="M53.91,447.93c2.23.71,65.78-.27,68.18-1.85.92-.58,1.31-9.85,1.47-21.06v-.35l-41,.18,0,.69S58.42,436.8,56,438.81,51.68,447.23,53.91,447.93Z" style="fill: rgb(255, 199, 39); transform-origin: 88.2396px 436.417px;" id="elv0hzskauhaq" class="animable"></path><path d="M54.59,445.46c10.71-.43,53.94-1.15,64.56-.77.09,0,.09.07,0,.07-10.6.66-53.84,1-64.56.87C54.37,445.63,54.36,445.46,54.59,445.46Z" style="fill: rgb(38, 50, 56); transform-origin: 86.8194px 445.12px;" id="elcmnfu7bej6l" class="animable"></path><path d="M79.14,425.72c4.2-.85,9.37-.29,12.63,2.67.13.11,0,.29-.17.25a59.08,59.08,0,0,0-12.44-2.39A.27.27,0,0,1,79.14,425.72Z" style="fill: rgb(38, 50, 56); transform-origin: 85.3768px 427.002px;" id="elmgcfloq13xb" class="animable"></path><path d="M76.12,427.6c4.21-.85,9.37-.29,12.64,2.67.13.11,0,.29-.18.25a59,59,0,0,0-12.43-2.39A.27.27,0,0,1,76.12,427.6Z" style="fill: rgb(38, 50, 56); transform-origin: 82.3636px 428.882px;" id="elpuyrb2ewxp" class="animable"></path><path d="M73.11,429.48c4.2-.85,9.37-.29,12.64,2.67.12.11,0,.29-.18.25A59.08,59.08,0,0,0,73.13,430,.27.27,0,0,1,73.11,429.48Z" style="fill: rgb(38, 50, 56); transform-origin: 79.3602px 430.762px;" id="elcgcvv5wfhll" class="animable"></path><path d="M112.69,201.28A154.68,154.68,0,0,1,115.92,220c.78,7.86,1.76,14.81,2.81,15.68s7.12,4.79,9.12,6c0,0-18.51,56.09-23.28,74.79-6.92,27.11-23.5,108.43-23.5,108.43h44.17s13.44-77.42,19.31-103.23c5-22.13,24.32-88.5,24.32-88.5a38.53,38.53,0,0,0-1.56-31.92S112.69,201.25,112.69,201.28Z" style="fill: rgb(55, 71, 79); transform-origin: 126.336px 313.075px;" id="el1izb59srexo" class="animable"></path><path d="M85,416.37c6.55,0,4.67-.12,11.22-.09,3.21,0,24.27.15,27.26.72.06,0,.06.13,0,.14-3,.48-24.07,0-27.27-.12-6.55-.17-4.67-.2-11.21-.44A.11.11,0,0,1,85,416.37Z" style="fill: rgb(38, 50, 56); transform-origin: 104.224px 416.812px;" id="eli2bp5uvlrs" class="animable"></path><path d="M115.6,233.48a84.4,84.4,0,0,1,12.19,8.16.15.15,0,0,1-.17.25c-4.13-2.59-8.36-5.1-12.34-7.92A.29.29,0,0,1,115.6,233.48Z" style="fill: rgb(38, 50, 56); transform-origin: 121.502px 237.674px;" id="elilqszv8bwzh" class="animable"></path><path d="M119,203c0-.15.31-.14.29,0a146.76,146.76,0,0,0-1.56,14.9c-.15,2.31-.27,15.19,3.83,14.89.68-.05,1.12-.65,1.38-1.63a16.29,16.29,0,0,0,.08-4c0-2.71,0-5.41.21-8.1a72.74,72.74,0,0,1,2.48-14.88.13.13,0,0,1,.25.05,137.65,137.65,0,0,0-2,20.76c0,3.35.87,8.54-2.64,8.52s-4.54-8.65-4.62-11A76.41,76.41,0,0,1,119,203Z" style="fill: rgb(38, 50, 56); transform-origin: 121.327px 218.201px;" id="el577svvrauge" class="animable"></path><path d="M121.37,233.1a19.78,19.78,0,0,1,.48,2.75,5.82,5.82,0,0,1,0,2.2.15.15,0,0,1-.28,0,7.44,7.44,0,0,1-.6-2.23c-.17-.86-.37-1.71-.52-2.57A.45.45,0,0,1,121.37,233.1Z" style="fill: rgb(38, 50, 56); transform-origin: 121.199px 235.428px;" id="elvx0g71ze1fn" class="animable"></path><path d="M128.47,403.63c.11-1.05.25-2.11.4-3.16.27-2,.6-4,.9-6.06.61-4.06,1.28-8.11,2-12.16,1.38-8.06,3-16.1,4.67-24.11,1-4.52,2.06-9,3.23-13.46.09-.31.51-.16.46.14-.71,4.09-1.4,8.19-2.21,12.26s-1.61,8.12-2.39,12.18c-1.54,8-3,16.1-4.52,24.13-.43,2.27-.83,4.55-1.25,6.82-.22,1.13-.44,2.26-.67,3.39s-.58,2.23-.76,3.36c0,.11-.17.06-.15,0C128.33,405.83,128.35,404.72,128.47,403.63Z" style="fill: rgb(38, 50, 56); transform-origin: 134.156px 375.767px;" id="elis4kkei5v9o" class="animable"></path><path d="M99.92,333.3c1.47-7.33,3.45-14.57,5.45-21.77,4-14.49,8.74-28.78,13.45-43.06l4.08-12.34c.68-2.06,4-13.15,4.42-14.21a.09.09,0,0,1,.18.05c-1,3.78-2.27,9.29-3.37,13s-2.28,7.37-3.43,11.05c-2.26,7.23-4.55,14.45-6.74,21.71-4.33,14.33-8.63,28.66-12.15,43.22-1,4.08-2,8.16-2.86,12.25s-3.57,14.24-4.43,18.34c0,.11-.21.08-.2,0C95.06,354.07,98.44,340.65,99.92,333.3Z" style="fill: rgb(38, 50, 56); transform-origin: 110.911px 301.732px;" id="elpaiqwem27oq" class="animable"></path><path d="M127.38,371.65c2.43-14,5.35-27.9,8.57-41.72s6.86-27.69,10.84-41.39,8.38-27.27,13.12-40.72a170.1,170.1,0,0,0,6-19.37c1.45-6.53,2.19-13.6.67-20.19a32.74,32.74,0,0,0-1.51-4.91c0-.11.12-.2.17-.09,5.31,12.38,1.86,25.92-2.18,38.13-2.22,6.69-4.58,13.32-6.77,20q-3.36,10.3-6.45,20.71c-4.08,13.74-7.86,27.56-11.25,41.49s-6.41,27.93-9.07,42-4.91,28.32-7.18,42.51c-.3,1.85-.53,3.71-.77,5.56,0,.1-.18.1-.17,0C123.11,399.62,125,385.61,127.38,371.65Z" style="fill: rgb(38, 50, 56); transform-origin: 144.675px 308.472px;" id="elhtbz4028t47" class="animable"></path><path d="M84.93,105.89l7.46,30.8c.32.91-.14,1.63-1,1.63l-15.85-.15a2.57,2.57,0,0,1-2.19-1.65l-7.45-30.8c-.33-.91.14-1.64,1-1.63l15.86.15A2.57,2.57,0,0,1,84.93,105.89Z" style="fill: rgb(55, 71, 79); transform-origin: 79.143px 121.205px;" id="elgft4lxh5ck5" class="animable"></path><path d="M83.05,105.86l7.46,30.8c.32.9-.14,1.63-1,1.62l-15.85-.14a2.57,2.57,0,0,1-2.19-1.66L64,105.68c-.32-.9.14-1.63,1-1.62l15.85.14A2.57,2.57,0,0,1,83.05,105.86Z" style="fill: rgb(69, 90, 100); transform-origin: 77.255px 121.17px;" id="elih9qjv964uf" class="animable"></path><path d="M78.69,107.22A1.35,1.35,0,1,0,80,105.86,1.34,1.34,0,0,0,78.69,107.22Z" style="fill: rgb(38, 50, 56); transform-origin: 80.0399px 107.209px;" id="el8e80xdxcbr2" class="animable"></path><path d="M128.07,144.83c-7,17.87-23.78,41.59-31.33,42.19-3.6.28-10,1.57-15-2.26-10.89-8.34-19-21.29-21.45-28.88-1.1-3.41,18.48-14.48,21.1-11.7,5.66,6,11.16,14.17,12.2,14,3.86-.55,16.82-13,26.8-22.6C132.54,124,130.86,137.71,128.07,144.83Z" style="fill: rgb(235, 148, 129); transform-origin: 95.1593px 159.278px;" id="elgxovr4gpk5o" class="animable"></path><path d="M58.66,133.48c2-7.86,3.72-9.57,1.88-17.1-1.21-4.94,1.43-7.83,4.93-3.87,5.73,6.49,5.28,17.17,4.06,20.83Z" style="fill: rgb(235, 148, 129); transform-origin: 64.4781px 122.067px;" id="elytz4b963z8" class="animable"></path><path d="M60.33,155.88s-3.8-10-2.5-18.56c.9-5.94,4.3-18.64,20.92-25.34,4-1.59,10.7-1.06,5.2,3.88-3.91,3.5-7.45,4.55-9.35,7,0,0,8.5,1.7,9.94,5.71a78.9,78.9,0,0,1,3,10.76,16.78,16.78,0,0,1-2,.74s1.23,3.8-1.59,9.19Z" style="fill: rgb(235, 148, 129); transform-origin: 72.5495px 133.53px;" id="el8ptogqymhfy" class="animable"></path><path d="M59.59,131.79c2.41-2,7.57-6.27,13-8.26,6-2.21,18.24-4.84,19.82-.37,1.17,3.27-3.41,4.69-3.41,4.69s5.28,0,5.68,3.16c.37,2.9-3.23,3.79-3.23,3.79s3.2.53,3,3.4c-.22,3.44-6.89,1.76-10.13,5.06C83.59,144,59.59,131.79,59.59,131.79Z" style="fill: rgb(235, 148, 129); transform-origin: 77.1483px 132.008px;" id="elmtbs1edvfne" class="animable"></path><path d="M73.86,130.29a25.56,25.56,0,0,1,15-2.53c.13,0,.19.13.06.14a62.85,62.85,0,0,0-15.07,2.45S73.83,130.31,73.86,130.29Z" style="fill: rgb(38, 50, 56); transform-origin: 81.418px 128.939px;" id="el9jrmgsji1wc" class="animable"></path><path d="M76.27,136.31c2.35-1.1,9.39-2.86,15.16-1.63.13,0,.17.14,0,.14a67.93,67.93,0,0,0-15.2,1.55S76.24,136.32,76.27,136.31Z" style="fill: rgb(38, 50, 56); transform-origin: 83.8865px 135.315px;" id="elxs8z8nejc8i" class="animable"></path><path d="M106.24,146.29l2.68,3.24.55.67,10.66,12.9s9.66-15.78,11.61-24.75c1.17-5.39.33-8.57-2-9.15a3.08,3.08,0,0,0-.53-.08c-1.52-.13-3.56.67-6,2.47C116.32,136.67,106.24,146.29,106.24,146.29Z" style="fill: rgb(255, 199, 39); transform-origin: 119.252px 146.103px;" id="el725o7l900fr" class="animable"></path><path d="M129,130.24a8,8,0,0,0,.72-1,3.08,3.08,0,0,0-.53-.08A8.18,8.18,0,0,0,129,130.24Zm-20.08,19.29.55.67a10.66,10.66,0,0,0,.63-2.59A9.36,9.36,0,0,0,108.92,149.53Zm13.59-4a11.09,11.09,0,0,0,.82,3,11.26,11.26,0,0,0,1.57,2.69,11.09,11.09,0,0,0-.82-3A11.26,11.26,0,0,0,122.51,145.57Z" style="fill: rgb(255, 255, 255); transform-origin: 119.32px 140.19px;" id="elakqqtl4c46a" class="animable"></path><path d="M122.21,157.73c-.58-1.36-6.51-9.51-11.45-14.68a.09.09,0,0,0-.13.11c.47.64,10.27,13.73,11.4,14.72C122.13,158,122.25,157.83,122.21,157.73Z" style="fill: rgb(38, 50, 56); transform-origin: 116.421px 150.479px;" id="eliked5h25jb9" class="animable"></path><g id="eldr0ib9ii5qn"><path d="M113.31,154.85l6.82,8.24s9.66-15.77,11.61-24.75c1.35-6.19,0-9.47-3.17-9.23Z" style="opacity: 0.05; transform-origin: 122.785px 146.094px;" class="animable"></path></g><path d="M111.37,203.45c1.37,1.49,59.16,7.64,59.49,7.24.89-1.08-4.43-59.49-28.11-80.88-4.17-3.77-11.54-2.7-15-.76-1.7,1-4.67,9-7.58,18.47C118,154.72,110.51,202.51,111.37,203.45Z" style="fill: rgb(255, 199, 39); transform-origin: 141.127px 168.998px;" id="el6g0ybdjlybq" class="animable"></path><path d="M129,130.24a10,10,0,0,0,1.34-2.23c-.33.09-.64.2-.94.31A9.35,9.35,0,0,0,129,130.24ZM122,171a10.75,10.75,0,0,0,1.54-2.71,11.05,11.05,0,0,0,.79-3,10.87,10.87,0,0,0-1.54,2.7A11.22,11.22,0,0,0,122,171Zm27.08-10.26a10.83,10.83,0,0,0,1.53-2.7,10.52,10.52,0,0,0,.79-3,11.16,11.16,0,0,0-1.53,2.7A10.52,10.52,0,0,0,149.1,160.76Zm17.71,24.5a8,8,0,0,0,.65-.91h0c-.07-.35-.15-.71-.23-1.07A9.39,9.39,0,0,0,166.81,185.26ZM135,204.14a10.87,10.87,0,0,0,1.54-2.7,11.22,11.22,0,0,0,.79-3,11.92,11.92,0,0,0-2.33,5.71ZM137.48,139a10.89,10.89,0,0,0,2.71,1.53,11.22,11.22,0,0,0,3,.79,10.89,10.89,0,0,0-2.71-1.53A10.52,10.52,0,0,0,137.48,139Zm9.19,32.06a10.93,10.93,0,0,0,2.71,1.54,11.22,11.22,0,0,0,3,.79,12,12,0,0,0-5.72-2.33ZM114,181.8a11.21,11.21,0,0,0,3,.77,10.87,10.87,0,0,0-2.7-1.54l-.13-.05C114.1,181.26,114.06,181.53,114,181.8Zm51.44,16.8a11,11,0,0,0,.82,3,10.58,10.58,0,0,0,1.57,2.69,10.75,10.75,0,0,0-.83-3A11,11,0,0,0,165.46,198.6Zm-42.95-53a11.09,11.09,0,0,0,.82,3,11.26,11.26,0,0,0,1.57,2.69,11.09,11.09,0,0,0-.82-3A11.26,11.26,0,0,0,122.51,145.57Zm11.28,32a12,12,0,0,0,2.4,5.68,10.69,10.69,0,0,0-.83-3A10.93,10.93,0,0,0,133.79,177.59Zm14.15,15.89a10.85,10.85,0,0,0,3-.83,10.7,10.7,0,0,0,2.68-1.57,12.11,12.11,0,0,0-5.68,2.4Zm-28.88,1.25a12,12,0,0,0,5.68-2.39,10.75,10.75,0,0,0-3,.83A11,11,0,0,0,119.06,194.73Zm13.12-35.63a11.09,11.09,0,0,0,3-.82,11.26,11.26,0,0,0,2.69-1.57,10.75,10.75,0,0,0-3,.83A11.22,11.22,0,0,0,132.18,159.1Z" style="fill: rgb(255, 255, 255); transform-origin: 140.915px 166.15px;" id="elnidccipx0c" class="animable"></path><path d="M149.85,136.64c14.48,17.48,26.47,39.8,24.89,45.73C173,188.89,157.57,211.56,147,220.5c-2.79,2.36-20-20.84-17.11-23.48,5.54-5.09,17.53-19.22,19.16-21.4,1.36-1.84-4.43-15.16-8.53-30.51C137.37,133.35,142.5,127.76,149.85,136.64Z" style="fill: rgb(235, 148, 129); transform-origin: 152.222px 176.471px;" id="ellbar06oj4ko" class="animable"></path><path d="M100.91,216.88a4.35,4.35,0,0,0,3.66,3.36,6.48,6.48,0,0,0-.12,4.39c1,2.48,5.27,2.07,5.27,2.07a8,8,0,0,0,.62,4.66c1.15,2.28,5.56,2.49,5.56,2.49A7,7,0,0,0,119,237.6c4,2.08,9.89-1.39,13.66-3.56S145.15,222.18,147,220.5l-13.71-24.37s-19.71,4.91-23.79,8.09C106.05,206.9,100.29,213.53,100.91,216.88Z" style="fill: rgb(235, 148, 129); transform-origin: 123.932px 217.185px;" id="eltb5r4s06j1a" class="animable"></path><path d="M104.52,219.75c3-3.72,6.88-6.37,10.63-9.23.09-.06.19.07.1.13-3.76,2.8-6.93,6.32-10.57,9.26C104.58,220,104.44,219.85,104.52,219.75Z" style="fill: rgb(38, 50, 56); transform-origin: 109.891px 215.221px;" id="elnxw6u9tmn0o" class="animable"></path><path d="M109.62,226.34a12.82,12.82,0,0,1,2.55-2c1-.65,1.91-1.28,2.88-1.9C117,221.18,119,220,121,218.84c.08-.05.18.08.09.14q-2.9,1.85-5.72,3.82c-1,.66-1.88,1.33-2.81,2a14.63,14.63,0,0,1-2.72,1.78A.16.16,0,0,1,109.62,226.34Z" style="fill: rgb(38, 50, 56); transform-origin: 115.347px 222.725px;" id="el6ztkcpwy41r" class="animable"></path><path d="M116,233.8a8.66,8.66,0,0,1,2.39-1.7l2.68-1.65c1.79-1.12,3.57-2.23,5.31-3.41.08,0,.18.07.09.13-1.76,1.21-3.51,2.43-5.28,3.62l-2.62,1.74a8.28,8.28,0,0,1-2.51,1.36C116,233.9,116,233.83,116,233.8Z" style="fill: rgb(38, 50, 56); transform-origin: 121.253px 230.465px;" id="el4rilnmi5pb7" class="animable"></path><path d="M143.15,160.9l22.46-4.24s-9.59-16.85-16.84-23.18-11.7-4.44-10.52,4.43S143.15,160.9,143.15,160.9Z" style="fill: rgb(255, 199, 39); transform-origin: 151.836px 145.325px;" id="eliwga5jabslq" class="animable"></path><path d="M138.25,137.92c.05.4.11.82.18,1.24,0,.19,0,.38.08.57,1.39,8.85,4.64,21.18,4.64,21.18l6.1-1.15.61-.12,15.75-3s-4.07-7.15-8.9-13.88c-.16-.22-.32-.45-.49-.67a55.25,55.25,0,0,0-7.44-8.63C141.53,127.16,137.07,129.05,138.25,137.92Z" style="fill: rgb(255, 199, 39); transform-origin: 151.836px 145.332px;" id="elw87udimwyaq" class="animable"></path><path d="M153.62,143.65a11.16,11.16,0,0,0,3-.82l.08,0c-.16-.22-.32-.45-.49-.67A10.89,10.89,0,0,0,153.62,143.65Zm-15.19-4.49c0,.19,0,.38.08.57a13,13,0,0,0,1.68.82,11.22,11.22,0,0,0,3,.79,10.89,10.89,0,0,0-2.71-1.53A13.32,13.32,0,0,0,138.43,139.16Zm10.82,20.6.61-.12a13.55,13.55,0,0,0,.77-1.58,10.52,10.52,0,0,0,.79-3,11.16,11.16,0,0,0-1.53,2.7A12.7,12.7,0,0,0,149.25,159.76Z" style="fill: rgb(255, 255, 255); transform-origin: 147.565px 149.46px;" id="elcgoghshejc5" class="animable"></path><path d="M161.74,152c-1.54-.16-12,1.16-19.26,3.08a.09.09,0,0,0,0,.17c.82-.11,17.79-2.48,19.28-3C161.91,152.23,161.85,152.05,161.74,152Z" style="fill: rgb(38, 50, 56); transform-origin: 152.135px 153.618px;" id="el7h0y5eori48" class="animable"></path><path d="M139.09,147.58c0-.07.08-.09.11,0a20.66,20.66,0,0,1,.94,2.23c.07.17.13.35.19.52-.3-1.9-.57-3.81-.84-5.71,0-.09.13-.11.14,0,1.21,6.52,2.29,9.65,3.66,16.13l2-.22a.12.12,0,1,1,0,.23l-2.17.52a.28.28,0,0,1-.28-.15c-1.52-4.07-1.58-5.12-2.3-9.42-.26-.59-.52-1.18-.75-1.78A16.45,16.45,0,0,1,139.09,147.58Z" style="fill: rgb(38, 50, 56); transform-origin: 142.267px 152.913px;" id="elnlw3o302h3" class="animable"></path><path d="M129.43,138.81c3.45,1.21,10.1-3.55,13-7.68.2-.29.08-3.5.11-7.42,0-2.37.12-5,.37-7.42.06-.5-15.48,2.06-15.48,2.06a38.88,38.88,0,0,1,.47,9.4,5,5,0,0,1-.21,1,1.57,1.57,0,0,0,0,.16C127.11,130.73,126.1,137.63,129.43,138.81Z" style="fill: rgb(235, 148, 129); transform-origin: 134.995px 127.613px;" id="elxwcupi72txe" class="animable"></path><path d="M141.94,116.25c-1.13,4-4.71,13.56-12.78,12.89a9.35,9.35,0,0,1-1.54-.25.34.34,0,0,1,0-.16,7.06,7.06,0,0,0,.21-1,38.59,38.59,0,0,0-.48-9.4S138.6,116.5,141.94,116.25Z" style="fill: rgb(38, 50, 56); transform-origin: 134.645px 122.712px;" id="elk9zx7pa17uj" class="animable"></path><path d="M147,109.88a27.28,27.28,0,0,0,0,5c.28,1.29,3.11,2.72,3.11,2.72s-3.31,1-4.23.8-2.34-2.69-2.34-2.69,1.25,3.86,2.57,4.11c.82.15-2,.08-2,.08a3.84,3.84,0,0,1-2.45-1.24C140.71,117.5,147,109.88,147,109.88Z" style="fill: rgb(38, 50, 56); transform-origin: 145.836px 114.898px;" id="eli9gwtg0ss" class="animable"></path><path d="M145.54,97.27c1.64,5.39-1.2,20.94-5,24.41-5.55,5-14.63,5.5-18.91-1.17-4.14-6.46-.07-26.67,4.2-29.82C132.1,86.05,143.11,89.32,145.54,97.27Z" style="fill: rgb(235, 148, 129); transform-origin: 132.959px 107.017px;" id="el3lx0wru4t72" class="animable"></path><path d="M130.32,106.77s.07.07.06.11c-.26,1-.39,2.26.48,2.81,0,0,0,.07,0,.06C129.73,109.34,129.9,107.71,130.32,106.77Z" style="fill: rgb(38, 50, 56); transform-origin: 130.43px 108.26px;" id="elrrsyijo85m" class="animable"></path><path d="M131.48,105.89c1.7.24,1.1,3.62-.47,3.4S130.05,105.69,131.48,105.89Z" style="fill: rgb(38, 50, 56); transform-origin: 131.294px 107.591px;" id="ele7jmood54pd" class="animable"></path><path d="M124.44,105.77s-.09,0-.1.08c-.15,1.05-.5,2.24-1.51,2.42,0,0,0,.06,0,.06C124,108.37,124.47,106.79,124.44,105.77Z" style="fill: rgb(38, 50, 56); transform-origin: 123.636px 107.05px;" id="el6a4c1biooyu" class="animable"></path><path d="M123.7,104.51c-1.67-.42-2.4,2.93-.85,3.33S125.09,104.87,123.7,104.51Z" style="fill: rgb(38, 50, 56); transform-origin: 123.224px 106.173px;" id="elea1dthj4ub9" class="animable"></path><path d="M133.07,104c-.44-.2-.81-.45-1.23-.69a2.3,2.3,0,0,1-1.12-.94.73.73,0,0,1,.26-.85,1.81,1.81,0,0,1,1.82.12,2.65,2.65,0,0,1,1.31,1.39A.78.78,0,0,1,133.07,104Z" style="fill: rgb(38, 50, 56); transform-origin: 132.413px 102.695px;" id="el1wmhkbaso5b" class="animable"></path><path d="M122.41,102.54c.48,0,.93,0,1.41,0a2.29,2.29,0,0,0,1.44-.28.72.72,0,0,0,.18-.87,1.8,1.8,0,0,0-1.65-.78,2.65,2.65,0,0,0-1.82.58A.78.78,0,0,0,122.41,102.54Z" style="fill: rgb(38, 50, 56); transform-origin: 123.616px 101.582px;" id="elo6si0i85s6f" class="animable"></path><path d="M130.76,116.53c-.21.29-.4.67-.77.77a2.78,2.78,0,0,1-1.18-.07,0,0,0,0,0,0,.07,1.44,1.44,0,0,0,1.43.33,1.14,1.14,0,0,0,.66-1.07A.06.06,0,0,0,130.76,116.53Z" style="fill: rgb(38, 50, 56); transform-origin: 129.856px 117.086px;" id="elfgyg2xzmhgn" class="animable"></path><path d="M129.8,113.49a3.6,3.6,0,0,1-2.66,1.17,4.38,4.38,0,0,1-1.3-.17,1,1,0,0,1-.24-.07l-.22-.07a.28.28,0,0,1-.17-.28h0a.45.45,0,0,1,0-.11h0l0-.09c.12-.81.41-2,.41-2-.32.09-1.94.5-1.84.09a54.36,54.36,0,0,1,3.29-10.57c0-.11.22,0,.19.07-.67,3.35-1.91,6.56-2.63,9.92a6.42,6.42,0,0,1,1.78-.22c.1.06-.62,2.34-.64,2.71v0a5,5,0,0,0,3.9-.5C129.81,113.34,129.88,113.42,129.8,113.49Z" style="fill: rgb(38, 50, 56); transform-origin: 126.805px 108.002px;" id="el4fihc6ffren" class="animable"></path><path d="M144.65,111c-2.79-.83-4.08-10.22-4.08-10.22l-.6,5.14a12.46,12.46,0,0,1-3.11-4.09,9.13,9.13,0,0,1-.16-5.1s-3.13,3.21-6.72,4.1c-1.32.33-10.11-.84-10.1-1.44,0-1.79,3-7.15,5.5-8.78A12.64,12.64,0,0,1,138,89.24c5.75,2.29,7.21,6,8,8.92S145.67,111.3,144.65,111Z" style="fill: rgb(38, 50, 56); transform-origin: 133.073px 99.5793px;" id="eldxjc4irt80p" class="animable"></path><path d="M142.22,110s3.61-5,5.87-3.66-.53,8.53-3.23,9.48a2.73,2.73,0,0,1-3.62-1.54Z" style="fill: rgb(235, 148, 129); transform-origin: 145.08px 111.075px;" id="elmkru0x5yh" class="animable"></path><path d="M147.24,108.34s0,.06,0,.08c-1.89.72-2.91,2.44-3.64,4.23a1.5,1.5,0,0,1,2.26-.36s0,.11-.06.1a1.67,1.67,0,0,0-1.85.54,8.33,8.33,0,0,0-.92,1.48c-.09.16-.39.07-.32-.12l0-.05C142.74,111.85,144.66,108.53,147.24,108.34Z" style="fill: rgb(38, 50, 56); transform-origin: 144.97px 111.416px;" id="eleb1erz8a5k" class="animable"></path><path d="M130.64,88.17a22.25,22.25,0,0,1,6.24-1.74c2.41-.27,10,.45,11.78,2s2.16,8.71,2.19,9.76-.54,7.36-2.86,8.84-2.35-9.25-5.91-12.88S130.64,88.17,130.64,88.17Z" style="fill: rgb(255, 199, 39); transform-origin: 140.746px 96.7718px;" id="elsol061vl4c" class="animable"></path><g id="elqrh3r1ywong"><path d="M130.64,88.18s7.89,2.35,11.44,6,3.6,14.36,5.91,12.87c1-.65,1.53-1.64,2-3.31-.42-3.15-1.61-8-4.17-11.46-2.4-3.2-6.58-4.87-11.09-5.45A24.41,24.41,0,0,0,130.64,88.18Z" style="opacity: 0.1; transform-origin: 140.315px 97.0106px;" class="animable"></path></g><path d="M147.26,113.4c-.16-2.87-2.94-10.58-5.92-15s-11.91-7.16-13.16-7.11c-3.05.12-4.1,1-4.58.75s2.7-2.52,3.57-3,3.19-1.67,4.51-1.61,9.48,1,12.38,4.53,6.95,13.36,6.14,15.85c-.2.59-1,1-1.27,1.81-.35,1.11-.61,2.4-1,3.17S147.27,113.65,147.26,113.4Z" style="fill: rgb(255, 199, 39); transform-origin: 136.928px 100.476px;" id="eli8r8l9bnotg" class="animable"></path><path d="M140.67,96.4a15.82,15.82,0,0,0,2-1.42,10.73,10.73,0,0,0,1.72-1.78s.12,0,.08,0a8.21,8.21,0,0,1-1.57,2,6.94,6.94,0,0,1-2.17,1.29C140.65,96.58,140.6,96.44,140.67,96.4Z" style="fill: rgb(38, 50, 56); transform-origin: 142.557px 94.8598px;" id="elwjzdotpjqaa" class="animable"></path><path d="M147.33,110.54c.09-.21.23-.39.33-.58a4.37,4.37,0,0,0,.28-.71,6.63,6.63,0,0,1,.34-1.38,5.83,5.83,0,0,1,.69-.94,1.94,1.94,0,0,0,.59-1.15,0,0,0,1,1,.09,0,4.71,4.71,0,0,1-1,2.19,8.32,8.32,0,0,0-.41,1.48,2.31,2.31,0,0,1-.78,1.19C147.4,110.67,147.3,110.61,147.33,110.54Z" style="fill: rgb(38, 50, 56); transform-origin: 148.487px 108.214px;" id="el9m4gysiffrn" class="animable"></path><path d="M146.4,107.43a12.57,12.57,0,0,0,.82-1,8,8,0,0,0,.63-1.06c.19-.36.35-.73.52-1.1s.48-.83.67-1.27c0-.06.11,0,.09,0-.2.46-.32,1-.5,1.41a9.59,9.59,0,0,1-.57,1.16,7,7,0,0,1-.69,1,3.13,3.13,0,0,1-.94.8S146.38,107.45,146.4,107.43Z" style="fill: rgb(38, 50, 56); transform-origin: 147.764px 105.203px;" id="elslui8lqh798" class="animable"></path><path d="M145.41,104.61a8.14,8.14,0,0,0,1.58-1.73c.43-.64.82-1.3,1.2-2,0,0,.11,0,.09,0a10.16,10.16,0,0,1-1,2.16,5.28,5.28,0,0,1-.75.89,5.08,5.08,0,0,1-1,.69C145.42,104.72,145.36,104.65,145.41,104.61Z" style="fill: rgb(38, 50, 56); transform-origin: 146.837px 102.776px;" id="elq3r2aymhws" class="animable"></path><path d="M144.32,101.92a2.93,2.93,0,0,0,.77-.76c.25-.31.5-.64.73-1l.69-.94a2.78,2.78,0,0,0,.53-1s.1,0,.09,0a2.87,2.87,0,0,1-.34,1.11,7.79,7.79,0,0,1-.67,1.11,9.46,9.46,0,0,1-.82,1,1.83,1.83,0,0,1-.93.62C144.3,102.05,144.25,102,144.32,101.92Z" style="fill: rgb(38, 50, 56); transform-origin: 145.708px 100.14px;" id="elo3vqz72u8b" class="animable"></path><path d="M143.56,98.51c.27-.26.53-.52.78-.79s.49-.57.72-.86.49-.6.71-.92a0,0,0,0,1,.08,0,7.3,7.3,0,0,1-.55,1,8.8,8.8,0,0,1-.7.91,10.19,10.19,0,0,1-.8.81,3.14,3.14,0,0,1-.94.64.07.07,0,0,1-.08-.1A5.16,5.16,0,0,1,143.56,98.51Z" style="fill: rgb(38, 50, 56); transform-origin: 144.311px 97.6212px;" id="elry9s9f7bica" class="animable"></path><path d="M138.51,94.73c.29-.34.57-.68.89-1a11.16,11.16,0,0,1,1-.91,11.88,11.88,0,0,1,2.25-1.46s.1,0,0,.07c-1.37,1.14-2.79,2.22-4.15,3.37A0,0,0,0,1,138.51,94.73Z" style="fill: rgb(38, 50, 56); transform-origin: 140.597px 93.08px;" id="ell4yp4alt2ek" class="animable"></path><path d="M136.82,92.25a5.67,5.67,0,0,1,1-.9A12.74,12.74,0,0,1,140.28,90a0,0,0,1,1,.05.08c-.75.48-1.51,1-2.23,1.47-.36.26-.71.53-1,.82s-.58.66-.89,1a0,0,0,0,1-.06,0A3.49,3.49,0,0,1,136.82,92.25Z" style="fill: rgb(38, 50, 56); transform-origin: 138.24px 91.685px;" id="el7tqcw9x6oyx" class="animable"></path><path d="M134.46,91.09a6,6,0,0,1,.91-.9A7.09,7.09,0,0,1,137.48,89c.05,0,.08.06,0,.08a14,14,0,0,0-2,1.4c-.31.26-.61.54-.91.81a12,12,0,0,1-.89.86s-.05,0,0,0A6.41,6.41,0,0,1,134.46,91.09Z" style="fill: rgb(38, 50, 56); transform-origin: 135.594px 90.575px;" id="elys38hdzsrxn" class="animable"></path><path d="M132.76,89.64c.3-.24.62-.47.94-.69a3.72,3.72,0,0,1,1-.54c.06,0,.08.06,0,.09-.6.45-1.18.92-1.77,1.39a9.63,9.63,0,0,0-1.36,1.56s-.06,0-.05,0A3.59,3.59,0,0,1,132.76,89.64Z" style="fill: rgb(38, 50, 56); transform-origin: 133.136px 89.93px;" id="elhq2ruej34ml" class="animable"></path><path d="M130.62,89.14A5.92,5.92,0,0,1,132.55,88s.08.07,0,.09a7.1,7.1,0,0,0-1.75,1.28,9.33,9.33,0,0,0-1.4,1.67s-.08,0-.06,0A4.86,4.86,0,0,1,130.62,89.14Z" style="fill: rgb(38, 50, 56); transform-origin: 130.961px 89.52px;" id="el64knjnofh1" class="animable"></path><path d="M127.78,90.37a2.73,2.73,0,0,1,.26-.43,4.74,4.74,0,0,1,.65-.77A10.27,10.27,0,0,1,130.33,88s.1,0,0,.08a8.55,8.55,0,0,0-1.54,1.26,7.36,7.36,0,0,0-.63.75l-.26.4a3.38,3.38,0,0,1-.24.41s-.09,0-.08,0A1.21,1.21,0,0,1,127.78,90.37Z" style="fill: rgb(38, 50, 56); transform-origin: 128.977px 89.45px;" id="elb03dlpqux1" class="animable"></path><path d="M126.06,90.5a6.67,6.67,0,0,1,.53-.64,8.09,8.09,0,0,1,.61-.56c.22-.18.45-.35.66-.53,0,0,.11,0,0,.07a4.85,4.85,0,0,0-.61.59l-.55.59-.54.59a8,8,0,0,1-.55.61,0,0,0,0,1-.06,0A3.53,3.53,0,0,1,126.06,90.5Z" style="fill: rgb(38, 50, 56); transform-origin: 126.729px 89.995px;" id="el0ux8h93boh9p" class="animable"></path><path d="M125.6,132.42c0,2.55-.17,6.9,2,8.16a6.37,6.37,0,0,0,4,.63,16.61,16.61,0,0,0,7.95-3.38c.67-.5,1.33-1,2-1.57a19.16,19.16,0,0,0,1.82-1.67s.09,0,.06.07c-.55.59-1.07,1.2-1.62,1.79a17.15,17.15,0,0,1-1.71,1.6,17.65,17.65,0,0,1-3.92,2.51,14.4,14.4,0,0,1-4.38,1.23,6.49,6.49,0,0,1-4.3-.72c-2.85-1.9-2.09-7.09-1.91-8.63C125.53,132.38,125.6,132.36,125.6,132.42Z" style="fill: rgb(38, 50, 56); transform-origin: 134.4px 137.137px;" id="el8r99igz46vx" class="animable"></path></g><g id="freepik--speech-bubble--inject-19" class="animable" style="transform-origin: 87.2462px 71.2683px;"><path d="M59.7,73.89a25.05,25.05,0,0,0,41.87,15.85l12.54,1.84-6.27-10.84A25.07,25.07,0,1,0,59.7,73.89Z" style="fill: rgb(255, 255, 255); transform-origin: 86.8358px 71.2696px;" id="elk4r44vsznom" class="animable"></path><path d="M67.2,53.19a25.6,25.6,0,0,1,9.67-5.92,25.47,25.47,0,0,1,22,3,25.62,25.62,0,0,1,7.85,8.36,25.33,25.33,0,0,1,1.55,22.34l0-.43,6.23,10.86.46.8-.9-.14L101.52,90.1l.3-.09a25.35,25.35,0,0,1-12.4,6.12,22.56,22.56,0,0,1-3.47.36,23.79,23.79,0,0,1-3.48-.07,24.46,24.46,0,0,1-6.75-1.61,24.73,24.73,0,0,1-6-3.36A28.15,28.15,0,0,1,67,89.21a27,27,0,0,1-2.27-2.62,25.2,25.2,0,0,1,2.44-33.4ZM64.83,86.54a22.71,22.71,0,0,0,4.93,4.79,23.08,23.08,0,0,0,6,3.26,24.89,24.89,0,0,0,6.7,1.48,24.54,24.54,0,0,0,3.43,0,21.62,21.62,0,0,0,3.4-.41,24.8,24.8,0,0,0,12-6.18l.12-.12.17,0,12.55,1.76-.44.66L107.42,81l-.12-.21.09-.22A24.75,24.75,0,0,0,106,59a25.7,25.7,0,0,0-7.5-8.17,24.41,24.41,0,0,0-10.35-4.09A25.08,25.08,0,0,0,77,47.6,24.78,24.78,0,0,0,64.83,86.54Z" style="fill: rgb(38, 50, 56); transform-origin: 87.2462px 71.2683px;" id="eljye2qmtdcz" class="animable"></path><circle cx="84.15" cy="71.31" r="13.78" style="fill: rgb(255, 199, 39); transform-origin: 84.15px 71.31px;" id="el74r2c7p8zq" class="animable"></circle><rect x="82.87" y="64.17" width="2.56" height="14.28" style="fill: rgb(255, 255, 255); transform-origin: 84.15px 71.31px;" id="el1of6glsblv" class="animable"></rect><g id="el4m4p22ki6kc"><rect x="82.87" y="64.17" width="2.56" height="14.28" style="fill: rgb(255, 255, 255); transform-origin: 84.15px 71.31px; transform: rotate(-90deg);" class="animable"></rect></g></g><defs>     <filter id="active" height="200%">         <feMorphology in="SourceAlpha" result="DILATED" operator="dilate" radius="2"></feMorphology>                <feFlood flood-color="#32DFEC" flood-opacity="1" result="PINK"></feFlood>        <feComposite in="PINK" in2="DILATED" operator="in" result="OUTLINE"></feComposite>        <feMerge>            <feMergeNode in="OUTLINE"></feMergeNode>            <feMergeNode in="SourceGraphic"></feMergeNode>        </feMerge>    </filter>    <filter id="hover" height="200%">        <feMorphology in="SourceAlpha" result="DILATED" operator="dilate" radius="2"></feMorphology>                <feFlood flood-color="#ff0000" flood-opacity="0.5" result="PINK"></feFlood>        <feComposite in="PINK" in2="DILATED" operator="in" result="OUTLINE"></feComposite>        <feMerge>            <feMergeNode in="OUTLINE"></feMergeNode>            <feMergeNode in="SourceGraphic"></feMergeNode>        </feMerge>            <feColorMatrix type="matrix" values="0   0   0   0   0                0   1   0   0   0                0   0   0   0   0                0   0   0   1   0 "></feColorMatrix>    </filter></defs></svg>