<svg class="animated" id="freepik_stories-studio-photographer" xmlns="http://www.w3.org/2000/svg" viewBox="0 0 750 500" version="1.1" xmlns:xlink="http://www.w3.org/1999/xlink" xmlns:svgjs="http://svgjs.com/svgjs"><style>svg#freepik_stories-studio-photographer:not(.animated) .animable {opacity: 0;}svg#freepik_stories-studio-photographer.animated #freepik--background-complete--inject-59 {animation: 1s 1 forwards cubic-bezier(.36,-0.01,.5,1.38) slideLeft;animation-delay: 0s;}svg#freepik_stories-studio-photographer.animated #freepik--Shadow--inject-59 {animation: 1s 1 forwards cubic-bezier(.36,-0.01,.5,1.38) fadeIn;animation-delay: 0s;}svg#freepik_stories-studio-photographer.animated #freepik--Floor--inject-59 {animation: 1s 1 forwards cubic-bezier(.36,-0.01,.5,1.38) slideLeft;animation-delay: 0s;}svg#freepik_stories-studio-photographer.animated #freepik--Plant--inject-59 {animation: 1s 1 forwards cubic-bezier(.36,-0.01,.5,1.38) zoomIn;animation-delay: 0s;}svg#freepik_stories-studio-photographer.animated #freepik--Backdrop--inject-59 {animation: 1s 1 forwards cubic-bezier(.36,-0.01,.5,1.38) slideDown,1.5s Infinite  linear floating;animation-delay: 0s,1s;}svg#freepik_stories-studio-photographer.animated #freepik--Spotlights--inject-59 {animation: 1s 1 forwards cubic-bezier(.36,-0.01,.5,1.38) slideLeft,1.5s Infinite  linear shake;animation-delay: 0s,1s;}svg#freepik_stories-studio-photographer.animated #freepik--character-2--inject-59 {animation: 1s 1 forwards cubic-bezier(.36,-0.01,.5,1.38) lightSpeedRight;animation-delay: 0s;}svg#freepik_stories-studio-photographer.animated #freepik--character-1--inject-59 {animation: 1s 1 forwards cubic-bezier(.36,-0.01,.5,1.38) slideLeft;animation-delay: 0s;}            @keyframes slideLeft {                0% {                    opacity: 0;                    transform: translateX(-30px);                }                100% {                    opacity: 1;                    transform: translateX(0);                }            }                    @keyframes fadeIn {                0% {                    opacity: 0;                }                100% {                    opacity: 1;                }            }                    @keyframes zoomIn {                0% {                    opacity: 0;                    transform: scale(0.5);                }                100% {                    opacity: 1;                    transform: scale(1);                }            }                    @keyframes slideDown {                0% {                    opacity: 0;                    transform: translateY(-30px);                }                100% {                    opacity: 1;                    transform: translateY(0);                }            }                    @keyframes floating {                0% {                    opacity: 1;                    transform: translateY(0px);                }                50% {                    transform: translateY(-10px);                }                100% {                    opacity: 1;                    transform: translateY(0px);                }            }                    @keyframes shake {                10%, 90% {                    transform: translate3d(-1px, 0, 0);                  }                  20%, 80% {                    transform: translate3d(2px, 0, 0);                  }                  30%, 50%, 70% {                    transform: translate3d(-4px, 0, 0);                  }                  40%, 60% {                    transform: translate3d(4px, 0, 0);                  }            }                    @keyframes lightSpeedRight {              from {                transform: translate3d(50%, 0, 0) skewX(-20deg);                opacity: 0;              }              60% {                transform: skewX(10deg);                opacity: 1;              }              80% {                transform: skewX(-2deg);              }              to {                opacity: 1;                transform: translate3d(0, 0, 0);              }            }        </style><g id="freepik--background-complete--inject-59" class="animable" style="transform-origin: 365.767px 214.195px;"><path d="M116,255.5l-13.12.28-6.66.11c-2.23,0-4.47,0-6.7.05h-.44v-.45L89,244.31v-.5h.5l13.24.06c4.42,0,8.83.11,13.24.16h.28v.27c0,1.9-.09,3.78-.13,5.65Zm0,0-.14-5.66c0-1.86-.11-3.7-.13-5.53l.27.27c-4.41,0-8.82.16-13.24.16l-13.24.07.5-.5,0,11.19-.45-.45c2.18,0,4.36,0,6.55.06l6.58.11Z" style="fill: rgb(235, 235, 235); transform-origin: 102.63px 249.875px;" id="eljmwcz875o1j" class="animable"></path><path d="M101.2,269.61l-13.12.28-6.66.11c-2.23,0-4.47,0-6.7.05h-.44v-.45l-.06-11.19v-.5h.5L88,258c4.41,0,8.83.11,13.24.16h.28v.27c0,1.9-.08,3.78-.13,5.65Zm0,0-.14-5.66c0-1.86-.11-3.7-.13-5.53l.27.27c-4.41.05-8.83.16-13.24.16l-13.24.07.5-.5,0,11.19-.45-.45c2.18,0,4.36,0,6.55.06l6.58.11Z" style="fill: rgb(235, 235, 235); transform-origin: 87.87px 263.98px;" id="elnrwi2z2pqgp" class="animable"></path><path d="M356.5,369.79l-13.12.28-6.67.11c-2.22.05-4.46,0-6.69.06h-.44v-.45l-.05-11.19v-.5h.5l13.24.07c4.41,0,8.83.11,13.24.16h.28v.27c0,1.9-.08,3.79-.13,5.66Zm0,0-.14-5.65c-.05-1.86-.11-3.71-.13-5.54l.27.28c-4.41.05-8.83.15-13.24.16L330,359.1l.5-.5,0,11.19-.45-.44c2.18,0,4.36,0,6.55,0l6.58.11Z" style="fill: rgb(235, 235, 235); transform-origin: 343.16px 364.17px;" id="elpwaivn5o28q" class="animable"></path><path d="M341.73,383.9l-13.13.28-6.66.11c-2.22,0-4.46,0-6.69.06h-.45v-.45l-.05-11.19v-.5h.5l13.24.07c4.41,0,8.83.11,13.24.16H342v.27c0,1.9-.08,3.79-.13,5.66Zm0,0-.14-5.65c0-1.86-.12-3.71-.13-5.54l.27.28c-4.41.05-8.83.15-13.24.16l-13.24.06.5-.5-.06,11.19-.44-.44c2.18,0,4.36,0,6.54.05l6.58.11Z" style="fill: rgb(235, 235, 235); transform-origin: 328.375px 378.28px;" id="eluwtee6xnoc" class="animable"></path><path d="M675.28,267.61l-13.13.28-6.66.11c-2.22.05-4.46,0-6.69.06h-.45v-.45l-.05-11.19v-.5h.5L662,256c4.41,0,8.83.12,13.24.17h.27v.27c0,1.9-.08,3.79-.13,5.65Zm0,0-.14-5.65c0-1.87-.12-3.71-.13-5.54l.27.27c-4.41.05-8.83.16-13.24.17l-13.24.06.5-.5-.06,11.19-.44-.45c2.18,0,4.36,0,6.54.06l6.58.11Z" style="fill: rgb(235, 235, 235); transform-origin: 661.905px 261.99px;" id="el0e3boaxpvfci" class="animable"></path><path d="M556.64,62.75,543.52,63l-6.67.11c-2.22,0-4.46,0-6.69,0h-.44v-.45l-.05-11.19v-.5h.5l13.24.06c4.41,0,8.83.11,13.24.16h.28v.27c0,1.9-.08,3.78-.13,5.65Zm0,0-.14-5.66c0-1.86-.11-3.7-.13-5.53l.27.27c-4.41.05-8.83.16-13.24.16l-13.24.07.5-.5,0,11.19-.45-.45c2.18,0,4.36,0,6.55.06l6.58.11Z" style="fill: rgb(235, 235, 235); transform-origin: 543.3px 57.04px;" id="elji0smpssvde" class="animable"></path><path d="M571.41,76.86l-13.12.28-6.66.11c-2.23,0-4.47,0-6.7,0h-.44v-.45l-.06-11.19v-.51h.5l13.24.06c4.42,0,8.83.11,13.24.16h.28v.27c0,1.9-.09,3.78-.14,5.65Zm0,0-.14-5.66c0-1.86-.11-3.7-.13-5.53l.27.27c-4.41,0-8.82.16-13.24.16l-13.24.07.5-.5,0,11.19-.45-.45c2.18,0,4.36,0,6.55.06l6.58.11Z" style="fill: rgb(235, 235, 235); transform-origin: 558.06px 71.175px;" id="ellblsnlig4om" class="animable"></path><path d="M116,71.14l-13.12.28-6.66.11c-2.23,0-4.47,0-6.7.06h-.44v-.45L89,60v-.5h.5l13.24.06c4.42,0,8.83.12,13.24.17h.28V60c0,1.9-.09,3.79-.13,5.66Zm0,0-.14-5.65c0-1.87-.11-3.71-.13-5.54l.27.27c-4.41.06-8.82.16-13.24.17l-13.24.06L90,60l0,11.19-.45-.44c2.18,0,4.36,0,6.55,0l6.58.11Z" style="fill: rgb(235, 235, 235); transform-origin: 102.63px 65.545px;" id="elncp6tjrt4qo" class="animable"></path><path d="M305.71,172.55l-13.12.28-6.66.11c-2.23.05-4.47,0-6.7.06h-.44v-.45l-.06-11.19v-.5h.5l13.24.06c4.42,0,8.83.12,13.24.17H306v.27c0,1.9-.08,3.79-.13,5.65Zm0,0-.14-5.65c-.05-1.87-.11-3.71-.13-5.54l.27.27c-4.41.05-8.82.16-13.24.17l-13.24.06.5-.5-.05,11.19-.45-.45c2.18,0,4.36,0,6.55.06l6.58.11Z" style="fill: rgb(235, 235, 235); transform-origin: 292.365px 166.93px;" id="elux2p72msuh" class="animable"></path><line x1="205.72" y1="25.65" x2="205.72" style="fill: none; stroke: rgb(199, 199, 199); stroke-miterlimit: 10; transform-origin: 205.72px 12.825px;" id="elbo9d5501uu8" class="animable"></line><polygon points="233.93 52.84 231.66 57.82 179.78 57.82 177.51 52.84 199.6 37.55 211.84 37.55 233.93 52.84" style="fill: rgb(235, 235, 235); transform-origin: 205.72px 47.685px;" id="elrv2yp1jf288" class="animable"></polygon><polygon points="213.37 22.82 211.84 37.55 199.6 37.55 198.07 22.82 213.37 22.82" style="fill: rgb(219, 219, 219); transform-origin: 205.72px 30.185px;" id="elgalkmni6zuo" class="animable"></polygon><polygon points="233.92 52.84 231.65 57.82 179.77 57.82 177.51 52.84 233.92 52.84" style="fill: rgb(219, 219, 219); transform-origin: 205.715px 55.33px;" id="el5hy39c92elu" class="animable"></polygon><line x1="318.57" y1="25.65" x2="318.57" style="fill: none; stroke: rgb(199, 199, 199); stroke-miterlimit: 10; transform-origin: 318.57px 12.825px;" id="elx60wou36q48" class="animable"></line><polygon points="346.78 52.84 344.51 57.82 292.63 57.82 290.37 52.84 312.46 37.55 324.69 37.55 346.78 52.84" style="fill: rgb(235, 235, 235); transform-origin: 318.575px 47.685px;" id="elvrcwbbknxhc" class="animable"></polygon><polygon points="326.23 22.82 324.69 37.55 312.46 37.55 310.92 22.82 326.23 22.82" style="fill: rgb(219, 219, 219); transform-origin: 318.575px 30.185px;" id="eluu56oxltd9p" class="animable"></polygon><polygon points="346.78 52.84 344.51 57.82 292.63 57.82 290.37 52.84 346.78 52.84" style="fill: rgb(219, 219, 219); transform-origin: 318.575px 55.33px;" id="el7rb4hg3w3sr" class="animable"></polygon><line x1="431.43" y1="25.65" x2="431.43" style="fill: none; stroke: rgb(199, 199, 199); stroke-miterlimit: 10; transform-origin: 431.43px 12.825px;" id="ela1sfklebhm7" class="animable"></line><polygon points="459.63 52.84 457.37 57.82 405.49 57.82 403.22 52.84 425.31 37.55 437.55 37.55 459.63 52.84" style="fill: rgb(235, 235, 235); transform-origin: 431.425px 47.685px;" id="elwgjvf8kozol" class="animable"></polygon><polygon points="439.08 22.82 437.55 37.55 425.31 37.55 423.78 22.82 439.08 22.82" style="fill: rgb(219, 219, 219); transform-origin: 431.43px 30.185px;" id="el7fjv7dl6t5v" class="animable"></polygon><polygon points="459.63 52.84 457.36 57.82 405.48 57.82 403.22 52.84 459.63 52.84" style="fill: rgb(219, 219, 219); transform-origin: 431.425px 55.33px;" id="elrcivx4wyyx" class="animable"></polygon><line x1="544.28" y1="25.65" x2="544.28" style="fill: none; stroke: rgb(199, 199, 199); stroke-miterlimit: 10; transform-origin: 544.28px 12.825px;" id="elbhstsm6fyel" class="animable"></line><polygon points="572.49 52.84 570.22 57.82 518.34 57.82 516.08 52.84 538.16 37.55 550.4 37.55 572.49 52.84" style="fill: rgb(235, 235, 235); transform-origin: 544.285px 47.685px;" id="elck3rt96waq" class="animable"></polygon><polygon points="551.93 22.82 550.4 37.55 538.16 37.55 536.63 22.82 551.93 22.82" style="fill: rgb(219, 219, 219); transform-origin: 544.28px 30.185px;" id="el8zs3bl6jbrf" class="animable"></polygon><polygon points="572.49 52.84 570.22 57.82 518.34 57.82 516.08 52.84 572.49 52.84" style="fill: rgb(219, 219, 219); transform-origin: 544.285px 55.33px;" id="elkfdd3ubspp" class="animable"></polygon><rect x="102.57" y="260.57" width="4.33" height="94.56" style="fill: rgb(235, 235, 235); transform-origin: 104.735px 307.85px;" id="el445zpwpzi2v" class="animable"></rect><g id="elcqfoh4q1g8a"><rect x="106.86" y="198.45" width="4.33" height="102.26" style="fill: rgb(219, 219, 219); transform-origin: 109.025px 249.58px; transform: rotate(19.22deg);" class="animable"></rect></g><path d="M103.08,360.91v66.34a1.14,1.14,0,0,0,1.14,1.14h0a1.13,1.13,0,0,0,1.14-1.13l1-66.35Z" style="fill: rgb(235, 235, 235); transform-origin: 104.72px 394.65px;" id="elbt2prdsiwaf" class="animable"></path><path d="M99.79,360.91l-43.7,65.78a1.19,1.19,0,0,0,.74,1.52h0a1.19,1.19,0,0,0,1.52-.73L103.08,362Z" style="fill: rgb(235, 235, 235); transform-origin: 79.5516px 394.594px;" id="elw627r9a2ez" class="animable"></path><path d="M109.68,360.91l43.71,65.78a1.2,1.2,0,0,1-.75,1.52h0a1.19,1.19,0,0,1-1.52-.73L106.39,362Z" style="fill: rgb(235, 235, 235); transform-origin: 129.922px 394.594px;" id="eljg6b43tmdt" class="animable"></path><path d="M99.37,355.13v3.42a5.37,5.37,0,0,0,10.73,0v-3.42Z" style="fill: rgb(219, 219, 219); transform-origin: 104.735px 359.409px;" id="elnsgz31rt2dh" class="animable"></path><rect x="96.9" y="352.73" width="15.67" height="5.7" style="fill: rgb(219, 219, 219); transform-origin: 104.735px 355.58px;" id="el3usfpt4uvqj" class="animable"></rect><path d="M98,261.86a6.77,6.77,0,1,1,6.77,6.77A6.77,6.77,0,0,1,98,261.86Z" style="fill: rgb(219, 219, 219); transform-origin: 104.77px 261.86px;" id="el8kkqd5vccfx" class="animable"></path><path d="M100.45,261.86a4.29,4.29,0,1,1,4.29,4.29A4.29,4.29,0,0,1,100.45,261.86Z" style="fill: rgb(235, 235, 235); transform-origin: 104.74px 261.86px;" id="elmrhwsd2ti0m" class="animable"></path><path d="M127,187.52l12.86,27-17.12,8.14A15,15,0,0,1,110,195.63Z" style="fill: rgb(235, 235, 235); transform-origin: 121.216px 205.549px;" id="elutx5gh5iyig" class="animable"></path><polygon points="124.54 182.28 142.36 219.76 126.03 221.16 113.18 194.11 124.54 182.28" style="fill: rgb(219, 219, 219); transform-origin: 127.77px 201.72px;" id="el4e2vy74jslo" class="animable"></polygon><polygon points="163.44 236.12 142.36 219.76 124.54 182.28 125.17 155.6 163.44 236.12" style="fill: rgb(235, 235, 235); transform-origin: 143.99px 195.86px;" id="elc1cc8cj216" class="animable"></polygon><polygon points="188.69 237.27 163.44 236.12 125.17 155.6 140.22 135.29 188.69 237.27" style="fill: rgb(219, 219, 219); transform-origin: 156.93px 186.28px;" id="el804plcxs8vj" class="animable"></polygon></g><g id="freepik--Shadow--inject-59" class="animable" style="transform-origin: 375px 453.69px;"><ellipse cx="375" cy="453.69" rx="320.51" ry="13.71" style="fill: rgb(235, 235, 235); transform-origin: 375px 453.69px;" id="elwp0rzmtqke" class="animable"></ellipse></g><g id="freepik--Floor--inject-59" class="animable" style="transform-origin: 375px 427.725px;"><polygon points="54.5 427.73 134.63 427.48 214.75 427.39 375 427.23 535.25 427.39 615.37 427.48 695.5 427.73 615.37 427.97 535.25 428.06 375 428.22 214.75 428.06 134.63 427.97 54.5 427.73" style="fill: rgb(38, 50, 56); transform-origin: 375px 427.725px;" id="eltsufesqaqqc" class="animable"></polygon></g><g id="freepik--Plant--inject-59" class="animable" style="transform-origin: 339.385px 329.055px;"><path d="M336.79,275.41s-21.42-3-16.41-28.85C320.38,246.56,344.3,251.93,336.79,275.41Z" style="fill: rgb(255, 199, 39); transform-origin: 328.935px 260.985px;" id="elvzvvwv5dfk" class="animable"></path><g id="el20fobv1saaj"><path d="M336.79,275.41s-21.42-3-16.41-28.85C320.38,246.56,344.3,251.93,336.79,275.41Z" style="opacity: 0.1; transform-origin: 328.935px 260.985px;" class="animable"></path></g><path d="M335.7,270c-.41-1.3-.91-2.59-1.45-3.85,0-.16-.05-.33-.06-.49l-.09-1.06c-.06-.78-.11-1.55-.15-2.32-.09-1.54-.19-3.09-.22-4.64,0-.08-.13-.08-.13,0,0,1.55,0,3.09,0,4.64q0,1.15.12,2.31c0,.18,0,.35,0,.52a46.33,46.33,0,0,0-4.29-7.34,37.36,37.36,0,0,0-2.35-3c-.85-1-1.75-1.91-2.61-2.88-.06-.06-.15,0-.09.1a38.67,38.67,0,0,1,4.12,5.48c.65,1,1.27,2,1.85,3l-.2-.08-.76-.31-1.75-.66-3.44-1.28c-.07,0-.12.09,0,.12,1.14.45,2.26.93,3.39,1.42l1.66.71.83.35a3.23,3.23,0,0,0,.57.2c.43.77.86,1.55,1.26,2.34a55.62,55.62,0,0,1,2.61,6.17l.16.45a12.91,12.91,0,0,0-1.76-.85l-2.21-1c-1.51-.69-3-1.39-4.44-2.2-.07,0-.13.07-.06.11,1.47.81,2.91,1.66,4.39,2.46.73.4,1.47.79,2.23,1.16a7.1,7.1,0,0,0,2,.8,25.36,25.36,0,0,1,1.4,6.07c.24,2.93.22,5.87.28,8.8a0,0,0,1,0,.08,0c.22-2.66.33-5.34.35-8A23.34,23.34,0,0,0,335.7,270Z" style="fill: rgb(38, 50, 56); transform-origin: 330.534px 268.558px;" id="el68alepgx0y" class="animable"></path><path d="M332.41,254.81a25.81,25.81,0,0,0-.22,4.56s.07,0,.07,0c.08-1.51.1-3,.27-4.52C332.54,254.76,332.42,254.73,332.41,254.81Z" style="fill: rgb(38, 50, 56); transform-origin: 332.35px 257.067px;" id="el2s580uugzbq" class="animable"></path><path d="M326.28,256.11a16,16,0,0,1-2.75-1.36c-.07,0-.13.07-.06.12a10.62,10.62,0,0,0,2.78,1.33C326.3,256.21,326.34,256.13,326.28,256.11Z" style="fill: rgb(38, 50, 56); transform-origin: 324.874px 255.475px;" id="eluruwkf91edh" class="animable"></path><path d="M337.47,316.45c0-2.37-.06-4.74-.09-7.1,0-7.86-.11-15.72-.25-23.58q-.17-9.34-.44-18.71a.1.1,0,0,0-.05-.08l0-5.11s-.05-.06-.1-.06-.1,0-.1.07l0,5.12a.08.08,0,0,0-.05.07c-.32,11.1-.6,22.21-.66,33.31,0,2.26,0,4.51,0,6.77-.07,7.24-.11,14.48-.08,21.72,0,1.15,0,2.31,0,3.46,0,6.62.06,13.25.07,19.87,0,.36.39.54.81.55s1-.17,1-.58c0-7.3.06-14.61,0-21.91Q337.51,323.36,337.47,316.45Z" style="fill: rgb(38, 50, 56); transform-origin: 336.598px 307.28px;" id="eltz09myoik7k" class="animable"></path><path d="M328.53,309.26s-10.3-7.63-20.08-2.48-11.3,25-11.3,25,14.35,2.06,23.39-6.55C329.25,317,328.53,309.26,328.53,309.26Z" style="fill: rgb(255, 199, 39); transform-origin: 312.847px 318.495px;" id="elkf5a3x1c8b" class="animable"></path><path d="M331.34,309.73a12.36,12.36,0,0,0-6-.78,9,9,0,0,0-1.26-.12l-1.45-.11-3-.21c-2-.16-4.07-.28-6.09-.48-.08,0-.09.12,0,.12,2,.26,4,.55,6,.75,1,.1,2.07.21,3.11.29.24,0,.49,0,.75.07-.31.07-.61.14-.91.23a23.92,23.92,0,0,0-4.67,1.89c-.81.15-1.62.37-2.41.56-1.28.3-2.55.63-3.81,1-2.5.66-5,1.4-7.46,2.12-.08,0,0,.14,0,.12,2.48-.61,5-1.16,7.45-1.75l3.63-.87.94-.22a30.38,30.38,0,0,0-7.32,6.36,40.06,40.06,0,0,0-5.09,8c0,.07.07.14.12.07a38.45,38.45,0,0,1,6.15-8.08c0,.13-.09.27-.13.41-.19.6-.38,1.21-.58,1.82-.38,1.21-.76,2.42-1.12,3.64,0,.08.09.11.12,0,.44-1.17.85-2.36,1.26-3.54.21-.58.41-1.16.61-1.74.11-.3.21-.6.31-.9l.1-.28A36.83,36.83,0,0,1,314.3,315a27.46,27.46,0,0,1,5.47-3.13c0,.17-.07.35-.1.52-.1.47-.21.94-.31,1.41-.2,1-.39,1.95-.58,2.93-.38,2-.62,4-1,6,0,.08.11.11.13,0,.46-2,1.06-4,1.5-6,.23-1,.45-2,.66-3,.1-.47.19-.95.29-1.42.05-.26.11-.52.14-.79l.56-.23a16.28,16.28,0,0,1,8.57-1.17,8.42,8.42,0,0,1,6.2,5c.09.22.45.08.39-.15A8,8,0,0,0,331.34,309.73Z" style="fill: rgb(38, 50, 56); transform-origin: 319.988px 317.415px;" id="elm32dxv171vc" class="animable"></path><path d="M315.57,318.22l-.87,3.91a27.79,27.79,0,0,0-.72,3.81,0,0,0,0,0,.08,0,29.66,29.66,0,0,0,.88-3.84c.25-1.29.5-2.57.76-3.86C315.71,318.17,315.59,318.13,315.57,318.22Z" style="fill: rgb(38, 50, 56); transform-origin: 314.84px 322.054px;" id="elhyuesvcnhr8" class="animable"></path><path d="M305.61,321.53c-1.31.67-2.59,1.42-3.95,2a.07.07,0,1,0,0,.12,41.79,41.79,0,0,0,3.93-2S305.64,321.52,305.61,321.53Z" style="fill: rgb(38, 50, 56); transform-origin: 303.587px 322.595px;" id="el1j1imyurltb" class="animable"></path><path d="M330.84,295.24s-12.58.81-18.44-7.49-4.54-20.16-4.54-20.16,13.22,1.61,18.47,7.57S330.84,295.24,330.84,295.24Z" style="fill: rgb(255, 199, 39); transform-origin: 319.304px 281.426px;" id="elmrocidmu25l" class="animable"></path><path d="M336.75,307.67c-.43-1.35-1-2.68-1.48-4s-1-2.52-1.57-3.77a79.32,79.32,0,0,0-3.77-7.41c-.89-1.53-1.84-3-2.82-4.48,0-.22-.07-.45-.1-.67l-.18-1.17c-.12-.8-.26-1.59-.39-2.39-.29-1.73-.65-3.46-.93-5.2,0-.08-.14-.08-.13,0,.25,1.72.43,3.45.67,5.17.12.84.23,1.69.35,2.53l.15.91a89.84,89.84,0,0,0-6.23-8.07c-.3-.35-.61-.69-.92-1,0-.1-.08-.19-.11-.29s-.19-.48-.28-.72l-.54-1.5c-.36-1-.67-2-.94-3a.07.07,0,0,0-.13,0c.26,1,.53,2.07.83,3.09.14.49.31,1,.48,1.46l.09.24c-1.61-1.75-3.29-3.44-5-5.11a.06.06,0,0,0-.09.09,90.89,90.89,0,0,1,8.92,10.93,8.1,8.1,0,0,0-.94-.24c-1-.18-1.94-.32-2.92-.45-2.05-.26-4.1-.52-6.14-.84-.08,0-.11.11,0,.13,1.95.38,3.88.82,5.82,1.27.91.21,1.83.39,2.75.57a16.45,16.45,0,0,1,2.21.63l.62.87q1.38,2,2.67,4.1l-1.28-.25c-1-.19-2-.37-2.93-.53-1.92-.32-3.84-.65-5.73-1.08-.09,0-.12.11,0,.13,1.93.45,3.84,1,5.75,1.48.92.25,1.85.47,2.78.68.46.1.93.21,1.4.3a3.16,3.16,0,0,0,.56.1q2.76,4.47,5.17,9.15c.7,1.37,1.37,2.75,2,4.14s1.25,2.89,1.87,4.34C336.39,308.1,336.85,308,336.75,307.67Z" style="fill: rgb(38, 50, 56); transform-origin: 324.661px 290.127px;" id="el2el5igts6um" class="animable"></path><path d="M323.87,278.74c-.24-1.2-.5-2.4-.76-3.6,0-.08-.14,0-.13,0,.24,1.18.47,2.36.68,3.55a35.42,35.42,0,0,0,.72,3.52s0,0,0,0A25.89,25.89,0,0,0,323.87,278.74Z" style="fill: rgb(38, 50, 56); transform-origin: 323.68px 278.657px;" id="elefdlctz7g3" class="animable"></path><path d="M316.52,278.39c-.58-.3-1.2-.53-1.8-.77l-1-.37-.49-.19a2.53,2.53,0,0,1-.53-.24c-.09-.07-.15.1-.06.11a2.55,2.55,0,0,1,.54.22l.48.22.92.41a19.74,19.74,0,0,0,1.85.73A.07.07,0,0,0,316.52,278.39Z" style="fill: rgb(38, 50, 56); transform-origin: 314.572px 277.664px;" id="elj0jiswn8rb" class="animable"></path><path d="M343.73,285.35s7.62-14.23,19.21-16.44,18.68,9.72,18.68,9.72-8.45,10.8-19.09,12.68S343.73,285.35,343.73,285.35Z" style="fill: rgb(255, 199, 39); transform-origin: 362.675px 280.119px;" id="el43f1okhwzf8" class="animable"></path><path d="M370.7,275.29a31.47,31.47,0,0,0-9.09.11l.52-.28c.86-.43,1.72-.88,2.57-1.32,1.78-.93,3.58-1.91,5.44-2.66a.07.07,0,1,0-.05-.12c-1.81.85-3.69,1.55-5.51,2.39-.91.42-1.81.85-2.69,1.32-.57.31-1.21.59-1.77,1a32.13,32.13,0,0,0-7.36,2.44l1.45-1.58c1.08-1.18,2.14-2.42,3.33-3.5.06-.05,0-.14-.1-.09-1.21,1.1-2.49,2.12-3.67,3.27-.57.55-1.12,1.13-1.65,1.72-.26.3-.53.6-.78.92a30.51,30.51,0,0,0-15.54,21c0,.08.1.13.12,0a35.11,35.11,0,0,1,8.52-14.41,33.56,33.56,0,0,1,15.53-9,33.94,33.94,0,0,1,10.72-1A.12.12,0,0,0,370.7,275.29Z" style="fill: rgb(38, 50, 56); transform-origin: 353.279px 285.495px;" id="elep70q8omf6t" class="animable"></path><g id="el2yjxtthd5le"><path d="M381.62,278.64s-8.46,10.79-19.09,12.67c-8.12,1.44-14.79-2.79-17.5-4.87l-.58-1s5.48-4.63,15.86-7.3S381.62,278.64,381.62,278.64Z" style="opacity: 0.1; transform-origin: 363.035px 284.337px;" class="animable"></path></g><path d="M364,270.22a27.19,27.19,0,0,0-2.57,1.7,16.05,16.05,0,0,0-2.24,2c-.06.07,0,.15.1.1.77-.67,1.54-1.34,2.34-2a26,26,0,0,1,2.44-1.76C364.11,270.29,364,270.17,364,270.22Z" style="fill: rgb(38, 50, 56); transform-origin: 361.622px 272.122px;" id="eltp4owxd1aa" class="animable"></path><path d="M370.33,272.63c-.43.18-.87.33-1.3.51l-1.29.53c-.09,0,0,.19.05.15l1.29-.52,1.29-.55C370.45,272.72,370.41,272.59,370.33,272.63Z" style="fill: rgb(38, 50, 56); transform-origin: 369.058px 273.224px;" id="el8jqotw4gzb2" class="animable"></path><path d="M342.21,303.26s2,14.11,12.65,19.05,23.55,0,23.55,0S373.32,291.77,342.21,303.26Z" style="fill: rgb(255, 199, 39); transform-origin: 360.31px 312.59px;" id="elghsf2v9t026" class="animable"></path><path d="M371.1,313.13c-1-.11-2-.28-2.92-.46l-1.43-.27-.74-.15-.86-.79a43.06,43.06,0,0,0-6.5-4.71,36.57,36.57,0,0,0-3.89-2h.2l3.5.15c2.33.11,4.66.16,7,.31.09,0,.08-.12,0-.13-2.34-.16-4.66-.41-7-.61l-3.4-.31L353.3,304l-.44,0c-.61-.22-1.22-.44-1.84-.63a16.57,16.57,0,0,0-9-.49c-2.67.68-5.33,2.43-6,5.25,0,.09.12.16.16.06,1-2.35,3.61-3.53,6-4A14.38,14.38,0,0,1,347,304a10.81,10.81,0,0,0,.53,2.14c.29,1,.58,2,.89,3,.6,2,1.26,3.94,1.85,5.93,0,.08.14,0,.12,0-.49-2-.91-4-1.38-6-.24-1-.48-1.95-.73-2.92a15.74,15.74,0,0,0-.53-2,22.92,22.92,0,0,1,2.75.65,40.18,40.18,0,0,1,4.81,1.76c.16,1,.38,2,.62,3,.29,1.24.61,2.48,1,3.69a.06.06,0,1,0,.12,0l0-.23h0c-.23-1.15-.49-2.3-.73-3.45-.2-.93-.38-1.87-.58-2.79q2,.88,3.87,1.95a7.18,7.18,0,0,0,.14.85c.07.48.16,1,.25,1.45.2,1.09.41,2.17.68,3.25a50.84,50.84,0,0,0,1.82,6.14.08.08,0,0,0,0,.08l.06.07c.05,0,.12,0,.11-.07-.49-2.09-1.05-4.16-1.51-6.26-.23-1-.46-2.1-.67-3.15-.11-.53-.2-1.06-.3-1.58,0-.15,0-.31-.08-.47a43.07,43.07,0,0,1,4.14,2.75,44.38,44.38,0,0,1,6.32,5.78c.08.08.23,0,.16-.13-.81-1.06-1.62-2.1-2.53-3.08-.54-.58-1.09-1.13-1.65-1.67l.17,0c.5.08,1,.16,1.5.22,1,.14,2,.23,2.95.34C371.15,313.26,371.18,313.14,371.1,313.13Z" style="fill: rgb(38, 50, 56); transform-origin: 353.595px 311.523px;" id="elo8ajfnazgnf" class="animable"></path><path d="M363.64,317.91h0l-.06-.36c0-.16-.11-.31-.13-.47h0c-.22-.94-.41-1.89-.58-2.85,0-.06-.11,0-.11,0a11.47,11.47,0,0,0,.81,3.69s.08,0,.07,0Z" style="fill: rgb(38, 50, 56); transform-origin: 363.2px 316.062px;" id="elvzcztm6528o" class="animable"></path><path d="M354.76,317.69a.07.07,0,0,0-.07-.06c-.3-1.25-.58-2.5-.84-3.76-.14-.66-.27-1.32-.4-2-.07-.36-.13-.71-.2-1.07a2.89,2.89,0,0,0-.23-.92.07.07,0,0,0-.12,0,6.45,6.45,0,0,0,.27,1.89c.13.69.26,1.38.42,2.07.3,1.39.65,2.78,1.05,4.15a.07.07,0,0,0,.14,0C354.77,317.89,354.76,317.79,354.76,317.69Z" style="fill: rgb(38, 50, 56); transform-origin: 353.84px 313.953px;" id="elytnz29z0cp" class="animable"></path><path d="M370.13,309.06c-1.94-.26-3.87-.54-5.82-.78-.08,0-.11.11,0,.13,1.94.28,3.88.52,5.82.78C370.18,309.2,370.21,309.07,370.13,309.06Z" style="fill: rgb(38, 50, 56); transform-origin: 367.209px 308.735px;" id="elvxy53t86qz" class="animable"></path><path d="M336.77,270.15s-6.49-28.5,24.12-40C360.89,230.12,369.37,267.63,336.77,270.15Z" style="fill: rgb(255, 199, 39); transform-origin: 349.039px 250.15px;" id="elijgecuk1kf" class="animable"></path><path d="M343.38,254l.33-.2,1.73-1,3.55-2c2.34-1.31,4.64-2.67,7-4,.08,0,0-.15-.06-.11-2.36,1.28-4.76,2.48-7.13,3.73l-3.51,1.86c-.48.25-1,.5-1.43.76,1-1.94,2.11-3.84,3.31-5.67,1.6-2.44,3.35-4.76,5.18-7,.08-.1-.06-.24-.15-.14a48.06,48.06,0,0,0-7.08,8.68,2.91,2.91,0,0,1,0-.3q0-1.07.06-2.13c0-1.39-.05-2.78,0-4.17,0-.09-.12-.08-.13,0-.05,1.37-.22,2.74-.3,4.1,0,.69-.06,1.37-.08,2,0,.37-.05.79,0,1.2-.63,1-1.23,2-1.81,3a52.08,52.08,0,0,0-2.73,5.74c0-.71-.08-1.42-.12-2.13-.09-1.56-.28-3.11-.34-4.67a.07.07,0,0,0-.14,0c0,1.56,0,3.12,0,4.68,0,.78.05,1.56.1,2.34l.06.87a52.33,52.33,0,0,0-2.32,7.83,86.33,86.33,0,0,0-1.14,8.61s0,0,0,0a45.81,45.81,0,0,1,1.62-7.68c.38-1.34.78-2.68,1.21-4,1.27-.6,2.49-1.35,3.72-2s2.57-1.4,3.85-2.1c2.55-1.4,5.1-2.83,7.74-4.06.07,0,0-.15-.07-.12-2.67,1.21-5.36,2.36-8,3.68-1.31.66-2.59,1.36-3.86,2.07-1.07.6-2.16,1.2-3.17,1.89.29-.89.6-1.77.94-2.64A75.16,75.16,0,0,1,343.38,254Z" style="fill: rgb(38, 50, 56); transform-origin: 346.127px 258.038px;" id="eljgr0w21ew5f" class="animable"></path><path d="M340.8,247.47c0-.08-.14-.08-.13,0,.11,1.62.16,3.25.33,4.87,0,.09.15.09.15,0C341.09,250.72,340.92,249.1,340.8,247.47Z" style="fill: rgb(38, 50, 56); transform-origin: 340.91px 249.909px;" id="elhxvas0a34jr" class="animable"></path><path d="M355.48,252.92c-1.92.77-3.85,1.5-5.76,2.3-.05,0,0,.11,0,.09,1.93-.73,3.84-1.52,5.76-2.27C355.59,253,355.55,252.88,355.48,252.92Z" style="fill: rgb(38, 50, 56); transform-origin: 352.623px 254.112px;" id="elr257krmpx2c" class="animable"></path><path d="M358.39,239.77a50.9,50.9,0,0,0-5.45,2.92.08.08,0,0,0,.09.14c1.77-1,3.58-2,5.42-3C358.53,239.85,358.46,239.74,358.39,239.77Z" style="fill: rgb(38, 50, 56); transform-origin: 355.694px 241.304px;" id="ellumzvplkf7n" class="animable"></path><rect x="313.77" y="331.77" width="44.15" height="46.54" style="fill: rgb(55, 71, 79); transform-origin: 335.845px 355.04px;" id="elfsaf49rvsl" class="animable"></rect><rect x="310.73" y="348.24" width="2.26" height="79.72" style="fill: rgb(38, 50, 56); transform-origin: 311.86px 388.1px;" id="el9r4v77z4yvd" class="animable"></rect><rect x="358.47" y="348.24" width="2.26" height="79.72" style="fill: rgb(38, 50, 56); transform-origin: 359.6px 388.1px;" id="elfykxqhe973" class="animable"></rect><rect x="335.8" y="348.24" width="2.26" height="79.72" style="fill: rgb(38, 50, 56); transform-origin: 336.93px 388.1px;" id="el4i4k78ex3xi" class="animable"></rect><rect x="311.86" y="375.33" width="47.73" height="6.44" style="fill: rgb(38, 50, 56); transform-origin: 335.725px 378.55px;" id="el689m45i1dlp" class="animable"></rect></g><g id="freepik--Backdrop--inject-59" class="animable" style="transform-origin: 481.68px 261.17px;"><path d="M628.93,78.07v307.6c0,62.11-54.94,68.43-54.94,68.43h-249s54.94-21.65,54.94-73.06v-303Z" style="fill: rgb(219, 219, 219); transform-origin: 476.96px 266.07px;" id="el3njk3id13u4" class="animable"></path><rect x="373.5" y="69.89" width="261.8" height="13.53" style="fill: rgb(55, 71, 79); transform-origin: 504.4px 76.655px;" id="elbtq5kmfhdpj" class="animable"></rect><rect x="370.43" y="68.24" width="6.14" height="17.59" style="fill: rgb(38, 50, 56); transform-origin: 373.5px 77.035px;" id="elbmvz4ie246i" class="animable"></rect><rect x="632.23" y="68.24" width="6.14" height="17.59" style="fill: rgb(38, 50, 56); transform-origin: 635.3px 77.035px;" id="el607v34tp8co" class="animable"></rect></g><g id="freepik--Spotlights--inject-59" class="animable animator-active" style="transform-origin: 474.748px 271.775px;"><g id="elzbdybq9fp1p"><rect x="642.95" y="293.28" width="4.33" height="90.68" style="fill: rgb(69, 90, 100); transform-origin: 645.115px 338.62px; transform: rotate(180deg);" class="animable"></rect></g><g id="elb2e1gn6uw2a"><rect x="638.66" y="231.16" width="4.33" height="102.26" style="fill: rgb(55, 71, 79); transform-origin: 640.825px 282.29px; transform: rotate(160.78deg);" class="animable"></rect></g><path d="M646.76,389.74v66.34a1.14,1.14,0,0,1-1.13,1.14h0a1.13,1.13,0,0,1-1.14-1.13l-1-66.35Z" style="fill: rgb(69, 90, 100); transform-origin: 645.125px 423.48px;" id="elkuw10tza9n" class="animable"></path><path d="M650.06,389.74l43.7,65.78A1.19,1.19,0,0,1,693,457h0a1.19,1.19,0,0,1-1.52-.73l-44.74-65.44Z" style="fill: rgb(69, 90, 100); transform-origin: 670.276px 423.404px;" id="elchsnzcbzxd4" class="animable"></path><path d="M640.17,389.74l-43.71,65.78a1.2,1.2,0,0,0,.75,1.52h0a1.19,1.19,0,0,0,1.52-.73l44.73-65.44Z" style="fill: rgb(69, 90, 100); transform-origin: 619.928px 423.424px;" id="el2v6q78236ie" class="animable"></path><path d="M650.47,384v3.42a5.36,5.36,0,0,1-10.72,0V384Z" style="fill: rgb(38, 50, 56); transform-origin: 645.11px 388.383px;" id="elheqr66g41p8" class="animable"></path><g id="elwbsj21b9729"><rect x="637.28" y="381.56" width="15.67" height="5.7" style="fill: rgb(55, 71, 79); transform-origin: 645.115px 384.41px; transform: rotate(180deg);" class="animable"></rect></g><path d="M651.88,294.57a6.77,6.77,0,1,0-6.77,6.77A6.77,6.77,0,0,0,651.88,294.57Z" style="fill: rgb(38, 50, 56); transform-origin: 645.11px 294.57px;" id="elcjvt34iwffs" class="animable"></path><path d="M649.4,294.57a4.29,4.29,0,1,0-4.29,4.29A4.29,4.29,0,0,0,649.4,294.57Z" style="fill: rgb(69, 90, 100); transform-origin: 645.11px 294.57px;" id="elwa0e0hyg0d" class="animable"></path><path d="M624.12,218.83,612,246.2l17.32,7.7a15,15,0,0,0,12.09-27.4Z" style="fill: rgb(69, 90, 100); transform-origin: 630.782px 236.838px;" id="elxjq78fqhs1" class="animable"></path><polygon points="626.48 213.52 609.63 251.44 625.98 252.43 638.14 225.06 626.48 213.52" style="fill: rgb(38, 50, 56); transform-origin: 623.885px 232.975px;" id="el278w8owvc0eh" class="animable"></polygon><polygon points="588.97 268.33 609.63 251.44 626.48 213.52 625.17 186.87 588.97 268.33" style="fill: rgb(69, 90, 100); transform-origin: 607.725px 227.6px;" id="elqyu6kqt8kf" class="animable"></polygon><polygon points="563.76 270.13 588.97 268.33 625.17 186.87 609.62 166.95 563.76 270.13" style="fill: rgb(55, 71, 79); transform-origin: 594.465px 218.54px;" id="el3bobv4j1pee" class="animable"></polygon><rect x="302.24" y="190.57" width="4.33" height="164.56" style="fill: rgb(69, 90, 100); transform-origin: 304.405px 272.85px;" id="elgewuq59d1t9" class="animable"></rect><g id="eljegjcahomm"><rect x="306.52" y="128.45" width="4.33" height="102.26" style="fill: rgb(55, 71, 79); transform-origin: 308.685px 179.58px; transform: rotate(19.22deg);" class="animable"></rect></g><path d="M302.75,360.91v66.34a1.14,1.14,0,0,0,1.13,1.14h0a1.13,1.13,0,0,0,1.14-1.13l1-66.35Z" style="fill: rgb(69, 90, 100); transform-origin: 304.385px 394.65px;" id="el8nmza4f50tu" class="animable"></path><path d="M299.45,360.91l-43.7,65.78a1.19,1.19,0,0,0,.74,1.52h0a1.19,1.19,0,0,0,1.52-.73L302.75,362Z" style="fill: rgb(69, 90, 100); transform-origin: 279.217px 394.594px;" id="els0fdxqfuqvo" class="animable"></path><path d="M309.34,360.91l43.71,65.78a1.2,1.2,0,0,1-.75,1.52h0a1.19,1.19,0,0,1-1.52-.73L306.05,362Z" style="fill: rgb(69, 90, 100); transform-origin: 329.582px 394.594px;" id="elymw612miw2o" class="animable"></path><path d="M299,355.13v3.42a5.36,5.36,0,0,0,10.72,0v-3.42Z" style="fill: rgb(38, 50, 56); transform-origin: 304.36px 359.52px;" id="elcay9ye6uq14" class="animable"></path><rect x="296.56" y="352.73" width="15.67" height="5.7" style="fill: rgb(55, 71, 79); transform-origin: 304.395px 355.58px;" id="elfftvtzb3yv" class="animable"></rect><path d="M297.63,191.86a6.77,6.77,0,1,1,6.77,6.77A6.77,6.77,0,0,1,297.63,191.86Z" style="fill: rgb(38, 50, 56); transform-origin: 304.4px 191.86px;" id="eli1xgrlesrc" class="animable"></path><circle cx="304.4" cy="191.86" r="4.28" style="fill: rgb(69, 90, 100); transform-origin: 304.4px 191.86px;" id="elmue4z6fgvl" class="animable"></circle><path d="M342.47,116.52,334,145.26l-18.19-5.34a15,15,0,0,1,8.5-28.72Z" style="fill: rgb(69, 90, 100); transform-origin: 324.174px 128.031px;" id="elwt0k4z70qq" class="animable"></path><polygon points="344.1 110.94 332.43 150.76 319.31 140.94 327.74 112.2 344.1 110.94" style="fill: rgb(38, 50, 56); transform-origin: 331.705px 130.85px;" id="elmyoshz621kd" class="animable"></polygon><polygon points="337.25 177.01 332.43 150.76 344.1 110.94 362.34 91.46 337.25 177.01" style="fill: rgb(69, 90, 100); transform-origin: 347.385px 134.235px;" id="elt0zjla2sjhr" class="animable"></polygon><polygon points="355.32 194.68 337.25 177.01 362.34 91.46 387.08 86.33 355.32 194.68" style="fill: rgb(55, 71, 79); transform-origin: 362.165px 140.505px;" id="eleais3ihndxp" class="animable"></polygon></g><g id="freepik--character-2--inject-59" class="animable" style="transform-origin: 483.43px 287.099px;"><path d="M495,358.4l25.42,28.22c4.88,5.36,9.07,10.15,11,12.84,0,0,0,0,0,0a4.91,4.91,0,0,1,1.11,2s0,0,0,.06c-.61,2.54-42.36,42.82-44.29,43.73S483.57,440.8,484,438s9.46-25.44,9.46-25.44L468.3,384.09Z" style="fill: rgb(173, 99, 89); transform-origin: 500.415px 401.876px;" id="el3yyv4hpj827" class="animable"></path><path d="M515.19,380.83l5.22,5.79c4.88,5.36,9.07,10.15,11,12.84,0,0,0,0,0,0a9.52,9.52,0,0,1,1.11,2s0,0,0,.06c-.61,2.54-42.36,42.82-44.29,43.73S483.57,440.8,484,438s9.46-25.44,9.46-25.44l-5.37-5.8Z" style="fill: rgb(235, 235, 235); transform-origin: 508.237px 413.091px;" id="el5n14u9fprqu" class="animable"></path><path d="M488.26,445.32c1.93-.92,43.68-41.2,44.29-43.74.25-1-5.26-7.39-12.15-15l-.21-.24L493,412.07l.45.45S484.33,435.08,484,438,486.33,446.24,488.26,445.32Z" style="fill: rgb(69, 90, 100); transform-origin: 508.265px 415.883px;" id="el6wibuulasej" class="animable"></path><polygon points="493.03 412.01 493.03 412.14 492.96 412.07 493.03 412.01" style="fill: rgb(2, 1, 0); transform-origin: 492.995px 412.075px;" id="elfmk8t02i2r8" class="animable"></polygon><path d="M484,438c.33-2.54,7.48-20.47,9.12-24.59l.95,26.86a71,71,0,0,1-5.76,5.1C486.33,446.24,483.58,440.8,484,438Z" style="fill: rgb(55, 71, 79); transform-origin: 489.014px 429.437px;" id="eliv40n8pgdnc" class="animable"></path><path d="M487.17,443.24c6.87-7,35.24-34.4,42.56-40.76.06-.05.1,0,0,0-6.65,7.05-35.24,34.25-42.49,40.83C487.13,443.5,487,443.39,487.17,443.24Z" style="fill: rgb(38, 50, 56); transform-origin: 508.439px 422.934px;" id="elp4fchwct7a" class="animable"></path><path d="M491.23,414.78c2.27-3.19,6.07-6,10.09-6.1.15,0,.15.22,0,.28a53.47,53.47,0,0,0-9.78,6.16A.25.25,0,0,1,491.23,414.78Z" style="fill: rgb(38, 50, 56); transform-origin: 496.32px 411.907px;" id="el99zzwq0hwx" class="animable"></path><path d="M490.39,417.91c2.27-3.18,6.07-6,10.09-6.1.16,0,.16.22,0,.28a54.36,54.36,0,0,0-9.78,6.16A.25.25,0,0,1,490.39,417.91Z" style="fill: rgb(38, 50, 56); transform-origin: 495.484px 415.037px;" id="elvz1mq7nlxu" class="animable"></path><path d="M489.56,421.05c2.27-3.19,6.06-6,10.08-6.1.16,0,.16.22,0,.27a54.77,54.77,0,0,0-9.78,6.17A.24.24,0,0,1,489.56,421.05Z" style="fill: rgb(38, 50, 56); transform-origin: 494.645px 418.179px;" id="elgl4r7oauwlo" class="animable"></path><path d="M482,323.62c2.46,10.24,39.86,61.72,39.86,61.72l-30.56,30s-54.14-64.85-51.77-87.76c2.06-19.93,28.95-100.73,28.95-100.73l34.26-1.21S479.57,313.54,482,323.62Z" style="fill: rgb(255, 199, 39); transform-origin: 480.657px 320.49px;" id="ely2s8ay7qi4m" class="animable"></path><g id="elu47u3fpgtwn"><path d="M488.25,405.92c4.42-4.53,3.09-3.3,7.57-7.78,2.19-2.2,16.59-16.61,19-18.3.05,0,.13,0,.09.09-1.73,2.37-16.38,16.54-18.61,18.69-4.56,4.4-3.3,3.09-7.91,7.43C488.29,406.14,488.17,406,488.25,405.92Z" style="fill: rgb(2, 1, 0); opacity: 0.2; transform-origin: 501.572px 392.96px;" class="animable"></path></g><g id="elps0ptt5kt"><path d="M476,320.43c.4-2.6.86-5.18,1.32-7.77q1.4-7.92,3-15.8,3.17-15.62,7-31.1c2.56-10.36,5.28-20.7,8.49-30.88.39-1.25.8-2.51,1.21-3.76a.08.08,0,1,1,.15,0c-2.72,10.18-5.54,20.33-8.07,30.56s-4.83,20.42-7,30.69c-1.08,5.15-2.07,10.33-3,15.51q-.72,3.81-1.39,7.64a55.12,55.12,0,0,0-1.16,7.87,12,12,0,0,0,2.26,7c1.36,2.06,30.36,47.81,31.29,48.63.07.06,0,.16-.11.1-3.86-3.22-32.77-49.31-33.58-51.48A14,14,0,0,1,476,320.43Z" style="fill: rgb(2, 1, 0); opacity: 0.2; transform-origin: 492.919px 305.075px;" class="animable"></path></g><path d="M492.45,394.26s-6.13,36.27-6.13,36.3c.16,7.25.16,13.62-.14,16.91a.09.09,0,0,1,0,0,5.13,5.13,0,0,1-.48,2.25l0,.05c-2.13,1.51-60.07,4.45-62.13,3.87s-.57-6.48,1.59-8.39S449,432.35,449,432.35l6.48-36.26Z" style="fill: rgb(173, 99, 89); transform-origin: 457.518px 423.987px;" id="elpu4qrn1vi3g" class="animable"></path><path d="M423.52,453.69c2.05.58,60-2.36,62.12-3.87,0,0,0,0,.05-.05a4.94,4.94,0,0,0,.48-2.25.13.13,0,0,0,0-.06c.31-3.28.29-9.64.14-16.9l1.06-6.31-37.21,1.31L449,432.34s-21.68,11.05-23.86,13S421.45,453.12,423.52,453.69Z" style="fill: rgb(235, 235, 235); transform-origin: 454.953px 439.007px;" id="el0vqqsyxgww9q" class="animable"></path><path d="M423.52,453.69c2.06.58,60-2.36,62.13-3.87.82-.56.88-9,.67-19.26,0-.11,0-.22,0-.32l-37.4,1.48,0,.63s-21.67,11-23.84,12.95S421.46,453.12,423.52,453.69Z" style="fill: rgb(69, 90, 100); transform-origin: 454.475px 442.002px;" id="el8w75r6wk4og" class="animable"></path><path d="M424.06,451.41c9.76-.73,49.17-2.78,58.87-2.76.07,0,.08.05,0,.06-9.65.94-49.08,2.66-58.86,2.86C423.86,451.58,423.86,451.43,424.06,451.41Z" style="fill: rgb(38, 50, 56); transform-origin: 453.449px 450.11px;" id="elh8rv20jhzj8" class="animable"></path><path d="M445.82,432.62c3.81-.91,8.54-.56,11.61,2,.12.1,0,.27-.15.24a53.06,53.06,0,0,0-11.42-1.78A.25.25,0,0,1,445.82,432.62Z" style="fill: rgb(38, 50, 56); transform-origin: 451.582px 433.514px;" id="el0kz7pre241vn" class="animable"></path><path d="M443.13,434.43c3.81-.91,8.54-.56,11.61,2,.12.1,0,.27-.15.24a53.69,53.69,0,0,0-11.42-1.78A.25.25,0,0,1,443.13,434.43Z" style="fill: rgb(38, 50, 56); transform-origin: 448.892px 435.324px;" id="elj3hrx9ksh1" class="animable"></path><path d="M440.44,436.25c3.81-.92,8.54-.56,11.61,2,.12.1,0,.26-.15.23a54.33,54.33,0,0,0-11.42-1.78A.24.24,0,0,1,440.44,436.25Z" style="fill: rgb(38, 50, 56); transform-origin: 446.2px 437.137px;" id="el5xvdye1r1sj" class="animable"></path><path d="M469.23,226.83a140.34,140.34,0,0,1,3.54,17c1,7.14,2.08,13.45,3.07,14.21s6.65,4.14,8.51,5.19c0,0-15.08,51.76-18.84,69-5.44,24.95-18,99.67-18,99.67l40.3-1.43s9.77-71.05,14.3-94.78c3.88-20.34,19.34-81.5,19.34-81.5a35.17,35.17,0,0,0-2.44-29.06S469.22,226.8,469.23,226.83Z" style="fill: rgb(255, 199, 39); transform-origin: 485.509px 328.515px;" id="elmwqwd96tj1" class="animable"></path><g id="elug75lviy7jd"><path d="M448.73,424c6.34-.25,4.51-.27,10.85-.45,3.1-.1,23.47-.67,26.37-.25.07,0,.07.12,0,.13-2.89.54-23.27.76-26.37.79-6.33.06-4.52,0-10.85,0A.1.1,0,0,1,448.73,424Z" style="fill: rgb(2, 1, 0); opacity: 0.2; transform-origin: 467.311px 423.697px;" class="animable"></path></g><g id="elucsboyevaer"><path d="M472.91,256.11a76.2,76.2,0,0,1,11.38,7.05.13.13,0,0,1-.14.23c-3.85-2.22-7.79-4.39-11.51-6.82A.27.27,0,0,1,472.91,256.11Z" style="fill: rgb(2, 1, 0); opacity: 0.2; transform-origin: 478.448px 259.75px;" class="animable"></path></g><g id="elke4p0trea"><path d="M475,228.16c0-.13.28-.14.26,0a135.61,135.61,0,0,0-.94,13.65c-.06,2.11.24,13.86,4,13.45.62-.06,1-.62,1.21-1.53a15,15,0,0,0-.06-3.6c-.11-2.46-.15-4.93-.06-7.4a66.14,66.14,0,0,1,1.78-13.65.12.12,0,0,1,.23,0,125.9,125.9,0,0,0-1.15,19c.09,3.06,1.07,7.77-2.13,7.85s-4.43-7.73-4.57-9.85A70,70,0,0,1,475,228.16Z" style="fill: rgb(2, 1, 0); opacity: 0.2; transform-origin: 477.453px 241.995px;" class="animable"></path></g><g id="el0w49srpyioz"><path d="M478.16,255.57a17.93,17.93,0,0,1,.53,2.5,5.46,5.46,0,0,1,.11,2c0,.12-.2.11-.26,0a7,7,0,0,1-.61-2c-.19-.77-.4-1.54-.56-2.32A.41.41,0,0,1,478.16,255.57Z" style="fill: rgb(2, 1, 0); opacity: 0.2; transform-origin: 478.107px 257.734px;" class="animable"></path></g><g id="el3sufc8t2c6t"><path d="M490.11,410.9c.07-1,.16-1.94.26-2.91.19-1.85.42-3.7.63-5.55.42-3.73.91-7.44,1.41-11.15,1-7.4,2.21-14.79,3.49-22.14.73-4.16,1.6-8.27,2.52-12.39.06-.28.46-.16.42.12-.52,3.75-1,7.51-1.62,11.25s-1.21,7.46-1.79,11.19c-1.15,7.38-2.2,14.77-3.35,22.15-.32,2.09-.61,4.18-.93,6.26-.15,1-.32,2.08-.5,3.11s-.45,2.06-.58,3.1c0,.09-.15.05-.14,0C490.05,412.9,490,411.89,490.11,410.9Z" style="fill: rgb(2, 1, 0); opacity: 0.2; transform-origin: 494.386px 385.297px;" class="animable"></path></g><g id="elc2xwf8qvlo9"><path d="M461.81,347.66c1.11-6.74,2.69-13.4,4.27-20,3.2-13.35,7.05-26.53,10.9-39.71q1.65-5.7,3.32-11.39c.55-1.9,3.23-12.12,3.58-13.1a.08.08,0,0,1,.16,0c-.75,3.48-1.77,8.55-2.66,12s-1.84,6.79-2.77,10.18c-1.83,6.67-3.69,13.33-5.45,20-3.49,13.21-7,26.42-9.7,39.81-.76,3.76-1.53,7.5-2.22,11.27s-2.8,13.1-3.45,16.87a.09.09,0,0,1-.18,0C458,366.76,460.7,354.41,461.81,347.66Z" style="fill: rgb(2, 1, 0); opacity: 0.2; transform-origin: 470.825px 318.53px;" class="animable"></path></g><g id="elb5085w7qhlw"><path d="M488.09,381.75c1.77-12.83,4-25.61,6.48-38.32s5.37-25.48,8.56-38.1,6.77-25.14,10.66-37.56a155.63,155.63,0,0,0,4.85-17.87c1.12-6,1.57-12.47,0-18.43a31.37,31.37,0,0,0-1.54-4.43c0-.1.1-.19.15-.09,5.24,11.12,2.53,23.59-.77,34.85-1.8,6.17-3.75,12.3-5.53,18.48q-2.73,9.51-5.21,19.1c-3.28,12.66-6.29,25.39-8.94,38.2s-4.95,25.68-6.92,38.61-3.57,26-5.19,39c-.21,1.69-.36,3.39-.52,5.09,0,.1-.16.1-.15,0C485.09,407.41,486.32,394.57,488.09,381.75Z" style="fill: rgb(2, 1, 0); opacity: 0.2; transform-origin: 502.107px 323.631px;" class="animable"></path></g><path d="M523.55,235.73c-.14.14-57.94-2.67-58.44-3.29-.26-.33,0-10.24,4.33-21.5,7.16-18.46,20.51-42.35,24.44-47,1.36-1.58,9.45-3.4,13.87.62,9.37,8.54,13.43,33.29,14.84,41.71C525.07,221.07,524.05,235.21,523.55,235.73Z" style="fill: rgb(55, 71, 79); transform-origin: 494.614px 198.931px;" id="elexcl5b5u7ef" class="animable"></path><path d="M478,191.76l42.21,2c-.62-2.82-1.35-5.82-2.22-8.81l-35.64-1.67C480.92,186,479.44,188.83,478,191.76Z" style="fill: rgb(69, 90, 100); transform-origin: 499.105px 188.52px;" id="elkji1hqocq1s" class="animable"></path><path d="M474.83,198.39l46.76,2.18c-.17-1-.37-2-.58-3.07l-44.78-2.09C475.76,196.39,475.29,197.39,474.83,198.39Z" style="fill: rgb(69, 90, 100); transform-origin: 498.21px 197.99px;" id="elfckqmrwkpk" class="animable"></path><path d="M494,166.39c-2.4,3.64-11.2,16.31-16.52,25.63-3.56,6.25-5.59,11.7-6.37,13.08,0,0,19-2.56,22.61-1.79,5.53,1.19,10.06,17.29,7.57,18.26-3.92,1.54-22,4-35.57,3.62-7.36-.21-18.75-12.11-16.15-19,3.66-9.72,27.55-32.26,36.08-38.26C490.11,164.78,496.94,162,494,166.39Z" style="fill: rgb(173, 99, 89); transform-origin: 475.591px 194.673px;" id="elqtj6sqj2x8" class="animable"></path><path d="M448.17,208.07c-1.23,7.31,6.5,15.36,11.67,16.82,8.93,2.51,37.8.49,37.8.49l-6.15-22.62s-19.83,2.26-20.34,2.34h0c.28-.5,8.55-16.62,11.81-21.85.18-.29.37-.58.56-.9.93-1.44,2.18-3.34,3.56-5.39h0l2.35-3.48h0c3.43-5.06,6.75-9.86,6.75-9.86-3.22-.17-6.64.8-12.83,5S450.21,196,448.17,208.07Z" style="fill: rgb(55, 71, 79); transform-origin: 472.84px 194.875px;" id="eligqwcchagdc" class="animable"></path><path d="M481.05,204l6,22c-2.77.09-5.84.18-8.95.21L472.31,205Zm3.74-.43,6.08,22.24,3.11-.16-6.14-22.44C486.93,203.28,485.89,203.39,484.79,203.52Z" style="fill: rgb(69, 90, 100); transform-origin: 483.145px 214.71px;" id="elbmdhfqagd0q" class="animable"></path><path d="M491.73,219.17c-.41-1.61-.83-3.21-1.25-4.82s-.83-3.15-1.25-4.72A49.13,49.13,0,0,1,488,204.7s0,0,.06,0a38.44,38.44,0,0,1,1.56,4.57q.7,2.38,1.36,4.8c.44,1.57.84,3.15,1.23,4.73a36.51,36.51,0,0,1,1,5,.06.06,0,0,1-.12,0A45.62,45.62,0,0,1,491.73,219.17Z" style="fill: rgb(38, 50, 56); transform-origin: 490.605px 214.28px;" id="el25pykx6ey31" class="animable"></path><path d="M464.85,206.87l6.29-1.77h0c.28-.5,8.55-16.62,11.81-21.85.18-.29.37-.58.56-.9.93-1.44,2.18-3.34,3.56-5.39Z" style="fill: rgb(38, 50, 56); transform-origin: 475.96px 191.915px;" id="elxci1cemyvmc" class="animable"></path><path d="M459.64,208.34a47.3,47.3,0,0,1,5.65-2.1,28.73,28.73,0,0,1,2.9-.76c1-.22,2.11-.31,3.14-.53.08,0,.11.11,0,.12-1,.21-1.92.58-2.88.86s-2,.57-3,.84c-1.95.52-3.89,1.11-5.84,1.65C459.63,208.44,459.6,208.36,459.64,208.34Z" style="fill: rgb(38, 50, 56); transform-origin: 465.506px 206.687px;" id="eljp2cy40mm98" class="animable"></path><path d="M465.54,225.78l8,.1c2.67,0,5.35.07,8,0s5.35,0,8-.11,5.34-.23,8-.42a71.45,71.45,0,0,1-8,1c-2.68.2-5.36.25-8,.29s-5.36-.06-8-.21S468.2,226.12,465.54,225.78Z" style="fill: rgb(38, 50, 56); transform-origin: 481.54px 225.999px;" id="elb6hgcyjxvw8" class="animable"></path><path d="M464.85,206.87c1.41.33,7.62-1.32,9.2,1,6.56,9.81,7.37,7.47,8.79,8.75,10.94,9.9,28.6,19.21,34.55,20.55,9,2,14.27-4.77,14.32-12.26.1-14.81-13-46.57-20.07-55.79-3.74-4.88-4.65,1.06-4.13,7.84.3,4,1,10,1.84,15.84.71,5.23,2.67,18.65,2.69,19h0v0s0,0-.1,0c-.38-.16-10-7.51-20.13-12.61-3.58-1.8-11.17-4.9-14.27-4.25a3.8,3.8,0,0,0-2.55,1.75,5,5,0,0,0-3,.4,3.77,3.77,0,0,0-1.41,2.17,5.19,5.19,0,0,0-2.44.75c-1.14.82-.82,3-.82,3C464.58,203.3,464.85,206.87,464.85,206.87Z" style="fill: rgb(173, 99, 89); transform-origin: 498.277px 202.429px;" id="elzar6jjm9g9d" class="animable"></path><path d="M478.24,197.17a21.58,21.58,0,0,1,3.29,1.11.06.06,0,0,1,0,.12c-1.07-.36-2.18-.63-3.27-.9s-2.21-.54-3.31-.76c0,0,0,0,0,0A17.77,17.77,0,0,1,478.24,197.17Z" style="fill: rgb(38, 50, 56); transform-origin: 478.27px 197.57px;" id="elfbpat44w2j5" class="animable"></path><path d="M470.54,199.29a14.05,14.05,0,0,1,6.09.77.06.06,0,0,1,0,.12,23.78,23.78,0,0,0-6.07-.84S470.52,199.29,470.54,199.29Z" style="fill: rgb(38, 50, 56); transform-origin: 473.612px 199.704px;" id="el2sn1m0tarh3" class="animable"></path><path d="M467.37,203a13.75,13.75,0,0,1,5.88.16c.08,0,.08.14,0,.13a33.9,33.9,0,0,0-5.87-.2A0,0,0,0,1,467.37,203Z" style="fill: rgb(38, 50, 56); transform-origin: 470.34px 203.024px;" id="el4l23ceu191i" class="animable"></path><path d="M492.31,199.47A27.73,27.73,0,0,1,495,200.7c.93.46,1.85.94,2.74,1.46a56.91,56.91,0,0,1,5.14,3.45c.06,0,0,.15-.07.1-1.73-1.06-3.49-2.08-5.25-3.09-.87-.49-1.73-1-2.59-1.51s-1.82-1-2.68-1.52C492.2,199.55,492.24,199.45,492.31,199.47Z" style="fill: rgb(38, 50, 56); transform-origin: 497.571px 202.594px;" id="elg3lanmhfdz7" class="animable"></path><path d="M499.34,203.12a10.44,10.44,0,0,0-2.72-1.29l-15.37,16.55s28.56,17.87,34.78,19.91a13,13,0,0,0,16.4-9.37c2.6-11.19-9.85-42.11-16.8-54.53-3.18-5.7-7.35-10.23-8.78-9.72-1.68.6-.29,7.19.16,12,.82,8.84,4.93,35.2,4.93,35.2S501.53,204.43,499.34,203.12Z" style="fill: rgb(55, 71, 79); transform-origin: 507.016px 201.739px;" id="elirxu0b9yjz" class="animable"></path><path d="M506,207.64l.61.43c2.06,1.47,4.81,3.56,6.4,4.79l-14.52,16c-2.63-1.56-5.25-3.14-7.61-4.57Zm-21,13.07,2.63,1.6,15.28-16.81c-1-.68-1.86-1.28-2.54-1.73Z" style="fill: rgb(69, 90, 100); transform-origin: 499.005px 216.315px;" id="el8x5u7ib292g" class="animable"></path><path d="M496.72,201.83c1.72.48,8.7,4.75,12.06,7.14a65.17,65.17,0,0,1,9.32,8c1.61,1.68,3.1,3.45,4.55,5.26.05.06,0,.14-.09.08a115.19,115.19,0,0,0-18.54-16c-1.94-1.28-5.3-3.3-7.25-4.29C496.22,201.75,496.67,201.82,496.72,201.83Z" style="fill: rgb(38, 50, 56); transform-origin: 509.585px 212.073px;" id="elecuj9ih26bb" class="animable"></path><path d="M507.75,186.83c.31.87.62,1.73.85,2.62l0,.12q-.3-2.92-.52-5.86c0-.12.19-.14.21,0,1.2,7.32,2.19,14.68,3.1,22,.26,2.06.43,4.12.62,6.18a.06.06,0,0,1-.12,0c-.38-1.82-.76-3.63-1.06-5.46s-.56-3.67-.82-5.5q-.68-4.82-1.21-9.65c-.2-.59-.41-1.19-.59-1.79-.27-.87-.45-1.77-.64-2.66A.08.08,0,0,1,507.75,186.83Z" style="fill: rgb(38, 50, 56); transform-origin: 509.79px 197.781px;" id="elcw9atl2u34f" class="animable"></path><path d="M489.46,215.57q1.69-1.83,3.37-3.68c1.11-1.19,2.2-2.4,3.29-3.61a48.23,48.23,0,0,1,3.48-3.67s.06,0,0,0a37.85,37.85,0,0,1-3,3.8q-1.62,1.89-3.29,3.75t-3.3,3.6a35.66,35.66,0,0,1-3.65,3.52.06.06,0,0,1-.1-.08A45.55,45.55,0,0,1,489.46,215.57Z" style="fill: rgb(38, 50, 56); transform-origin: 492.936px 211.957px;" id="elzns3hl4s9z" class="animable"></path><path d="M480.79,218.32c1.33-1.63,3.18-3.13,4.63-4.64.06-.06.14,0,.09.09-1.33,1.43-2.61,3-3.91,4.47,3.88,2.68,8,5.23,12.06,7.71s8.27,5,12.53,7.3c2.38,1.29,4.75,2.63,7.16,3.86.15.07.08.19-.08.13a118.21,118.21,0,0,1-12.77-6.55c-4.23-2.42-8.36-5-12.46-7.64C485.74,221.57,480.68,218.46,480.79,218.32Z" style="fill: rgb(38, 50, 56); transform-origin: 497.111px 225.456px;" id="elxet119tav1m" class="animable"></path><path d="M511.47,197.15s11.23.13,16.14,2.3,12.35,9.73,14.3,15.32,2.65,55.15,2.36,56.67-4.86,6-4.9,6.71-.83,11.16-1.28,12-11.51.39-11.88-.66a13.08,13.08,0,0,1-.46-3c-.14-1.21-4.32-4.42-5.35-7.61s4.11-50.39,2.87-54.63c-2.54-8.75-11.8-12.87-11.8-12.87Z" style="fill: rgb(255, 199, 39); transform-origin: 527.901px 243.869px;" id="el7vfrc8zkhy6" class="animable"></path><g id="el705jd4eo90g"><path d="M511.47,197.15s11.23.13,16.14,2.3,12.35,9.73,14.3,15.32,2.65,55.15,2.36,56.67-4.86,6-4.9,6.71-.83,11.16-1.28,12-11.51.39-11.88-.66a13.08,13.08,0,0,1-.46-3c-.14-1.21-4.32-4.42-5.35-7.61s4.11-50.39,2.87-54.63c-2.54-8.75-11.8-12.87-11.8-12.87Z" style="fill: rgb(2, 1, 0); opacity: 0.2; transform-origin: 527.901px 243.869px;" class="animable"></path></g><g id="elf7hxrykicue"><g style="opacity: 0.1; transform-origin: 532.68px 259.063px;" class="animable"><path d="M542.52,274.16c-1.41,1.71-3.12,3.56-3.15,4-.44-5.54-.31-34.87,0-36.49C539.7,240.36,541.71,264.27,542.52,274.16Z" style="fill: rgb(2, 1, 0); transform-origin: 540.803px 259.889px;" id="elavpse90huj" class="animable"></path><path d="M525.76,286.4c-.09-.69-1.52-2.07-2.92-3.72.94-7.41,3.49-26.52,4.6-26.48C528.87,256.23,525.37,279.8,525.76,286.4Z" style="fill: rgb(2, 1, 0); transform-origin: 525.313px 271.3px;" id="el8yddn6ixfwf" class="animable"></path><path d="M541.67,231.77c-1.62,1.74-.59,13.27,0,13.17S542.53,230.85,541.67,231.77Z" style="fill: rgb(2, 1, 0); transform-origin: 541.509px 238.334px;" id="el5wgnmto3jqu" class="animable"></path></g></g><path d="M492.59,199.55a154.59,154.59,0,0,1,14.48,8.53l.21.13c2.43,1.62,3.91,2.75,4.29,2.9l.09,0h0a4,4,0,0,1,.92-.28c.81-.1,8.21.56,8.51-1.71s-2.66-2.74-3.1-2.81c.49,0,4.59-.07,3.74-2.29-.6-1.58-4.51-2.22-4.9-2.29.42,0,4.26-.43,3.46-2.69-.57-1.62-4.93-2.37-5.45-2.39.44-.07,3.75.09,2.63-2-.78-1.42-9.17-2-13.18-.95C498.33,195.23,492.59,199.55,492.59,199.55Z" style="fill: rgb(173, 99, 89); transform-origin: 507.218px 202.136px;" id="el64al23mksu" class="animable"></path><path d="M507.07,208.08l.21.13a26.51,26.51,0,0,1,10.54-1.85c.23,0,.28-.11,0-.15A18.21,18.21,0,0,0,507.07,208.08Z" style="fill: rgb(38, 50, 56); transform-origin: 512.541px 207.131px;" id="elpixqkw0xtjq" class="animable"></path><path d="M516.62,201.8c-5.34-.09-7.9.54-12.92,2.38-.07,0-.12-.08-.05-.11,4.78-2.18,7.66-3.15,13-2.41C516.84,201.7,516.86,201.81,516.62,201.8Z" style="fill: rgb(38, 50, 56); transform-origin: 510.206px 202.797px;" id="elvupxagotoc" class="animable"></path><path d="M514.66,196.68c-5.2.24-8,.81-12.69,3.15a.09.09,0,1,1-.09-.15,18.88,18.88,0,0,1,12.76-3.15C515,196.56,515,196.66,514.66,196.68Z" style="fill: rgb(38, 50, 56); transform-origin: 508.365px 198.132px;" id="elgi5fwx5ra08" class="animable"></path><path d="M493,174.85c3.39,1.25,10.84-3.72,13.72-7.76.2-.27.12-3.45.2-7.32.07-2.34.19-5,.47-7.33l-15.32,1.84a38,38,0,0,1,.35,9.28,5.21,5.21,0,0,1-.22,1s0,.1,0,.16C491.63,166.5,489.72,173.65,493,174.85Z" style="fill: rgb(173, 99, 89); transform-origin: 499.259px 163.743px;" id="el564f78ghvwn" class="animable"></path><path d="M492.2,164.53a1.55,1.55,0,0,0,0,.15,9.19,9.19,0,0,0,1.52.27c8.64.84,11.93-9.46,12.68-12.38l-3.83.46-10.46,1.25a37.73,37.73,0,0,1,.34,9.28A4.75,4.75,0,0,1,492.2,164.53Z" style="fill: rgb(38, 50, 56); transform-origin: 499.255px 158.784px;" id="elg3m82k7prkl" class="animable"></path><path d="M510.26,135.27c1,5.59-3.72,20.81-8,23.82-6.17,4.37-15.32,3.75-18.8-3.44-3.36-7,3.14-26.71,7.8-29.35C498.16,122.41,508.79,127,510.26,135.27Z" style="fill: rgb(173, 99, 89); transform-origin: 496.464px 143.369px;" id="elhoq5pq2tls8" class="animable"></path><path d="M493.8,143.19s.07.07.05.11c-.34,1-.57,2.24.26,2.87a0,0,0,1,1,0,.05C493,145.72,493.31,144.1,493.8,143.19Z" style="fill: rgb(38, 50, 56); transform-origin: 493.732px 144.705px;" id="el0fl9lvnd7g9i" class="animable"></path><path d="M495.05,142.39c1.69.38.81,3.73-.76,3.38S493.63,142.08,495.05,142.39Z" style="fill: rgb(38, 50, 56); transform-origin: 494.716px 144.083px;" id="elvfkqkzg6mpf" class="animable"></path><path d="M488.05,141.58s-.09,0-.1.07c-.24,1-.69,2.2-1.72,2.3,0,0,0,.06,0,.06C487.41,144.15,488,142.61,488.05,141.58Z" style="fill: rgb(38, 50, 56); transform-origin: 487.14px 142.799px;" id="elf6uywd9oezq" class="animable"></path><path d="M487.41,140.25c-1.64-.57-2.65,2.75-1.13,3.27S488.78,140.72,487.41,140.25Z" style="fill: rgb(38, 50, 56); transform-origin: 486.798px 141.88px;" id="eloq271s7ruek" class="animable"></path><path d="M496.77,141.21c-.42-.24-.78-.52-1.18-.8s-.83-.51-1-1a.73.73,0,0,1,.34-.83,1.81,1.81,0,0,1,1.82.28,2.64,2.64,0,0,1,1.19,1.51A.78.78,0,0,1,496.77,141.21Z" style="fill: rgb(38, 50, 56); transform-origin: 496.262px 139.888px;" id="el1xqgalg2f69" class="animable"></path><path d="M486.56,138.22a11.21,11.21,0,0,0,1.42,0,2.26,2.26,0,0,0,1.45-.27.72.72,0,0,0,.19-.87,1.82,1.82,0,0,0-1.66-.79,2.65,2.65,0,0,0-1.84.57A.78.78,0,0,0,486.56,138.22Z" style="fill: rgb(38, 50, 56); transform-origin: 487.775px 137.264px;" id="elh15vndjo9ke" class="animable"></path><path d="M492.55,152.93c-.31.18-.65.45-1,.38a2.86,2.86,0,0,1-1-.55s-.07,0-.06,0a1.45,1.45,0,0,0,1.17.91,1.16,1.16,0,0,0,1.06-.71C492.67,153,492.6,152.9,492.55,152.93Z" style="fill: rgb(38, 50, 56); transform-origin: 491.605px 153.215px;" id="el9c6f1l5o3nn" class="animable"></path><path d="M492.28,149.53a3.68,3.68,0,0,1-2.78,1,4.73,4.73,0,0,1-1.28-.28.85.85,0,0,1-.24-.09l-.22-.09a.3.3,0,0,1-.15-.29h0l0-.1h0l0-.09c.19-.81.59-2,.59-2-.33.07-2,.35-1.87-.07a55.32,55.32,0,0,1,4.19-10.34c.05-.11.22,0,.18.08-.94,3.31-2.46,6.44-3.46,9.75a7,7,0,0,1,1.8-.07c.11.07-.81,2.3-.86,2.67a0,0,0,0,0,0,0,5.09,5.09,0,0,0,4-.18C492.3,149.38,492.36,149.47,492.28,149.53Z" style="fill: rgb(38, 50, 56); transform-origin: 489.32px 143.836px;" id="el7jh4fo5aly6" class="animable"></path><path d="M488.71,150.17a4.24,4.24,0,0,0,1.42,1.62,1.9,1.9,0,0,0,1.13.29c.87-.06,1-.81,1-1.49a4.44,4.44,0,0,0-.18-1.06A5.44,5.44,0,0,1,488.71,150.17Z" style="fill: rgb(38, 50, 56); transform-origin: 490.485px 150.807px;" id="elvspi64aaaqo" class="animable"></path><path d="M490.13,151.79a1.9,1.9,0,0,0,1.13.29c.87-.06,1-.81,1-1.49A2,2,0,0,0,490.13,151.79Z" style="fill: rgb(255, 152, 185); transform-origin: 491.195px 151.326px;" id="el78j6t2e1ahp" class="animable"></path><path d="M508.38,149.49c.65-1.34,7.08-15.86,7-17.59-.09-1.57-1.85-1.26-1.86-1.35s.19-1.47-.57-2.14a2.34,2.34,0,0,0-1.84-.31s0-1.49-.84-2a1.88,1.88,0,0,0-1.85,0,2.46,2.46,0,0,0-1.14-2,1.6,1.6,0,0,0-1.88.35s-.13-1.46-1-1.9-1.91.43-1.91.43-.3-1.35-1.45-1.58a1.86,1.86,0,0,0-1.83,1s-.46-1.34-1.54-1.57-1.7,1-1.7,1-.22-1.28-1.25-1.39-1.54,1.27-1.54,1.27-.33-1.43-1.6-1.26c-1.95.26-3.8,9-4.92,12.78,0,0,.85-1.74,1.64-1.66s1.16,1.42,2.55,2c2,.84,5.9-1,8.65.18s4.2,4.4,4.4,9C504.08,147.86,506.83,152.66,508.38,149.49Z" style="fill: rgb(38, 50, 56); transform-origin: 501.02px 135.47px;" id="elztk7fbpogp8" class="animable"></path><path d="M490.81,144a4.65,4.65,0,0,0,2.82,4.81,4.19,4.19,0,0,0,1.12.32,4.66,4.66,0,1,0-3.6-6.42A4.56,4.56,0,0,0,490.81,144Zm.91-1a4,4,0,0,1,4.32-2.42,3.8,3.8,0,0,1,1,.27,4,4,0,1,1-5.29,2.15Z" style="fill: rgb(255, 199, 39); transform-origin: 495.442px 144.522px;" id="elltyjq6f89a" class="animable"></path><path d="M493.87,148.28a4,4,0,1,0,3.14-7.44,3.8,3.8,0,0,0-1-.27,4,4,0,0,0-2.17,7.71Z" style="fill: rgb(38, 50, 56); transform-origin: 495.205px 144.511px;" id="elw7zihhnjan" class="animable"></path><path d="M484.14,146.23a1.59,1.59,0,0,0,.3.06c1.77.27,3.64-1.3,4.28-3.64a5.6,5.6,0,0,0-.09-3.4,3.14,3.14,0,0,0-2-2,3.06,3.06,0,0,0-2.76.7,5.45,5.45,0,0,0-1.81,2.89C481.34,143.3,482.29,145.72,484.14,146.23ZM482.62,141a5,5,0,0,1,1.61-2.57,2.59,2.59,0,0,1,2-.64,1.16,1.16,0,0,1,.22.06,2.48,2.48,0,0,1,1.62,1.63,5,5,0,0,1,.07,3c-.58,2.15-2.3,3.56-3.82,3.15S482,143.13,482.62,141Z" style="fill: rgb(255, 199, 39); transform-origin: 485.38px 141.743px;" id="elieuowodu5q8" class="animable"></path><path d="M484.3,145.63c1.52.41,3.24-1,3.82-3.15a5,5,0,0,0-.07-3,2.48,2.48,0,0,0-1.62-1.63,1.16,1.16,0,0,0-.22-.06,2.59,2.59,0,0,0-2,.64,5,5,0,0,0-1.61,2.57C482,143.13,482.79,145.22,484.3,145.63Z" style="fill: rgb(38, 50, 56); transform-origin: 485.358px 141.738px;" id="elxcigxkm967c" class="animable"></path><path d="M491.16,143.31l.51-.36c-.53-.76-1.89-2-3.31-1.08l.32.53C490,141.61,491.11,143.24,491.16,143.31Z" style="fill: rgb(255, 199, 39); transform-origin: 490.015px 142.427px;" id="elnu993d8ikzj" class="animable"></path><path d="M510.87,150l.61-.13c-.06-.29-.63-2.8-1.91-3.38s-9.46-2-9.81-2.06l-.11.62c2.37.41,8.74,1.58,9.66,2S510.73,149.26,510.87,150Z" style="fill: rgb(255, 199, 39); transform-origin: 505.565px 147.215px;" id="elp29kgkd1b2s" class="animable"></path><path d="M504.93,147.5s4.22-4.52,6.32-2.95-1.56,8.48-4.38,9.1a2.75,2.75,0,0,1-3.44-2Z" style="fill: rgb(173, 99, 89); transform-origin: 507.651px 148.989px;" id="elb1putm494a" class="animable"></path><path d="M510.15,146.5a0,0,0,0,1,0,.08c-2,.49-3.22,2.09-4.16,3.8a1.51,1.51,0,0,1,2.3-.1.06.06,0,0,1-.06.1,1.69,1.69,0,0,0-1.93.32,8,8,0,0,0-1.09,1.37c-.11.15-.4,0-.31-.16l0,0C505.22,149.47,507.55,146.38,510.15,146.5Z" style="fill: rgb(38, 50, 56); transform-origin: 507.516px 149.314px;" id="elyknmk1mnynk" class="animable"></path></g><g id="freepik--character-1--inject-59" class="animable" style="transform-origin: 180.499px 283.187px;"><path d="M238.63,450.91c-2.18.69-64.15-.45-66.48-2-.9-.57-1.26-9.61-1.38-20.55,0-.11-.81-40.39-.81-40.39l39.66.62L210.73,429s23.52,11.05,25.91,13S240.8,450.23,238.63,450.91Z" style="fill: rgb(211, 118, 106); transform-origin: 204.786px 419.543px;" id="el9tk77j2p65l" class="animable"></path><path d="M170.52,415.78c.14,7,.25,12.55.25,12.6.12,10.93.49,20,1.37,20.54,2.34,1.54,64.31,2.68,66.48,2s.38-6.93-2-8.89-25.91-13-25.91-13l-.35-13Z" style="fill: rgb(219, 219, 219); transform-origin: 205.059px 433.451px;" id="eltp2us47b21i" class="animable"></path><path d="M220.1,433.28c-.16,0-.25-.09-.26-.14Z" style="fill: rgb(255, 199, 39); transform-origin: 219.97px 433.21px;" id="elm064cfx9qpk" class="animable"></path><path d="M238.76,450.86c-1.42.45-27.79.23-47-.39-4.44-.15-8.5-.32-11.77-.5-4.52-.26-7.55-.55-8-.87-1.08-.71-1.44-14-1.52-27.93l40.5.48-.3,7.3s23.67,11,26.07,13S240.94,450.16,238.76,450.86Z" style="fill: rgb(255, 199, 39); transform-origin: 205.105px 436.134px;" id="elp793r5tsmc" class="animable"></path><path d="M237.9,448.36c-10.43-.41-52.53-1.08-62.88-.69-.08,0-.08.06,0,.06,10.33.64,52.44,1,62.88.8C238.12,448.53,238.12,448.37,237.9,448.36Z" style="fill: rgb(38, 50, 56); transform-origin: 206.512px 448.069px;" id="elcffpx9hx0ir" class="animable"></path><path d="M212.16,426.66c-4.1-.83-9.13-.27-12.31,2.61-.12.11,0,.28.17.24a58,58,0,0,1,12.11-2.33A.26.26,0,0,0,212.16,426.66Z" style="fill: rgb(38, 50, 56); transform-origin: 206.102px 427.913px;" id="el2pqinp1y5fq" class="animable"></path><path d="M215.1,428.49c-4.1-.83-9.13-.27-12.31,2.61-.12.11,0,.28.17.24A57.35,57.35,0,0,1,215.07,429,.26.26,0,0,0,215.1,428.49Z" style="fill: rgb(38, 50, 56); transform-origin: 209.019px 429.743px;" id="el2yov85lcwpi" class="animable"></path><path d="M218,430.32c-4.09-.83-9.12-.27-12.3,2.61-.13.11,0,.28.17.24A57.23,57.23,0,0,1,218,430.84.26.26,0,0,0,218,430.32Z" style="fill: rgb(38, 50, 56); transform-origin: 211.952px 431.573px;" id="elhp4q7jgzdbg" class="animable"></path><path d="M221,432.15c-4.09-.83-9.12-.27-12.31,2.61-.12.11,0,.28.18.24A57.11,57.11,0,0,1,221,432.67.26.26,0,0,0,221,432.15Z" style="fill: rgb(38, 50, 56); transform-origin: 214.951px 433.403px;" id="elgvmpejufhdk" class="animable"></path><path d="M158.22,209.39s9.54,105,11,113c.34,1.83.39,102.68.39,102.68l42.31-.42s-3.65-86.77-5.5-102.75-10.39-112.33-10.39-112.33Z" style="fill: rgb(38, 50, 56); transform-origin: 185.07px 317.23px;" id="eladtxhz7ecve" class="animable"></path><path d="M171,416.28a30.38,30.38,0,0,1,3.82-.26c1.27,0,2.54-.11,3.82-.15,2.5-.09,5-.19,7.51-.26,5.1-.15,10.2-.29,15.29-.45,2.87-.09,5.75-.08,8.62,0a.09.09,0,0,1,0,.17c-10.14,1-20.39,1.13-30.58,1.33l-4.37.05a31.76,31.76,0,0,1-4.14-.09C170.76,416.56,170.82,416.3,171,416.28Z" style="fill: rgb(55, 71, 79); transform-origin: 190.479px 415.918px;" id="elrlhu0g9apc" class="animable"></path><path d="M163.91,214.05c3,25.61,5.9,51.22,8.31,76.89,1.2,12.73,2.32,25.48,3.05,38.25s1,25.75,1.08,38.63c.12,14.57.39,29.15.08,43.71a.11.11,0,0,1-.22,0c-1.13-25.75-.63-51.55-1.85-77.3s-3.89-51.42-6.58-77.07c-1.51-14.35-2.92-28.71-4.33-43.07C163.43,213.84,163.88,213.79,163.91,214.05Z" style="fill: rgb(55, 71, 79); transform-origin: 170.012px 312.759px;" id="eljwtp04n29s" class="animable"></path><path d="M151.39,455.29c-2.28.17-62.28-15.39-64.18-17.43-.74-.77,1-9.64,3.45-20.3l.08-.34c.49-2.2,13.35-39.11,13.35-39.11L143,388.36l-13.46,38.47-.19.65s20.3,16.23,22.16,18.7S153.67,455.14,151.39,455.29Z" style="fill: rgb(211, 118, 106); transform-origin: 120.021px 416.701px;" id="elwqv7ic5txja" class="animable"></path><path d="M87.21,437.85c1.9,2,61.9,17.61,64.17,17.44s2-6.65.15-9.12-22.16-18.69-22.16-18.69l.19-.65,3.95-11.29c-7.56-2.48-27-7.44-38.77-10.38-2.12,6.24-3.83,11.29-4,12.06,0,.12-.06.23-.08.34C88.23,428.21,86.47,437.09,87.21,437.85Z" style="fill: rgb(219, 219, 219); transform-origin: 120.02px 430.226px;" id="el0myon502fki" class="animable"></path><path d="M151.48,455.57c-1.49.09-27-6.48-45.5-11.72-4.27-1.22-8.17-2.36-11.3-3.33-4.32-1.34-7.19-2.35-7.59-2.77-.88-1,2-13.9,5.26-27.48l39.18,10.24-2,7s20.31,16.4,22.17,18.89S153.76,455.41,151.48,455.57Z" style="fill: rgb(255, 199, 39); transform-origin: 120.036px 432.92px;" id="elnarob5n2rmr" class="animable"></path><path d="M151.25,452.94c-10-2.92-50.72-13.73-60.85-15.85-.09,0-.1,0,0,.06,9.87,3.11,50.66,13.59,60.82,16C151.42,453.15,151.46,453,151.25,452.94Z" style="fill: rgb(38, 50, 56); transform-origin: 120.859px 445.12px;" id="elyvc082w5m5s" class="animable"></path><path d="M131.5,425.66c-3.77-1.79-8.79-2.46-12.57-.44-.14.08,0,.29.11.28a57.8,57.8,0,0,1,12.32.66A.26.26,0,0,0,131.5,425.66Z" style="fill: rgb(38, 50, 56); transform-origin: 125.274px 425.074px;" id="eltnhe9r5x4b" class="animable"></path><path d="M133.91,428.15c-3.77-1.8-8.79-2.47-12.57-.44-.15.08,0,.28.11.28a57.67,57.67,0,0,1,12.31.65A.26.26,0,0,0,133.91,428.15Z" style="fill: rgb(38, 50, 56); transform-origin: 127.665px 427.553px;" id="el3q6cs22re79" class="animable"></path><path d="M136.32,430.63c-3.77-1.79-8.79-2.46-12.57-.44-.15.08,0,.29.11.28a57.67,57.67,0,0,1,12.31.66A.26.26,0,0,0,136.32,430.63Z" style="fill: rgb(38, 50, 56); transform-origin: 130.096px 430.046px;" id="ele8322bq9te" class="animable"></path><path d="M138.73,433.11c-3.77-1.79-8.79-2.46-12.57-.43-.15.07,0,.28.11.27a58.33,58.33,0,0,1,12.31.66A.26.26,0,0,0,138.73,433.11Z" style="fill: rgb(38, 50, 56); transform-origin: 132.506px 432.527px;" id="elqie1m0n8pgg" class="animable"></path><path d="M133.33,423.83l-42.8-10.56s32.53-83.33,34.37-88.92c1.34-4.06,12.24-53.66,16.09-75.34,0,0-5.5-15.86,7.14-39.71l47.92.26s-1.25,22.75-7.08,37.15a67.44,67.44,0,0,0-11.18,5s-14.14,77.59-16.44,84.66C156.39,351.69,133.33,423.83,133.33,423.83Z" style="fill: rgb(38, 50, 56); transform-origin: 143.29px 316.565px;" id="el8rbe3690o9p" class="animable"></path><path d="M169.94,293.27q2.67-13.71,5.3-27.43c.49-2.58,1-5.14,1.6-7.71s1-5.17,1.77-7.67a.15.15,0,0,1,.3,0c-.15,2.34-.59,4.66-.92,7s-.67,4.51-1.06,6.75c-.81,4.61-1.7,9.2-2.59,13.79-1.8,9.17-3.59,18.36-5.77,27.44-1.23,5.11-2.38,10.25-3.67,15.34,0,.11-.19.06-.17-.05C166.38,311.58,168.16,302.42,169.94,293.27Z" style="fill: rgb(55, 71, 79); transform-origin: 171.819px 285.576px;" id="elhqizy9foj2t" class="animable"></path><path d="M180.32,240.34c-.64-1.6-.11-3.44.19-5.06.38-2.06.75-4.11,1.14-6.17.88-4.63,1.85-9.25,2.87-13.86,0-.05.09,0,.09,0q-.72,5.53-1.55,11.05c-.56,3.69-1.29,7.37-1.76,11.08-.16,1.2-.07,3.56,1.67,3.58,1.46,0,2.36-2.17,2.84-3.25,1.42-3.21,2-6.75,2.74-10.15.87-4.08,1.58-8.19,2.32-12.29,0-.14.25-.1.24,0a121,121,0,0,1-1.5,12.15c-.65,3.84-1.27,7.87-2.91,11.43-.61,1.33-1.47,3-3,3.39a2.22,2.22,0,0,1-.67.07,34.7,34.7,0,0,1-.6,3.65,24.42,24.42,0,0,1-1,3.73.14.14,0,0,1-.28-.05h0a26.34,26.34,0,0,1,.58-3.75,34.58,34.58,0,0,1,.93-3.6A3.14,3.14,0,0,1,180.32,240.34Z" style="fill: rgb(55, 71, 79); transform-origin: 185.564px 232.493px;" id="elelpjh47pbxk" class="animable"></path><path d="M172.22,252.27a38.14,38.14,0,0,1,7.62-2.48,52.17,52.17,0,0,1,7.66-1c.09,0,.11.16,0,.17-2.57.39-12.71,2.82-15.25,3.44C172.2,252.41,172.16,252.3,172.22,252.27Z" style="fill: rgb(55, 71, 79); transform-origin: 179.883px 250.595px;" id="elwns2uyckx9" class="animable"></path><path d="M109,383q3.48-9.12,7-18.23c4.63-12.05,9.38-24.05,14-36.11,4.55-11.91,6.53-24.59,9.05-37.06q1.92-9.52,3.84-19.06c1.28-6.3,2.82-12.6,3.59-19,.75-6.24-.15-12.5.43-18.74a47,47,0,0,1,4.49-16.06c.62-1.28,1.31-2.52,2.05-3.73.08-.14.29,0,.21.14a49.9,49.9,0,0,0-6.13,25.52c.06,3.16.27,6.31.1,9.46-.33,6.31-1.83,12.51-3.07,18.67s-2.55,12.59-3.82,18.88-2.58,12.71-3.86,19.06a144.1,144.1,0,0,1-4.56,18.34c-2,6-4.43,11.88-6.71,17.79q-3.51,9.11-7,18.21c-4.7,12.08-9.31,24.21-14.21,36.2-.58,1.4-1.16,2.78-1.78,4.16-.08.18-.37,0-.31-.15C104.27,395.09,106.7,389,109,383Z" style="fill: rgb(55, 71, 79); transform-origin: 127.99px 308.234px;" id="el0br9watw4ye9" class="animable"></path><path d="M95.49,404.33a29.65,29.65,0,0,1,3.73.86c1.24.32,2.47.63,3.7,1,2.42.65,4.85,1.28,7.26,1.94l14.77,4c2.78.74,5.52,1.59,8.25,2.46a.09.09,0,0,1,0,.17c-10-2-19.84-4.84-29.64-7.62-1.41-.39-2.81-.8-4.2-1.22a31.24,31.24,0,0,1-3.94-1.28C95.2,404.53,95.34,404.31,95.49,404.33Z" style="fill: rgb(55, 71, 79); transform-origin: 114.283px 409.544px;" id="el70uh5xlexsp" class="animable"></path><path d="M192.12,171.2c13.16,22.49,23.94,35,30.6,34.48,7.33-.53,25.41-20.45,34.31-31.11,1.24-1.48-18.36-16.31-19.9-14.77-6.07,6.09-15.44,19.86-17.88,20.81-1.58.62-7.34-5.32-19.15-14.51C189.56,157.89,186.26,161.18,192.12,171.2Z" style="fill: rgb(211, 118, 106); transform-origin: 223.164px 182.692px;" id="eli7q6u1qq9u" class="animable"></path><path d="M256.06,175.61c2.31-2,10.29-10.26,13.93-17.45,1.76-3.48,5.78-14,3.21-15.58s-4,1.41-4,1.41,1-4.7-1.7-6-4.83,3.37-4.83,3.37.7-4.91-2.11-6-4.14,3.95-4.14,3.95.85-4.46-1.86-4.42c-3.27,0-3.91,8.45-6.06,12.21-.49.85-11.11,16.57-11.11,16.57Z" style="fill: rgb(211, 118, 106); transform-origin: 255.713px 155.25px;" id="elr53j52bs4eo" class="animable"></path><path d="M256.33,139.27c-.49,6.18-1.77,8.8-5.42,13.69-.07.09.05.22.14.13,4-4.46,6.09-7.51,5.58-13.81C256.61,139,256.35,139,256.33,139.27Z" style="fill: rgb(38, 50, 56); transform-origin: 253.797px 146.095px;" id="elrs74is48g9" class="animable"></path><path d="M262.75,141.08c-1.07,6.37-2.43,9.23-5.88,14.62-.05.08.07.17.13.1,3.83-5,5.83-8.11,6.06-14.61C263.07,140.89,262.8,140.79,262.75,141.08Z" style="fill: rgb(38, 50, 56); transform-origin: 259.959px 148.366px;" id="el04tjg6x42vfb" class="animable"></path><path d="M269.07,144.51c-1.48,6.1-2.84,9.29-6.87,14.1-.09.11.07.26.17.16,4.58-4.51,6.31-8.48,6.88-14.19C269.29,144.19,269.16,144.13,269.07,144.51Z" style="fill: rgb(38, 50, 56); transform-origin: 265.715px 151.529px;" id="elkey3rc0gliq" class="animable"></path><path d="M237.75,163.63s-1.39-7.64-1.26-11.13,5.4-16.32,8.24-15.34c3.66,1.26,2.07,9.27.79,13.09,0,0,8.47,2.92,8.58,8.92S237.75,163.63,237.75,163.63Z" style="fill: rgb(211, 118, 106); transform-origin: 245.291px 150.457px;" id="elhsxz2m21o8l" class="animable"></path><path d="M245.62,137.84c2.5,3.56.49,8.47-.48,12.27a.35.35,0,0,0,.36.46c3.47,1.46,7.94,4.53,8.77,8.42a.09.09,0,0,0,.18,0c-.32-4.29-4.47-7.67-8.37-9,1.06-3.88,2.86-8.89-.43-12.13C245.63,137.79,245.6,137.81,245.62,137.84Z" style="fill: rgb(38, 50, 56); transform-origin: 249.786px 148.446px;" id="elgd5j3r8628" class="animable"></path><path d="M227,170.25l21.32,18.09S228,207.88,220.85,206.11s-20.69-19.76-28.95-33.81.19-13.09,7.57-7.38,17.6,16.05,19.16,15.58S227,170.25,227,170.25Z" style="fill: rgb(55, 71, 79); transform-origin: 218.408px 183.611px;" id="eltvanyqn7ot8" class="animable"></path><polygon points="224.68 171.81 246.02 191.92 250.53 187.5 227.85 166.63 224.68 171.81" style="fill: rgb(69, 90, 100); transform-origin: 237.605px 179.275px;" id="el8653h48drkm" class="animable"></polygon><path d="M230,203c-3.64,2.23-7,3.64-9.14,3.1-7.1-1.77-20.68-19.75-28.95-33.8-4.36-7.4-4.07-10.64-1.74-11.2C196.12,167.36,220.41,192.81,230,203Z" style="fill: rgb(38, 50, 56); transform-origin: 209.251px 183.658px;" id="el8s5swk0ohz4" class="animable"></path><path d="M199.46,220.94,148.13,209.3s19.66-37.84,34.07-47.45c6.55-4.37,11.47-2.32,15,2.3.87,1.16,10.31,21.35,10.05,27.55-.22,5.49-5.86,10.32-5.86,10.32Z" style="fill: rgb(255, 199, 39); transform-origin: 177.693px 190.189px;" id="elt0kn1ghjjaf" class="animable"></path><path d="M194.07,197.27a49.24,49.24,0,0,0-7.08-.15c-1.18.08-2.34.21-3.5.37-.58.08-1.16.14-1.75.19a7.47,7.47,0,0,1-1.83,0s-.06.07,0,.08a13.87,13.87,0,0,0,1.71.29,13.45,13.45,0,0,0,1.68,0c1.19-.07,2.38-.19,3.57-.27,2.4-.16,4.79-.32,7.2-.31C194.17,197.47,194.18,197.28,194.07,197.27Z" style="fill: rgb(38, 50, 56); transform-origin: 187.016px 197.566px;" id="elx7h834cxxso" class="animable"></path><path d="M199.41,200.39a53.42,53.42,0,0,0-5.69-1.35c-1-.16-1.93-.27-2.9-.36l-1.4-.1c-.51,0-1,0-1.53,0-.06,0-.07.08,0,.09.48.05,1,.18,1.43.25l1.44.23,2.88.47c1.93.29,3.84.6,5.76,1C199.48,200.57,199.5,200.42,199.41,200.39Z" style="fill: rgb(38, 50, 56); transform-origin: 193.655px 199.6px;" id="eldnjfr0p4o5" class="animable"></path><path d="M196,162.76c4.17,9.55,5.76,26.19,5.62,29.84-.2,5.26-7.6,43.54-7.6,43.54l7.64-5,.45-28.87a16.44,16.44,0,0,0,5.57-12c0-3.5-4.06-13-7.37-20S196,162.76,196,162.76Z" style="fill: rgb(55, 71, 79); transform-origin: 200.85px 199.45px;" id="elrdd6st1oj8m" class="animable"></path><path d="M187.64,159.25s-.32,22.81-1.26,29.39-11.09,42.93-11.09,42.93l-33.91-15.79s21.81-35.07,30.45-45.75S187.64,159.25,187.64,159.25Z" style="fill: rgb(55, 71, 79); transform-origin: 164.51px 195.41px;" id="el0vj5mcet2ky" class="animable"></path><path d="M187.76,163.11c0,1,3.11,8.56,7.65,9.46,1.48.28,3.41-7.72,3.41-7.72l.28-.56,3.89-7.81-8.19-8.63-1.2-1.17s-.92,2.21-2,5l-.16.4c-.07.15-.13.3-.19.44-.17.41-.35.83-.51,1.25s-.25.64-.37,1l-.38,1A54.87,54.87,0,0,0,187.76,163.11Z" style="fill: rgb(211, 118, 106); transform-origin: 195.375px 159.629px;" id="el34zoxe17t7w" class="animable"></path><path d="M191.56,151.65a17.49,17.49,0,0,0,7.54,12.64l3.89-7.81-8.19-8.63-1.2-1.17S192.68,148.89,191.56,151.65Z" style="fill: rgb(38, 50, 56); transform-origin: 197.275px 155.485px;" id="el7scvu5j5v3" class="animable"></path><path d="M216.85,143.62c1.35,15.26-7.64,17.79-10.93,18.07-3,.27-13.19.77-16.11-14.26s3.75-20.49,10.55-21.45S215.5,128.36,216.85,143.62Z" style="fill: rgb(211, 118, 106); transform-origin: 203.046px 143.801px;" id="elsr7idnhjx2" class="animable"></path><path d="M214.46,141.17a9,9,0,0,1-1-.14,1.72,1.72,0,0,1-1-.36.54.54,0,0,1,0-.66,1.36,1.36,0,0,1,1.31-.41,2,2,0,0,1,1.29.62A.58.58,0,0,1,214.46,141.17Z" style="fill: rgb(38, 50, 56); transform-origin: 213.783px 140.382px;" id="elcfti54t0jkg" class="animable"></path><path d="M204,141.84c.36-.07.67-.19,1-.29a1.7,1.7,0,0,0,1-.49.54.54,0,0,0,0-.66,1.34,1.34,0,0,0-1.35-.23,2,2,0,0,0-1.2.78A.59.59,0,0,0,204,141.84Z" style="fill: rgb(38, 50, 56); transform-origin: 204.74px 140.961px;" id="elxu668nv0me" class="animable"></path><path d="M206.65,145.43s-.08,0-.07.1c.12,1,.09,2.24-.81,2.67a0,0,0,0,0,0,.06C206.91,148,206.94,146.39,206.65,145.43Z" style="fill: rgb(38, 50, 56); transform-origin: 206.287px 146.845px;" id="elaf1bs1tx7xt" class="animable"></path><path d="M205.63,144.42c-1.69,0-1.52,3.39,0,3.37S207,144.41,205.63,144.42Z" style="fill: rgb(38, 50, 56); transform-origin: 205.57px 146.105px;" id="elqa8ljln2d7o" class="animable"></path><path d="M205,144.64c-.28.2-.55.55-.9.6s-.74-.27-1-.6c0,0-.06,0-.06.05,0,.64.31,1.29,1,1.35s1.06-.54,1.19-1.19C205.2,144.73,205.09,144.55,205,144.64Z" style="fill: rgb(38, 50, 56); transform-origin: 204.135px 145.33px;" id="elueyys60veka" class="animable"></path><path d="M207,154c.25.25.5.58.88.61a2.71,2.71,0,0,0,1.12-.27s.07,0,0,.06a1.41,1.41,0,0,1-1.32.57,1.11,1.11,0,0,1-.83-.92C206.85,154,206.93,154,207,154Z" style="fill: rgb(38, 50, 56); transform-origin: 207.941px 154.491px;" id="elyq6ycwxbaw" class="animable"></path><path d="M210.88,152a4.17,4.17,0,0,1-1.52,1.52,1.88,1.88,0,0,1-1.15.22c-.86-.11-1-.88-.9-1.55a4.09,4.09,0,0,1,.25-1.05A5.46,5.46,0,0,0,210.88,152Z" style="fill: rgb(38, 50, 56); transform-origin: 209.081px 152.448px;" id="eljzbl6fp18i" class="animable"></path><path d="M209.36,153.55a1.88,1.88,0,0,1-1.15.22c-.86-.11-1-.88-.9-1.55A2,2,0,0,1,209.36,153.55Z" style="fill: rgb(255, 152, 185); transform-origin: 208.321px 152.999px;" id="elaqc9rlidhx" class="animable"></path><path d="M211.08,150s.31,1.54.36,2.27c0,.07-.17.12-.42.15h0a3.5,3.5,0,0,1-3.47-1.09.08.08,0,0,1,.1-.11,5.25,5.25,0,0,0,3.25.71c0-.2-.63-2.62-.51-2.63a6.37,6.37,0,0,1,1.69.27c-.56-3.23-1.63-6.34-2.13-9.57a.1.1,0,0,1,.19-.06,53.31,53.31,0,0,1,2.73,10.21C212.92,150.51,211.38,150.06,211.08,150Z" style="fill: rgb(38, 50, 56); transform-origin: 210.207px 146.2px;" id="eldjzd0vdltaj" class="animable"></path><path d="M215.57,144.4a3.3,3.3,0,0,0-.83,0,3,3,0,0,0-.83.2,2.43,2.43,0,0,0-.75.49,2,2,0,0,0-.48.79l-.18.53.54-.15a5.2,5.2,0,0,1,1.19-.21,2.5,2.5,0,0,1,1.22.19,1.87,1.87,0,0,0-1.2-.64,3.6,3.6,0,0,0-1.38.09l.37.38a2,2,0,0,1,.89-1A6.5,6.5,0,0,1,215.57,144.4Z" style="fill: rgb(38, 50, 56); transform-origin: 214.035px 145.392px;" id="el1gnveq86cuqh" class="animable"></path><path d="M214.37,146.89a4.6,4.6,0,0,1-1.28-.24c-.1,0-.48-.23-.48-.3a3.18,3.18,0,0,1,.11-.64,1.75,1.75,0,0,0-.24.65.9.9,0,0,0,.54.48A2.6,2.6,0,0,0,214.37,146.89Z" style="fill: rgb(38, 50, 56); transform-origin: 213.425px 146.333px;" id="el1fsvlg8b0iu" class="animable"></path><path d="M190.78,147.26c3.6,0,3.51-5.67,3.51-5.67s4.07-.41,4.31-7a10,10,0,0,0,7.53,4.7c1.17.16-2.78-2.83-2.78-2.83s4.74,4.2,13.45,2.5c.61-.12-.79-9.3-7.67-12.37s-13-1.23-17.21,3.13c0,0-5,2.36-5.5,7.12S189.39,147.26,190.78,147.26Z" style="fill: rgb(38, 50, 56); transform-origin: 201.65px 136.164px;" id="elwwvgy3paxu" class="animable"></path><path d="M190.28,153.05a3,3,0,0,0,.71.19,2.5,2.5,0,0,0,.72,0,2.08,2.08,0,0,0,.88-.28,2.48,2.48,0,0,0,.58-.45,2.85,2.85,0,0,0,.58-.86l-.85-4.09s-3.36-4.78-5.52-3.58S187.73,152.11,190.28,153.05Z" style="fill: rgb(211, 118, 106); transform-origin: 190.155px 148.526px;" id="elinjswhhu078" class="animable"></path><path d="M188.15,146a0,0,0,0,0,0,.07c1.78.72,2.72,2.38,3.39,4.09a1.43,1.43,0,0,0-2.14-.38s0,.1,0,.09a1.6,1.6,0,0,1,1.76.55,7.8,7.8,0,0,1,.84,1.42c.08.16.37.07.31-.11v0C192.37,149.36,190.59,146.18,188.15,146Z" style="fill: rgb(38, 50, 56); transform-origin: 190.234px 148.962px;" id="el4zi8umzd8yk" class="animable"></path><path d="M190.49,152.41a.71.71,0,0,0,.84.55.71.71,0,0,0-.28-1.39A.71.71,0,0,0,190.49,152.41Z" style="fill: rgb(255, 255, 255); transform-origin: 191.169px 152.269px;" id="el11yht5vdhedf" class="animable"></path><path d="M189,151.34a.5.5,0,1,0,.39-.59A.5.5,0,0,0,189,151.34Z" style="fill: rgb(255, 255, 255); transform-origin: 189.49px 151.24px;" id="elh8y3j2z7kfu" class="animable"></path><path d="M191.56,130.56c2.54-1.16,10-11.9,1.08-19.68s-23.6,2.73-18.25,13.75C178,132,186.17,133,191.56,130.56Z" style="fill: rgb(38, 50, 56); transform-origin: 185.074px 119.972px;" id="el12p9v8efz3hs" class="animable"></path><rect x="221.34" y="170.93" width="4.48" height="146.8" style="fill: rgb(69, 90, 100); transform-origin: 223.58px 244.33px;" id="el8qf81x1jle4" class="animable"></rect><path d="M221.87,324.18V457a1.18,1.18,0,0,0,1.18,1.18h0a1.17,1.17,0,0,0,1.18-1.17l1.07-132.87Z" style="fill: rgb(69, 90, 100); transform-origin: 223.585px 391.16px;" id="elpy0i6cchm2h" class="animable"></path><path d="M218.46,324.18l-45.3,132.28a1.25,1.25,0,0,0,.78,1.58h0a1.24,1.24,0,0,0,1.57-.77l46.36-131.92Z" style="fill: rgb(69, 90, 100); transform-origin: 197.483px 391.143px;" id="el2zwbfk2hbuy" class="animable"></path><path d="M228.71,324.18,274,456.46a1.24,1.24,0,0,1-.77,1.58h0a1.24,1.24,0,0,1-1.57-.77L225.3,325.35Z" style="fill: rgb(69, 90, 100); transform-origin: 249.684px 391.143px;" id="elje8uoa8lt5q" class="animable"></path><path d="M218,319v3.55a5.56,5.56,0,0,0,11.11,0V319Z" style="fill: rgb(38, 50, 56); transform-origin: 223.555px 323.437px;" id="elj8ppdiwyz2g" class="animable"></path><rect x="215.46" y="316.55" width="16.24" height="5.91" style="fill: rgb(55, 71, 79); transform-origin: 223.58px 319.505px;" id="elzrr457uret" class="animable"></rect><polygon points="250.3 146.6 228.98 149.97 230.07 164.79 251.39 164.37 250.3 146.6" style="fill: rgb(69, 90, 100); transform-origin: 240.185px 155.695px;" id="el8sihwvxxrsf" class="animable"></polygon><polygon points="215.71 172.14 232.77 170.88 229.28 142.97 214.32 144.07 215.71 172.14" style="fill: rgb(55, 71, 79); transform-origin: 223.545px 157.555px;" id="elbiey2q5x7vn" class="animable"></polygon><polygon points="222.76 143.45 221.6 140.81 217.56 141.1 216.3 143.93 222.76 143.45" style="fill: rgb(55, 71, 79); transform-origin: 219.53px 142.37px;" id="elj4w2r2x01sg" class="animable"></polygon><polygon points="265.99 142.97 239.1 147.22 240.48 165.91 267.37 165.38 265.99 142.97" style="fill: rgb(55, 71, 79); transform-origin: 253.235px 154.44px;" id="elaoxckoyqy6c" class="animable"></polygon><path d="M265.19,144.42a22.53,22.53,0,0,0-2.61,10.23,16.32,16.32,0,0,0,3.84,9.36Z" style="fill: rgb(69, 90, 100); transform-origin: 264.5px 154.215px;" id="el4h18yl3iujk" class="animable"></path><path d="M187.08,168.31c2.66,4.13,21.25,36.08,22.6,37.25,0,0-7,18-16.43,11.12-8.93-6.51-13.5-32.94-14.73-46.19C177.85,163.36,182,160.45,187.08,168.31Z" style="fill: rgb(211, 118, 106); transform-origin: 194.064px 190.934px;" id="el7tog7t30a2j" class="animable"></path><path d="M187.08,168.31c2.66,4.13,21.25,36.08,22.6,37.25,0,0-7,18-16.43,11.12-8.93-6.51-13.5-32.94-14.73-46.19C177.85,163.36,182,160.45,187.08,168.31Z" style="fill: rgb(55, 71, 79); transform-origin: 194.064px 190.934px;" id="eln5c4meix8nr" class="animable"></path><path d="M184,199.42c-.15-1.22-2.67-12.26-2.92-13.45s-.53-2.39-.85-3.57-.62-2.37-1-3.54c.13,1.22.32,2.43.52,3.64s.44,2.41.69,3.61.52,2.39.81,3.58,2.28,8.6,2.64,9.78Z" style="fill: rgb(38, 50, 56); transform-origin: 181.615px 189.165px;" id="el8o4yspbsmi7" class="animable"></path><path d="M178.36,180.92a6.88,6.88,0,0,0,.77,1.7,6.62,6.62,0,0,0,1.14,1.46,7.08,7.08,0,0,0-.77-1.7A7.28,7.28,0,0,0,178.36,180.92Z" style="fill: rgb(38, 50, 56); transform-origin: 179.315px 182.5px;" id="elw5381rc5lbg" class="animable"></path><path d="M210.8,179.64c2.82-1.69,20.15,11.87,17.09,15.61-14.47,17.68-23.9,22.45-28.25,23.56s-9.7-5.82-10.06-9.65C189.06,203.6,208,181.32,210.8,179.64Z" style="fill: rgb(211, 118, 106); transform-origin: 208.91px 199.212px;" id="el5z7udp1whaf" class="animable"></path><path d="M246.41,164.22c1,2.54-5.48,4.49-5.48,4.49a5,5,0,0,1,2.91,1.82c1.21,1.69-.92,4.33-.92,4.33a6.24,6.24,0,0,1,2.77,2.4c1,1.74-.78,4.7-.78,4.7a4.81,4.81,0,0,1,1.1,3.65c-.51,2.9-4.79,5.6-8.13,6.85-3.19,1.19-13.21,3.52-15.1,4l-9.26-22.12s11-8,14.84-9.32C231.59,163.93,244.87,160.34,246.41,164.22Z" style="fill: rgb(211, 118, 106); transform-origin: 230.017px 179.46px;" id="elea00v2y6ck" class="animable"></path><path d="M240.85,168.66A46,46,0,0,0,230,171.42c-.08,0,0,.15,0,.12,3.46-1.25,7.33-1.6,10.82-2.71A.09.09,0,0,0,240.85,168.66Z" style="fill: rgb(38, 50, 56); transform-origin: 235.432px 170.102px;" id="elkpubshec1tg" class="animable"></path><path d="M242.87,174.71a9.46,9.46,0,0,0-2.41.79c-.84.33-1.66.69-2.49,1.05q-2.46,1.09-4.88,2.31c-.07,0,0,.16,0,.12,1.64-.72,3.3-1.42,5-2.08l2.52-1a11.78,11.78,0,0,0,2.34-1A.13.13,0,0,0,242.87,174.71Z" style="fill: rgb(38, 50, 56); transform-origin: 238.013px 176.848px;" id="el3mxul39kzg3" class="animable"></path><path d="M244.84,182a7.07,7.07,0,0,0-2.14.82l-2.23,1c-1.5.68-3,1.36-4.51,2-.08,0,0,.16,0,.12,1.55-.63,3.1-1.23,4.64-1.88.76-.31,1.51-.63,2.26-1a6.39,6.39,0,0,0,2-1.05A0,0,0,0,0,244.84,182Z" style="fill: rgb(38, 50, 56); transform-origin: 240.392px 183.973px;" id="eldm7hj82gmyq" class="animable"></path><path d="M222.8,168.56c-1.48,0-2.81-3.7-3.15-6.13s-2.74-5.89-4.71-5.78-1.95,4.78-1.75,7.7-1.49,13.89-2.39,15.29,6.18,2.81,6.18,2.81Z" style="fill: rgb(211, 118, 106); transform-origin: 216.76px 169.549px;" id="el4pts3z5eei" class="animable"></path><path d="M218,206.22c1.65-1.83,3.3-3.66,4.92-5.51l2.44-2.77c.79-.93,1.61-1.87,2.31-2.84l.06-.09.1,0c2-.48,4.1-1,6.13-1.57a24.18,24.18,0,0,0,5.82-2.23,17.87,17.87,0,0,0,4.89-3.76,4.27,4.27,0,0,0,1.08-2.66,3.13,3.13,0,0,0-1.11-2.5l-.28-.23.22-.27a5.47,5.47,0,0,0,.93-1.85,3.82,3.82,0,0,0,0-2,4.16,4.16,0,0,0-1-1.79,3.18,3.18,0,0,0-1.76-.94l-.51-.08.31-.38a7.13,7.13,0,0,0,1.06-1.7,2.57,2.57,0,0,0,.24-1.84,3.22,3.22,0,0,0-1.29-1.41,9.34,9.34,0,0,0-1.81-.92l-.47-.19.48-.13a14.72,14.72,0,0,0,3.5-1.4,5.76,5.76,0,0,0,1.48-1.16,2.2,2.2,0,0,0,.63-1.72,2.25,2.25,0,0,1-.57,1.78,6.15,6.15,0,0,1-1.45,1.24,15.1,15.1,0,0,1-3.5,1.58v-.31a8.58,8.58,0,0,1,1.92.89,3.64,3.64,0,0,1,1.5,1.6,3,3,0,0,1-.2,2.19A7.67,7.67,0,0,1,243,175l-.19-.45a3.7,3.7,0,0,1,2.15,1.06,4.6,4.6,0,0,1,1.19,2.06,4.68,4.68,0,0,1,0,2.38,6.21,6.21,0,0,1-1.06,2.12l-.07-.5a3.8,3.8,0,0,1,1.43,3.07,5,5,0,0,1-1.21,3.11,17.72,17.72,0,0,1-5.12,3.91,24.07,24.07,0,0,1-6,2.25c-2,.57-4.11,1-6.19,1.46l.17-.11c-.76,1-1.59,1.91-2.42,2.83s-1.67,1.82-2.52,2.71C221.46,202.71,219.73,204.47,218,206.22Z" style="fill: rgb(38, 50, 56); transform-origin: 232.226px 185.25px;" id="elety0ba9ozs4" class="animable"></path><path d="M202.82,187.4l17.45,18.82s-15.85,13-21.83,12.71c-5-.23-9.87-7.12-9-10.86C190.74,202.29,202.82,187.4,202.82,187.4Z" style="fill: rgb(55, 71, 79); transform-origin: 204.804px 203.167px;" id="elxe84gfwd5a" class="animable"></path><path d="M192.42,201.54c2.67-6.2,8.21-11.33,8.56-11.62.17-.14.41,0,.37,0-.74,1.07-6.25,7.48-8.73,11.68C192.6,201.67,192.4,201.58,192.42,201.54Z" style="fill: rgb(38, 50, 56); transform-origin: 196.887px 195.742px;" id="elfjodh8xfmyb" class="animable"></path><polygon points="201.35 189.25 218.21 209.02 223.16 205.09 205.06 184.43 201.35 189.25" style="fill: rgb(69, 90, 100); transform-origin: 212.255px 196.725px;" id="elgl6ei57t61u" class="animable"></polygon></g><defs>     <filter id="active" height="200%">         <feMorphology in="SourceAlpha" result="DILATED" operator="dilate" radius="2"></feMorphology>                <feFlood flood-color="#32DFEC" flood-opacity="1" result="PINK"></feFlood>        <feComposite in="PINK" in2="DILATED" operator="in" result="OUTLINE"></feComposite>        <feMerge>            <feMergeNode in="OUTLINE"></feMergeNode>            <feMergeNode in="SourceGraphic"></feMergeNode>        </feMerge>    </filter>    <filter id="hover" height="200%">        <feMorphology in="SourceAlpha" result="DILATED" operator="dilate" radius="2"></feMorphology>                <feFlood flood-color="#ff0000" flood-opacity="0.5" result="PINK"></feFlood>        <feComposite in="PINK" in2="DILATED" operator="in" result="OUTLINE"></feComposite>        <feMerge>            <feMergeNode in="OUTLINE"></feMergeNode>            <feMergeNode in="SourceGraphic"></feMergeNode>        </feMerge>            <feColorMatrix type="matrix" values="0   0   0   0   0                0   1   0   0   0                0   0   0   0   0                0   0   0   1   0 "></feColorMatrix>    </filter></defs></svg>